%
M48
M72
T01C0.0236
T02C0.0320
T03C0.0400
T04C0.0433
T05C0.0472
T06C0.0630
%
T01
X3883Y9487
X4483Y12487
X3133Y14187
X6383Y23487
X13883Y20237
X16883Y17237
X15883Y14337
X11883Y12987
X17383Y5837
X17883Y21487
T02
X16583Y12987
X15833Y12987
X17533Y11337
X17533Y10337
X18533Y9237
X19413Y9237
X19233Y10337
X19233Y11337
X19583Y12987
X19413Y6237
X18533Y6237
X13883Y5987
X10883Y5987
X9883Y5987
X6883Y5987
X12833Y12987
T03
X4883Y1537
X5883Y1437
X6883Y1537
X7883Y1437
X7883Y3337
X8883Y3337
X8883Y4537
X7883Y4437
X6883Y4537
X6883Y3337
X5883Y3337
X5883Y4437
X4883Y4537
X4883Y3337
X8333Y9337
X7883Y10437
X8883Y10537
X8883Y11637
X7883Y11637
X6883Y11637
X6883Y10537
X5883Y10437
X4883Y10537
X4883Y11637
X5883Y11637
X7883Y13187
X8883Y13187
X9883Y13187
X10883Y13187
X10883Y11637
X10883Y10537
X9883Y10437
X9333Y9337
X9883Y11637
X11883Y11637
X12883Y11637
X13883Y11637
X12883Y10537
X13883Y10437
X13433Y9337
X12433Y9337
X11883Y10437
X14883Y10537
X14883Y11637
X15883Y11637
X15883Y10437
X17383Y8357
X17383Y7217
X15883Y4437
X15883Y3337
X14883Y3337
X14883Y4537
X13883Y4437
X12883Y4537
X12883Y3337
X13883Y3337
X13883Y1437
X12883Y1537
X11883Y3337
X11883Y4437
X10883Y4537
X10883Y3337
X9883Y3337
X9883Y4437
X9813Y2237
X10953Y2237
X14883Y1537
X15883Y1437
X18783Y16987
X18983Y17987
X18783Y18987
X18983Y19987
X18783Y20987
X18983Y21987
X1833Y11987
X1833Y10987
X1833Y9987
T04
X14057Y23554
T05
X1733Y7665
X1733Y6287
T06
X14057Y15247
M30
