G75*
%MOIN*%
%OFA0B0*%
%FSLAX25Y25*%
%IPPOS*%
%LPD*%
%AMOC8*
5,1,8,0,0,1.08239X$1,22.5*
%
%ADD10C,0.07400*%
%ADD11R,0.06000X0.06000*%
%ADD12OC8,0.06600*%
%ADD13R,0.07400X0.07400*%
%ADD14OC8,0.04800*%
%ADD15R,0.03762X0.03762*%
%ADD16C,0.01600*%
D10*
X0048833Y0015367D03*
X0048833Y0034867D03*
X0048833Y0045367D03*
X0058833Y0044367D03*
X0058833Y0034867D03*
X0068833Y0034867D03*
X0068833Y0045367D03*
X0078833Y0044367D03*
X0078833Y0034867D03*
X0068833Y0015367D03*
X0058833Y0014367D03*
X0088833Y0034867D03*
X0088833Y0045367D03*
X0098833Y0044367D03*
X0098833Y0034867D03*
X0098133Y0024867D03*
X0109533Y0024867D03*
X0108833Y0034867D03*
X0108833Y0045367D03*
X0118833Y0044367D03*
X0118833Y0034867D03*
X0128833Y0034867D03*
X0128833Y0045367D03*
X0138833Y0044367D03*
X0138833Y0034867D03*
X0148833Y0034867D03*
X0148833Y0045367D03*
X0158833Y0044367D03*
X0158833Y0034867D03*
X0148833Y0015367D03*
X0138833Y0014367D03*
X0158833Y0014367D03*
X0173833Y0074167D03*
X0173833Y0085567D03*
X0158833Y0104367D03*
X0158833Y0114867D03*
X0148833Y0114867D03*
X0148833Y0105367D03*
X0138833Y0104367D03*
X0138833Y0114867D03*
X0128833Y0114867D03*
X0128833Y0105367D03*
X0124333Y0093367D03*
X0118833Y0104367D03*
X0118833Y0114867D03*
X0108833Y0114867D03*
X0108833Y0105367D03*
X0098833Y0104367D03*
X0098833Y0114867D03*
X0088833Y0114867D03*
X0088833Y0105367D03*
X0093333Y0093367D03*
X0083333Y0093367D03*
X0078833Y0104367D03*
X0078833Y0114867D03*
X0068833Y0114867D03*
X0068833Y0105367D03*
X0058833Y0104367D03*
X0058833Y0114867D03*
X0048833Y0114867D03*
X0048833Y0105367D03*
X0018333Y0107867D03*
X0018333Y0117867D03*
X0018333Y0097867D03*
X0134333Y0093367D03*
X0187833Y0169867D03*
X0189833Y0179867D03*
X0187833Y0189867D03*
X0189833Y0199867D03*
X0187833Y0209867D03*
X0189833Y0219867D03*
D11*
X0020333Y0075867D03*
X0020333Y0065867D03*
D12*
X0175333Y0103367D03*
X0175333Y0113367D03*
X0192333Y0113367D03*
X0192333Y0103367D03*
D13*
X0128833Y0015367D03*
X0078833Y0014367D03*
D14*
X0068833Y0059867D03*
X0098833Y0059867D03*
X0108833Y0059867D03*
X0138833Y0059867D03*
X0128333Y0129867D03*
X0158333Y0129867D03*
X0165833Y0129867D03*
X0185333Y0094867D03*
X0194133Y0094867D03*
X0194133Y0064867D03*
X0185333Y0064867D03*
X0195833Y0129867D03*
D15*
X0173833Y0169867D03*
X0158833Y0143367D03*
X0138833Y0202367D03*
X0178833Y0214867D03*
X0118833Y0129867D03*
X0173833Y0059867D03*
X0063833Y0234867D03*
X0038833Y0094867D03*
D16*
X0008833Y0009867D02*
X0008833Y0249867D01*
X0198833Y0249867D01*
X0198833Y0132806D01*
X0197573Y0134067D01*
X0195833Y0134067D01*
X0194094Y0134067D01*
X0191633Y0131606D01*
X0191633Y0129867D01*
X0195833Y0129867D01*
X0195833Y0134067D01*
X0195833Y0129867D01*
X0195833Y0129867D01*
X0195833Y0129867D01*
X0191633Y0129867D01*
X0191633Y0128127D01*
X0194094Y0125667D01*
X0195833Y0125667D01*
X0195833Y0129867D01*
X0195833Y0129867D01*
X0195833Y0125667D01*
X0197573Y0125667D01*
X0198833Y0126927D01*
X0198833Y0009867D01*
X0161296Y0009867D01*
X0161722Y0010043D01*
X0163157Y0011478D01*
X0163933Y0013352D01*
X0163933Y0015381D01*
X0163157Y0017256D01*
X0161722Y0018690D01*
X0159848Y0019467D01*
X0157819Y0019467D01*
X0155944Y0018690D01*
X0154510Y0017256D01*
X0154215Y0016545D01*
X0154198Y0016655D01*
X0153930Y0017478D01*
X0153537Y0018249D01*
X0153028Y0018950D01*
X0152416Y0019562D01*
X0151716Y0020071D01*
X0150945Y0020464D01*
X0150121Y0020731D01*
X0149266Y0020867D01*
X0149033Y0020867D01*
X0149033Y0015567D01*
X0148633Y0015567D01*
X0148633Y0020867D01*
X0148400Y0020867D01*
X0147545Y0020731D01*
X0146722Y0020464D01*
X0145951Y0020071D01*
X0145250Y0019562D01*
X0144638Y0018950D01*
X0144129Y0018249D01*
X0143736Y0017478D01*
X0143469Y0016655D01*
X0143451Y0016545D01*
X0143157Y0017256D01*
X0141722Y0018690D01*
X0141033Y0018976D01*
X0141033Y0020778D01*
X0139745Y0022067D01*
X0138245Y0023567D01*
X0120422Y0023567D01*
X0119133Y0022278D01*
X0113422Y0016567D01*
X0102745Y0016567D01*
X0100333Y0018978D01*
X0100333Y0020258D01*
X0101022Y0020543D01*
X0102457Y0021978D01*
X0103233Y0023852D01*
X0103233Y0025881D01*
X0102457Y0027756D01*
X0101022Y0029190D01*
X0099631Y0029767D01*
X0099848Y0029767D01*
X0101722Y0030543D01*
X0103157Y0031978D01*
X0103833Y0033611D01*
X0104510Y0031978D01*
X0105944Y0030543D01*
X0107819Y0029767D01*
X0108036Y0029767D01*
X0106644Y0029190D01*
X0105210Y0027756D01*
X0104433Y0025881D01*
X0104433Y0023852D01*
X0105210Y0021978D01*
X0106644Y0020543D01*
X0108519Y0019767D01*
X0110548Y0019767D01*
X0112422Y0020543D01*
X0113857Y0021978D01*
X0114633Y0023852D01*
X0114633Y0025881D01*
X0113857Y0027756D01*
X0112422Y0029190D01*
X0110548Y0029967D01*
X0110331Y0029967D01*
X0111722Y0030543D01*
X0113157Y0031978D01*
X0113833Y0033611D01*
X0114510Y0031978D01*
X0115944Y0030543D01*
X0117819Y0029767D01*
X0119848Y0029767D01*
X0121722Y0030543D01*
X0123157Y0031978D01*
X0123833Y0033611D01*
X0124510Y0031978D01*
X0125944Y0030543D01*
X0127819Y0029767D01*
X0129848Y0029767D01*
X0131722Y0030543D01*
X0133157Y0031978D01*
X0133833Y0033611D01*
X0134510Y0031978D01*
X0135944Y0030543D01*
X0137819Y0029767D01*
X0139848Y0029767D01*
X0141722Y0030543D01*
X0143157Y0031978D01*
X0143833Y0033611D01*
X0144510Y0031978D01*
X0145944Y0030543D01*
X0147819Y0029767D01*
X0149848Y0029767D01*
X0151722Y0030543D01*
X0153157Y0031978D01*
X0153833Y0033611D01*
X0154510Y0031978D01*
X0155944Y0030543D01*
X0157819Y0029767D01*
X0159848Y0029767D01*
X0161722Y0030543D01*
X0163157Y0031978D01*
X0163933Y0033852D01*
X0163933Y0035881D01*
X0163157Y0037756D01*
X0161722Y0039190D01*
X0160693Y0039617D01*
X0161722Y0040043D01*
X0163157Y0041478D01*
X0163442Y0042167D01*
X0189245Y0042167D01*
X0194745Y0047667D01*
X0196033Y0048955D01*
X0196033Y0061393D01*
X0197933Y0063293D01*
X0197933Y0066441D01*
X0195707Y0068667D01*
X0192559Y0068667D01*
X0190333Y0066441D01*
X0190333Y0063293D01*
X0191633Y0061993D01*
X0191633Y0050778D01*
X0187422Y0046567D01*
X0163442Y0046567D01*
X0163157Y0047256D01*
X0161722Y0048690D01*
X0159848Y0049467D01*
X0157819Y0049467D01*
X0155944Y0048690D01*
X0154510Y0047256D01*
X0153933Y0045864D01*
X0153933Y0046381D01*
X0153157Y0048256D01*
X0151722Y0049690D01*
X0150572Y0050167D01*
X0182745Y0050167D01*
X0184033Y0051455D01*
X0184033Y0051455D01*
X0187533Y0054955D01*
X0187533Y0061693D01*
X0189133Y0063293D01*
X0189133Y0066441D01*
X0186907Y0068667D01*
X0183759Y0068667D01*
X0181533Y0066441D01*
X0181533Y0063293D01*
X0183133Y0061693D01*
X0183133Y0056778D01*
X0180922Y0054567D01*
X0129922Y0054567D01*
X0127922Y0052567D01*
X0126633Y0051278D01*
X0126633Y0049976D01*
X0125944Y0049690D01*
X0124510Y0048256D01*
X0123733Y0046381D01*
X0123733Y0045864D01*
X0123157Y0047256D01*
X0121722Y0048690D01*
X0119848Y0049467D01*
X0117819Y0049467D01*
X0115944Y0048690D01*
X0114510Y0047256D01*
X0113933Y0045864D01*
X0113933Y0046381D01*
X0113157Y0048256D01*
X0111722Y0049690D01*
X0109848Y0050467D01*
X0107819Y0050467D01*
X0105944Y0049690D01*
X0104510Y0048256D01*
X0103733Y0046381D01*
X0103733Y0045864D01*
X0103157Y0047256D01*
X0101722Y0048690D01*
X0099848Y0049467D01*
X0097819Y0049467D01*
X0095944Y0048690D01*
X0094510Y0047256D01*
X0093933Y0045864D01*
X0093933Y0046381D01*
X0093157Y0048256D01*
X0091722Y0049690D01*
X0089848Y0050467D01*
X0087819Y0050467D01*
X0085944Y0049690D01*
X0084510Y0048256D01*
X0083844Y0046648D01*
X0083537Y0047249D01*
X0083028Y0047950D01*
X0082416Y0048562D01*
X0081716Y0049071D01*
X0080945Y0049464D01*
X0080121Y0049731D01*
X0079266Y0049867D01*
X0079033Y0049867D01*
X0079033Y0044567D01*
X0078633Y0044567D01*
X0078633Y0049867D01*
X0078400Y0049867D01*
X0077545Y0049731D01*
X0076722Y0049464D01*
X0075951Y0049071D01*
X0075250Y0048562D01*
X0074638Y0047950D01*
X0074129Y0047249D01*
X0073823Y0046648D01*
X0073157Y0048256D01*
X0071722Y0049690D01*
X0069848Y0050467D01*
X0067819Y0050467D01*
X0065944Y0049690D01*
X0064510Y0048256D01*
X0063733Y0046381D01*
X0063733Y0045864D01*
X0063157Y0047256D01*
X0061722Y0048690D01*
X0059848Y0049467D01*
X0057819Y0049467D01*
X0055944Y0048690D01*
X0054510Y0047256D01*
X0053933Y0045864D01*
X0053933Y0046381D01*
X0053157Y0048256D01*
X0051722Y0049690D01*
X0049848Y0050467D01*
X0047819Y0050467D01*
X0045944Y0049690D01*
X0044510Y0048256D01*
X0043733Y0046381D01*
X0043733Y0044352D01*
X0044510Y0042478D01*
X0045944Y0041043D01*
X0047819Y0040267D01*
X0049848Y0040267D01*
X0051722Y0041043D01*
X0053157Y0042478D01*
X0053733Y0043869D01*
X0053733Y0043352D01*
X0054510Y0041478D01*
X0055944Y0040043D01*
X0056974Y0039617D01*
X0055944Y0039190D01*
X0054510Y0037756D01*
X0053833Y0036123D01*
X0053157Y0037756D01*
X0051722Y0039190D01*
X0049848Y0039967D01*
X0047819Y0039967D01*
X0045944Y0039190D01*
X0044510Y0037756D01*
X0043733Y0035881D01*
X0043733Y0033852D01*
X0044510Y0031978D01*
X0045944Y0030543D01*
X0047819Y0029767D01*
X0049848Y0029767D01*
X0051722Y0030543D01*
X0053157Y0031978D01*
X0053833Y0033611D01*
X0054510Y0031978D01*
X0055944Y0030543D01*
X0057819Y0029767D01*
X0059848Y0029767D01*
X0061722Y0030543D01*
X0063157Y0031978D01*
X0063833Y0033611D01*
X0064510Y0031978D01*
X0065944Y0030543D01*
X0067819Y0029767D01*
X0069848Y0029767D01*
X0071722Y0030543D01*
X0073157Y0031978D01*
X0073623Y0033103D01*
X0073736Y0032755D01*
X0074129Y0031984D01*
X0074638Y0031284D01*
X0075250Y0030671D01*
X0075951Y0030163D01*
X0076722Y0029770D01*
X0077545Y0029502D01*
X0078400Y0029367D01*
X0078633Y0029367D01*
X0078633Y0034667D01*
X0079033Y0034667D01*
X0079033Y0029367D01*
X0079266Y0029367D01*
X0080121Y0029502D01*
X0080945Y0029770D01*
X0081716Y0030163D01*
X0082416Y0030671D01*
X0083028Y0031284D01*
X0083537Y0031984D01*
X0083930Y0032755D01*
X0084043Y0033103D01*
X0084510Y0031978D01*
X0085944Y0030543D01*
X0087819Y0029767D01*
X0089848Y0029767D01*
X0091722Y0030543D01*
X0093157Y0031978D01*
X0093833Y0033611D01*
X0094510Y0031978D01*
X0095944Y0030543D01*
X0097336Y0029967D01*
X0097119Y0029967D01*
X0095244Y0029190D01*
X0093810Y0027756D01*
X0093524Y0027067D01*
X0072922Y0027067D01*
X0071633Y0025778D01*
X0066633Y0020778D01*
X0066633Y0019976D01*
X0065944Y0019690D01*
X0064510Y0018256D01*
X0063844Y0016648D01*
X0063537Y0017249D01*
X0063028Y0017950D01*
X0062416Y0018562D01*
X0061716Y0019071D01*
X0060945Y0019464D01*
X0060121Y0019731D01*
X0059266Y0019867D01*
X0059033Y0019867D01*
X0059033Y0014567D01*
X0058633Y0014567D01*
X0058633Y0019867D01*
X0058400Y0019867D01*
X0057545Y0019731D01*
X0056722Y0019464D01*
X0055951Y0019071D01*
X0055250Y0018562D01*
X0054638Y0017950D01*
X0054129Y0017249D01*
X0053823Y0016648D01*
X0053157Y0018256D01*
X0051722Y0019690D01*
X0049848Y0020467D01*
X0047819Y0020467D01*
X0045944Y0019690D01*
X0044510Y0018256D01*
X0043733Y0016381D01*
X0043733Y0014352D01*
X0044510Y0012478D01*
X0045944Y0011043D01*
X0047819Y0010267D01*
X0049848Y0010267D01*
X0051722Y0011043D01*
X0053157Y0012478D01*
X0053451Y0013189D01*
X0053469Y0013079D01*
X0053736Y0012255D01*
X0054129Y0011484D01*
X0054638Y0010784D01*
X0055250Y0010171D01*
X0055670Y0009867D01*
X0008833Y0009867D01*
X0008833Y0011261D02*
X0045727Y0011261D01*
X0044352Y0012859D02*
X0008833Y0012859D01*
X0008833Y0014458D02*
X0043733Y0014458D01*
X0043733Y0016056D02*
X0008833Y0016056D01*
X0008833Y0017655D02*
X0044261Y0017655D01*
X0045507Y0019253D02*
X0008833Y0019253D01*
X0008833Y0020852D02*
X0066707Y0020852D01*
X0065507Y0019253D02*
X0061358Y0019253D01*
X0059033Y0019253D02*
X0058633Y0019253D01*
X0058633Y0017655D02*
X0059033Y0017655D01*
X0059033Y0016056D02*
X0058633Y0016056D01*
X0056309Y0019253D02*
X0052159Y0019253D01*
X0053406Y0017655D02*
X0054424Y0017655D01*
X0053540Y0012859D02*
X0053315Y0012859D01*
X0054292Y0011261D02*
X0051940Y0011261D01*
X0063243Y0017655D02*
X0064261Y0017655D01*
X0068833Y0019867D02*
X0073833Y0024867D01*
X0098133Y0024867D01*
X0098133Y0018067D01*
X0101833Y0014367D01*
X0114333Y0014367D01*
X0121333Y0021367D01*
X0137333Y0021367D01*
X0138833Y0019867D01*
X0138833Y0014367D01*
X0142758Y0017655D02*
X0143826Y0017655D01*
X0144942Y0019253D02*
X0141033Y0019253D01*
X0140959Y0020852D02*
X0148307Y0020852D01*
X0148633Y0020852D02*
X0149033Y0020852D01*
X0149360Y0020852D02*
X0198833Y0020852D01*
X0198833Y0022450D02*
X0139361Y0022450D01*
X0141480Y0030443D02*
X0146186Y0030443D01*
X0144483Y0032041D02*
X0143183Y0032041D01*
X0136186Y0030443D02*
X0131480Y0030443D01*
X0133183Y0032041D02*
X0134483Y0032041D01*
X0128833Y0045367D02*
X0128833Y0050367D01*
X0130833Y0052367D01*
X0181833Y0052367D01*
X0185333Y0055867D01*
X0185333Y0064867D01*
X0182413Y0062413D02*
X0141661Y0062413D01*
X0142633Y0061441D02*
X0140407Y0063667D01*
X0137259Y0063667D01*
X0135033Y0061441D01*
X0135033Y0058293D01*
X0137259Y0056067D01*
X0140407Y0056067D01*
X0142633Y0058293D01*
X0142633Y0061441D01*
X0142633Y0060815D02*
X0183133Y0060815D01*
X0183133Y0059216D02*
X0142633Y0059216D01*
X0141958Y0057618D02*
X0183133Y0057618D01*
X0182374Y0056019D02*
X0008833Y0056019D01*
X0008833Y0054421D02*
X0129776Y0054421D01*
X0128177Y0052822D02*
X0008833Y0052822D01*
X0008833Y0051223D02*
X0126633Y0051223D01*
X0125879Y0049625D02*
X0111787Y0049625D01*
X0113252Y0048026D02*
X0115281Y0048026D01*
X0114167Y0046428D02*
X0113914Y0046428D01*
X0110407Y0056067D02*
X0107259Y0056067D01*
X0105033Y0058293D01*
X0105033Y0061441D01*
X0107259Y0063667D01*
X0110407Y0063667D01*
X0112633Y0061441D01*
X0112633Y0058293D01*
X0110407Y0056067D01*
X0111958Y0057618D02*
X0135708Y0057618D01*
X0135033Y0059216D02*
X0112633Y0059216D01*
X0112633Y0060815D02*
X0135033Y0060815D01*
X0136006Y0062413D02*
X0111661Y0062413D01*
X0106006Y0062413D02*
X0101661Y0062413D01*
X0102633Y0061441D02*
X0100407Y0063667D01*
X0097259Y0063667D01*
X0095033Y0061441D01*
X0095033Y0058293D01*
X0097259Y0056067D01*
X0100407Y0056067D01*
X0102633Y0058293D01*
X0102633Y0061441D01*
X0102633Y0060815D02*
X0105033Y0060815D01*
X0105033Y0059216D02*
X0102633Y0059216D01*
X0101958Y0057618D02*
X0105708Y0057618D01*
X0105879Y0049625D02*
X0091787Y0049625D01*
X0093252Y0048026D02*
X0095281Y0048026D01*
X0094167Y0046428D02*
X0093914Y0046428D01*
X0085879Y0049625D02*
X0080448Y0049625D01*
X0079033Y0049625D02*
X0078633Y0049625D01*
X0077218Y0049625D02*
X0071787Y0049625D01*
X0073252Y0048026D02*
X0074715Y0048026D01*
X0078633Y0048026D02*
X0079033Y0048026D01*
X0079033Y0046428D02*
X0078633Y0046428D01*
X0078633Y0044829D02*
X0079033Y0044829D01*
X0079033Y0044167D02*
X0079033Y0035067D01*
X0078633Y0035067D01*
X0078633Y0040367D01*
X0078633Y0044167D01*
X0079033Y0044167D01*
X0079033Y0043231D02*
X0078633Y0043231D01*
X0078633Y0041632D02*
X0079033Y0041632D01*
X0079033Y0040034D02*
X0078633Y0040034D01*
X0078633Y0038435D02*
X0079033Y0038435D01*
X0079033Y0036837D02*
X0078633Y0036837D01*
X0078633Y0035238D02*
X0079033Y0035238D01*
X0079033Y0033640D02*
X0078633Y0033640D01*
X0078633Y0032041D02*
X0079033Y0032041D01*
X0079033Y0030443D02*
X0078633Y0030443D01*
X0075565Y0030443D02*
X0071480Y0030443D01*
X0073183Y0032041D02*
X0074100Y0032041D01*
X0071503Y0025647D02*
X0008833Y0025647D01*
X0008833Y0024049D02*
X0069904Y0024049D01*
X0068306Y0022450D02*
X0008833Y0022450D01*
X0008833Y0027246D02*
X0093599Y0027246D01*
X0094899Y0028844D02*
X0008833Y0028844D01*
X0008833Y0030443D02*
X0046186Y0030443D01*
X0044483Y0032041D02*
X0008833Y0032041D01*
X0008833Y0033640D02*
X0043821Y0033640D01*
X0043733Y0035238D02*
X0008833Y0035238D01*
X0008833Y0036837D02*
X0044129Y0036837D01*
X0045190Y0038435D02*
X0008833Y0038435D01*
X0008833Y0040034D02*
X0055967Y0040034D01*
X0055190Y0038435D02*
X0052477Y0038435D01*
X0053537Y0036837D02*
X0054129Y0036837D01*
X0054446Y0041632D02*
X0052312Y0041632D01*
X0053469Y0043231D02*
X0053784Y0043231D01*
X0053914Y0046428D02*
X0054167Y0046428D01*
X0053252Y0048026D02*
X0055281Y0048026D01*
X0051787Y0049625D02*
X0065879Y0049625D01*
X0064415Y0048026D02*
X0062386Y0048026D01*
X0063500Y0046428D02*
X0063753Y0046428D01*
X0067259Y0056067D02*
X0065033Y0058293D01*
X0065033Y0061441D01*
X0067259Y0063667D01*
X0070407Y0063667D01*
X0072633Y0061441D01*
X0072633Y0058293D01*
X0070407Y0056067D01*
X0067259Y0056067D01*
X0065708Y0057618D02*
X0008833Y0057618D01*
X0008833Y0059216D02*
X0065033Y0059216D01*
X0065033Y0060815D02*
X0008833Y0060815D01*
X0008833Y0062413D02*
X0015591Y0062413D01*
X0015533Y0062630D02*
X0015656Y0062172D01*
X0015893Y0061761D01*
X0016228Y0061426D01*
X0016639Y0061189D01*
X0017096Y0061067D01*
X0020133Y0061067D01*
X0020133Y0065667D01*
X0015533Y0065667D01*
X0015533Y0062630D01*
X0015533Y0064012D02*
X0008833Y0064012D01*
X0008833Y0065610D02*
X0015533Y0065610D01*
X0015533Y0066067D02*
X0020133Y0066067D01*
X0020133Y0070667D01*
X0017096Y0070667D01*
X0016639Y0070544D01*
X0016228Y0070307D01*
X0015893Y0069972D01*
X0015656Y0069561D01*
X0015533Y0069104D01*
X0015533Y0066067D01*
X0015533Y0067209D02*
X0008833Y0067209D01*
X0008833Y0068807D02*
X0015533Y0068807D01*
X0016399Y0070406D02*
X0008833Y0070406D01*
X0008833Y0072004D02*
X0016216Y0072004D01*
X0015933Y0072287D02*
X0016753Y0071467D01*
X0023913Y0071467D01*
X0024733Y0072287D01*
X0024733Y0079447D01*
X0023913Y0080267D01*
X0016753Y0080267D01*
X0015933Y0079447D01*
X0015933Y0072287D01*
X0015933Y0073603D02*
X0008833Y0073603D01*
X0008833Y0075201D02*
X0015933Y0075201D01*
X0015933Y0076800D02*
X0008833Y0076800D01*
X0008833Y0078398D02*
X0015933Y0078398D01*
X0016483Y0079997D02*
X0008833Y0079997D01*
X0008833Y0081595D02*
X0170592Y0081595D01*
X0170944Y0081243D02*
X0172819Y0080467D01*
X0174848Y0080467D01*
X0176722Y0081243D01*
X0178157Y0082678D01*
X0178933Y0084552D01*
X0178933Y0086581D01*
X0178157Y0088456D01*
X0176722Y0089890D01*
X0174848Y0090667D01*
X0172819Y0090667D01*
X0170944Y0089890D01*
X0169510Y0088456D01*
X0168733Y0086581D01*
X0168733Y0084552D01*
X0169510Y0082678D01*
X0170944Y0081243D01*
X0169296Y0083194D02*
X0090272Y0083194D01*
X0089745Y0082667D02*
X0095533Y0088455D01*
X0095533Y0088758D01*
X0096222Y0089043D01*
X0097657Y0090478D01*
X0098433Y0092352D01*
X0098433Y0094381D01*
X0097657Y0096256D01*
X0096222Y0097690D01*
X0094348Y0098467D01*
X0092319Y0098467D01*
X0090444Y0097690D01*
X0089010Y0096256D01*
X0088333Y0094623D01*
X0087657Y0096256D01*
X0086222Y0097690D01*
X0084348Y0098467D01*
X0082319Y0098467D01*
X0080444Y0097690D01*
X0079010Y0096256D01*
X0078233Y0094381D01*
X0078233Y0092352D01*
X0079010Y0090478D01*
X0080444Y0089043D01*
X0082319Y0088267D01*
X0084348Y0088267D01*
X0086222Y0089043D01*
X0087657Y0090478D01*
X0088333Y0092111D01*
X0089010Y0090478D01*
X0090171Y0089316D01*
X0087922Y0087067D01*
X0041745Y0087067D01*
X0037226Y0091586D01*
X0041294Y0091586D01*
X0042114Y0092406D01*
X0042114Y0097328D01*
X0041294Y0098148D01*
X0041033Y0098148D01*
X0041033Y0206455D01*
X0044745Y0210167D01*
X0170422Y0210167D01*
X0171633Y0208955D01*
X0171633Y0203955D01*
X0176633Y0198955D01*
X0177922Y0197667D01*
X0185224Y0197667D01*
X0185510Y0196978D01*
X0186944Y0195543D01*
X0188336Y0194967D01*
X0186819Y0194967D01*
X0184944Y0194190D01*
X0183510Y0192756D01*
X0182733Y0190881D01*
X0182733Y0188852D01*
X0183510Y0186978D01*
X0184944Y0185543D01*
X0186819Y0184767D01*
X0188336Y0184767D01*
X0186944Y0184190D01*
X0185510Y0182756D01*
X0184733Y0180881D01*
X0184733Y0178852D01*
X0185510Y0176978D01*
X0186944Y0175543D01*
X0187379Y0175363D01*
X0186545Y0175231D01*
X0185722Y0174964D01*
X0184951Y0174571D01*
X0184250Y0174062D01*
X0183638Y0173450D01*
X0183129Y0172749D01*
X0182736Y0171978D01*
X0182469Y0171155D01*
X0182333Y0170300D01*
X0182333Y0170067D01*
X0187633Y0170067D01*
X0187633Y0169667D01*
X0182333Y0169667D01*
X0182333Y0169434D01*
X0182469Y0168579D01*
X0182736Y0167755D01*
X0183129Y0166984D01*
X0183638Y0166284D01*
X0184250Y0165671D01*
X0184951Y0165163D01*
X0185722Y0164770D01*
X0186545Y0164502D01*
X0187400Y0164367D01*
X0187633Y0164367D01*
X0187633Y0169667D01*
X0188033Y0169667D01*
X0188033Y0170067D01*
X0193333Y0170067D01*
X0193333Y0170300D01*
X0193198Y0171155D01*
X0192930Y0171978D01*
X0192537Y0172749D01*
X0192028Y0173450D01*
X0191416Y0174062D01*
X0190716Y0174571D01*
X0190331Y0174767D01*
X0190848Y0174767D01*
X0192722Y0175543D01*
X0194157Y0176978D01*
X0194933Y0178852D01*
X0194933Y0180881D01*
X0194157Y0182756D01*
X0192722Y0184190D01*
X0190848Y0184967D01*
X0189331Y0184967D01*
X0190722Y0185543D01*
X0192157Y0186978D01*
X0192933Y0188852D01*
X0192933Y0190881D01*
X0192157Y0192756D01*
X0190722Y0194190D01*
X0189331Y0194767D01*
X0190848Y0194767D01*
X0192722Y0195543D01*
X0194157Y0196978D01*
X0194933Y0198852D01*
X0194933Y0200881D01*
X0194157Y0202756D01*
X0192722Y0204190D01*
X0190848Y0204967D01*
X0190331Y0204967D01*
X0190716Y0205163D01*
X0191416Y0205671D01*
X0192028Y0206284D01*
X0192537Y0206984D01*
X0192930Y0207755D01*
X0193198Y0208579D01*
X0193333Y0209434D01*
X0193333Y0209667D01*
X0188033Y0209667D01*
X0188033Y0210067D01*
X0193333Y0210067D01*
X0193333Y0210300D01*
X0193198Y0211155D01*
X0192930Y0211978D01*
X0192537Y0212749D01*
X0192028Y0213450D01*
X0191416Y0214062D01*
X0190716Y0214571D01*
X0190331Y0214767D01*
X0190848Y0214767D01*
X0192722Y0215543D01*
X0194157Y0216978D01*
X0194933Y0218852D01*
X0194933Y0220881D01*
X0194157Y0222756D01*
X0192722Y0224190D01*
X0190848Y0224967D01*
X0188819Y0224967D01*
X0186944Y0224190D01*
X0185510Y0222756D01*
X0184733Y0220881D01*
X0184733Y0218852D01*
X0185510Y0216978D01*
X0186944Y0215543D01*
X0187379Y0215363D01*
X0186545Y0215231D01*
X0185722Y0214964D01*
X0184951Y0214571D01*
X0184250Y0214062D01*
X0183638Y0213450D01*
X0183129Y0212749D01*
X0182736Y0211978D01*
X0182469Y0211155D01*
X0182333Y0210300D01*
X0182333Y0210067D01*
X0187633Y0210067D01*
X0187633Y0209667D01*
X0182333Y0209667D01*
X0182333Y0209434D01*
X0182469Y0208579D01*
X0182736Y0207755D01*
X0183129Y0206984D01*
X0183638Y0206284D01*
X0184250Y0205671D01*
X0184951Y0205163D01*
X0185722Y0204770D01*
X0186545Y0204502D01*
X0187379Y0204370D01*
X0186944Y0204190D01*
X0185510Y0202756D01*
X0185224Y0202067D01*
X0179745Y0202067D01*
X0176033Y0205778D01*
X0176033Y0210778D01*
X0174745Y0212067D01*
X0172245Y0214567D01*
X0042922Y0214567D01*
X0041633Y0213278D01*
X0036633Y0208278D01*
X0036633Y0098148D01*
X0036372Y0098148D01*
X0035552Y0097328D01*
X0035552Y0093259D01*
X0033533Y0095278D01*
X0033533Y0206455D01*
X0044745Y0217667D01*
X0172922Y0217667D01*
X0175552Y0215036D01*
X0175552Y0212406D01*
X0176372Y0211586D01*
X0181294Y0211586D01*
X0182114Y0212406D01*
X0182114Y0217328D01*
X0181294Y0218148D01*
X0178663Y0218148D01*
X0174745Y0222067D01*
X0042922Y0222067D01*
X0041633Y0220778D01*
X0029133Y0208278D01*
X0029133Y0093455D01*
X0030422Y0092167D01*
X0039922Y0082667D01*
X0089745Y0082667D01*
X0088833Y0084867D02*
X0040833Y0084867D01*
X0031333Y0094367D01*
X0031333Y0207367D01*
X0043833Y0219867D01*
X0173833Y0219867D01*
X0178833Y0214867D01*
X0175552Y0214272D02*
X0172540Y0214272D01*
X0171333Y0212367D02*
X0173833Y0209867D01*
X0173833Y0204867D01*
X0178833Y0199867D01*
X0189833Y0199867D01*
X0194933Y0199885D02*
X0198833Y0199885D01*
X0198833Y0198287D02*
X0194699Y0198287D01*
X0193867Y0196688D02*
X0198833Y0196688D01*
X0198833Y0195090D02*
X0191627Y0195090D01*
X0191421Y0193491D02*
X0198833Y0193491D01*
X0198833Y0191892D02*
X0192514Y0191892D01*
X0192933Y0190294D02*
X0198833Y0190294D01*
X0198833Y0188695D02*
X0192868Y0188695D01*
X0192206Y0187097D02*
X0198833Y0187097D01*
X0198833Y0185498D02*
X0190614Y0185498D01*
X0193013Y0183900D02*
X0198833Y0183900D01*
X0198833Y0182301D02*
X0194345Y0182301D01*
X0194933Y0180703D02*
X0198833Y0180703D01*
X0198833Y0179104D02*
X0194933Y0179104D01*
X0194376Y0177506D02*
X0198833Y0177506D01*
X0198833Y0175907D02*
X0193087Y0175907D01*
X0191076Y0174309D02*
X0198833Y0174309D01*
X0198833Y0172710D02*
X0192557Y0172710D01*
X0193205Y0171112D02*
X0198833Y0171112D01*
X0198833Y0169513D02*
X0193333Y0169513D01*
X0193333Y0169434D02*
X0193333Y0169667D01*
X0188033Y0169667D01*
X0188033Y0164367D01*
X0188266Y0164367D01*
X0189121Y0164502D01*
X0189945Y0164770D01*
X0190716Y0165163D01*
X0191416Y0165671D01*
X0192028Y0166284D01*
X0192537Y0166984D01*
X0192930Y0167755D01*
X0193198Y0168579D01*
X0193333Y0169434D01*
X0192982Y0167915D02*
X0198833Y0167915D01*
X0198833Y0166316D02*
X0192052Y0166316D01*
X0189785Y0164718D02*
X0198833Y0164718D01*
X0198833Y0163119D02*
X0176033Y0163119D01*
X0176033Y0161521D02*
X0198833Y0161521D01*
X0198833Y0159922D02*
X0176033Y0159922D01*
X0176033Y0158324D02*
X0198833Y0158324D01*
X0198833Y0156725D02*
X0176033Y0156725D01*
X0176033Y0155127D02*
X0198833Y0155127D01*
X0198833Y0153528D02*
X0176033Y0153528D01*
X0176033Y0151930D02*
X0198833Y0151930D01*
X0198833Y0150331D02*
X0176033Y0150331D01*
X0176033Y0148733D02*
X0198833Y0148733D01*
X0198833Y0147134D02*
X0176033Y0147134D01*
X0176033Y0145536D02*
X0198833Y0145536D01*
X0198833Y0143937D02*
X0176033Y0143937D01*
X0176033Y0142339D02*
X0198833Y0142339D01*
X0198833Y0140740D02*
X0176033Y0140740D01*
X0176033Y0139142D02*
X0198833Y0139142D01*
X0198833Y0137543D02*
X0176033Y0137543D01*
X0176033Y0135945D02*
X0198833Y0135945D01*
X0198833Y0134346D02*
X0176033Y0134346D01*
X0176033Y0132748D02*
X0192775Y0132748D01*
X0191633Y0131149D02*
X0176033Y0131149D01*
X0176033Y0129551D02*
X0191633Y0129551D01*
X0191808Y0127952D02*
X0176033Y0127952D01*
X0176033Y0126354D02*
X0193407Y0126354D01*
X0195833Y0126354D02*
X0195833Y0126354D01*
X0195833Y0127952D02*
X0195833Y0127952D01*
X0195833Y0129551D02*
X0195833Y0129551D01*
X0195833Y0131149D02*
X0195833Y0131149D01*
X0195833Y0132748D02*
X0195833Y0132748D01*
X0198260Y0126354D02*
X0198833Y0126354D01*
X0198833Y0124755D02*
X0176033Y0124755D01*
X0176033Y0123955D02*
X0176033Y0166586D01*
X0176294Y0166586D01*
X0177114Y0167406D01*
X0177114Y0172328D01*
X0176294Y0173148D01*
X0171372Y0173148D01*
X0170552Y0172328D01*
X0170552Y0167406D01*
X0171372Y0166586D01*
X0171633Y0166586D01*
X0171633Y0125778D01*
X0165922Y0120067D01*
X0164633Y0118778D01*
X0164633Y0101278D01*
X0163922Y0100567D01*
X0162246Y0100567D01*
X0163157Y0101478D01*
X0163933Y0103352D01*
X0163933Y0105381D01*
X0163157Y0107256D01*
X0161722Y0108690D01*
X0159848Y0109467D01*
X0157819Y0109467D01*
X0155944Y0108690D01*
X0154510Y0107256D01*
X0153933Y0105864D01*
X0153933Y0106381D01*
X0153157Y0108256D01*
X0151722Y0109690D01*
X0150693Y0110117D01*
X0151722Y0110543D01*
X0153157Y0111978D01*
X0153833Y0113611D01*
X0154510Y0111978D01*
X0155944Y0110543D01*
X0157819Y0109767D01*
X0159848Y0109767D01*
X0161722Y0110543D01*
X0163157Y0111978D01*
X0163933Y0113852D01*
X0163933Y0115881D01*
X0163157Y0117756D01*
X0161722Y0119190D01*
X0159848Y0119967D01*
X0158645Y0119967D01*
X0159345Y0120667D01*
X0160633Y0121955D01*
X0160633Y0126793D01*
X0162083Y0128243D01*
X0164259Y0126067D01*
X0167407Y0126067D01*
X0169633Y0128293D01*
X0169633Y0131441D01*
X0167407Y0133667D01*
X0164259Y0133667D01*
X0162083Y0131491D01*
X0159907Y0133667D01*
X0156759Y0133667D01*
X0154533Y0131441D01*
X0154533Y0128293D01*
X0156233Y0126593D01*
X0156233Y0123778D01*
X0156022Y0123567D01*
X0125145Y0123567D01*
X0127645Y0126067D01*
X0129907Y0126067D01*
X0132133Y0128293D01*
X0132133Y0131441D01*
X0129907Y0133667D01*
X0126759Y0133667D01*
X0124533Y0131441D01*
X0124533Y0129178D01*
X0122422Y0127067D01*
X0121775Y0127067D01*
X0122114Y0127406D01*
X0122114Y0130036D01*
X0136033Y0143955D01*
X0136033Y0149290D01*
X0137479Y0147845D01*
X0139482Y0147015D01*
X0141650Y0147015D01*
X0143653Y0147845D01*
X0145186Y0149378D01*
X0146015Y0151381D01*
X0146015Y0153549D01*
X0145186Y0155552D01*
X0143653Y0157085D01*
X0141650Y0157915D01*
X0139482Y0157915D01*
X0137479Y0157085D01*
X0136033Y0155640D01*
X0136033Y0198955D01*
X0136268Y0199190D01*
X0136372Y0199086D01*
X0141294Y0199086D01*
X0142114Y0199906D01*
X0142114Y0204828D01*
X0141294Y0205648D01*
X0136372Y0205648D01*
X0135552Y0204828D01*
X0135552Y0204567D01*
X0135422Y0204567D01*
X0132922Y0202067D01*
X0131633Y0200778D01*
X0131633Y0145778D01*
X0119003Y0133148D01*
X0116372Y0133148D01*
X0115552Y0132328D01*
X0115552Y0127406D01*
X0115891Y0127067D01*
X0052922Y0127067D01*
X0051633Y0125778D01*
X0046633Y0120778D01*
X0046633Y0119476D01*
X0045944Y0119190D01*
X0044510Y0117756D01*
X0043733Y0115881D01*
X0043733Y0113852D01*
X0044510Y0111978D01*
X0045944Y0110543D01*
X0046974Y0110117D01*
X0045944Y0109690D01*
X0044510Y0108256D01*
X0043733Y0106381D01*
X0043733Y0104352D01*
X0044510Y0102478D01*
X0045944Y0101043D01*
X0047819Y0100267D01*
X0049848Y0100267D01*
X0051722Y0101043D01*
X0053157Y0102478D01*
X0053451Y0103189D01*
X0053469Y0103079D01*
X0053736Y0102255D01*
X0054129Y0101484D01*
X0054638Y0100784D01*
X0055250Y0100171D01*
X0055951Y0099663D01*
X0056722Y0099270D01*
X0057545Y0099002D01*
X0058400Y0098867D01*
X0058633Y0098867D01*
X0058633Y0104167D01*
X0059033Y0104167D01*
X0059033Y0098867D01*
X0059266Y0098867D01*
X0060121Y0099002D01*
X0060945Y0099270D01*
X0061716Y0099663D01*
X0062416Y0100171D01*
X0063028Y0100784D01*
X0063537Y0101484D01*
X0063930Y0102255D01*
X0064198Y0103079D01*
X0064215Y0103189D01*
X0064510Y0102478D01*
X0065944Y0101043D01*
X0067819Y0100267D01*
X0069848Y0100267D01*
X0071722Y0101043D01*
X0073157Y0102478D01*
X0073733Y0103869D01*
X0073733Y0103352D01*
X0074510Y0101478D01*
X0075944Y0100043D01*
X0077819Y0099267D01*
X0079848Y0099267D01*
X0081722Y0100043D01*
X0083157Y0101478D01*
X0083933Y0103352D01*
X0083933Y0103869D01*
X0084510Y0102478D01*
X0085944Y0101043D01*
X0087819Y0100267D01*
X0089848Y0100267D01*
X0091722Y0101043D01*
X0093157Y0102478D01*
X0093733Y0103869D01*
X0093733Y0103352D01*
X0094510Y0101478D01*
X0095944Y0100043D01*
X0097819Y0099267D01*
X0099848Y0099267D01*
X0101722Y0100043D01*
X0103157Y0101478D01*
X0103933Y0103352D01*
X0103933Y0103869D01*
X0104510Y0102478D01*
X0105944Y0101043D01*
X0107819Y0100267D01*
X0109848Y0100267D01*
X0111722Y0101043D01*
X0113157Y0102478D01*
X0113733Y0103869D01*
X0113733Y0103352D01*
X0114510Y0101478D01*
X0115944Y0100043D01*
X0117819Y0099267D01*
X0119848Y0099267D01*
X0121722Y0100043D01*
X0123157Y0101478D01*
X0123933Y0103352D01*
X0123933Y0103869D01*
X0124510Y0102478D01*
X0125944Y0101043D01*
X0127819Y0100267D01*
X0129848Y0100267D01*
X0131722Y0101043D01*
X0133157Y0102478D01*
X0133733Y0103869D01*
X0133733Y0103352D01*
X0134510Y0101478D01*
X0135944Y0100043D01*
X0137819Y0099267D01*
X0139848Y0099267D01*
X0141722Y0100043D01*
X0143157Y0101478D01*
X0143933Y0103352D01*
X0143933Y0103869D01*
X0144510Y0102478D01*
X0145944Y0101043D01*
X0146133Y0100965D01*
X0146133Y0098955D01*
X0147422Y0097667D01*
X0148922Y0096167D01*
X0165745Y0096167D01*
X0167033Y0097455D01*
X0169033Y0099455D01*
X0169033Y0116955D01*
X0176033Y0123955D01*
X0175234Y0123156D02*
X0198833Y0123156D01*
X0198833Y0121558D02*
X0173636Y0121558D01*
X0172037Y0119959D02*
X0198833Y0119959D01*
X0198833Y0118361D02*
X0194551Y0118361D01*
X0194446Y0118467D02*
X0192333Y0118467D01*
X0190221Y0118467D01*
X0187233Y0115479D01*
X0187233Y0113367D01*
X0192333Y0113367D01*
X0192333Y0118467D01*
X0192333Y0113367D01*
X0192333Y0113367D01*
X0192333Y0113367D01*
X0187233Y0113367D01*
X0187233Y0111254D01*
X0190221Y0108267D01*
X0192333Y0108267D01*
X0192333Y0113367D01*
X0197433Y0113367D01*
X0197433Y0115479D01*
X0194446Y0118467D01*
X0192333Y0118361D02*
X0192333Y0118361D01*
X0192333Y0116762D02*
X0192333Y0116762D01*
X0192333Y0115164D02*
X0192333Y0115164D01*
X0192333Y0113565D02*
X0192333Y0113565D01*
X0192333Y0113367D02*
X0192333Y0113367D01*
X0192333Y0113367D01*
X0192333Y0108267D01*
X0194446Y0108267D01*
X0197433Y0111254D01*
X0197433Y0113367D01*
X0192333Y0113367D01*
X0192333Y0111967D02*
X0192333Y0111967D01*
X0192333Y0110368D02*
X0192333Y0110368D01*
X0192333Y0108770D02*
X0192333Y0108770D01*
X0190387Y0108067D02*
X0187633Y0105313D01*
X0187633Y0101420D01*
X0190387Y0098667D01*
X0194280Y0098667D01*
X0197033Y0101420D01*
X0197033Y0105313D01*
X0194280Y0108067D01*
X0190387Y0108067D01*
X0189718Y0108770D02*
X0177949Y0108770D01*
X0177446Y0108267D02*
X0180433Y0111254D01*
X0180433Y0113367D01*
X0180433Y0115479D01*
X0177446Y0118467D01*
X0175333Y0118467D01*
X0173221Y0118467D01*
X0170233Y0115479D01*
X0170233Y0113367D01*
X0175333Y0113367D01*
X0175333Y0118467D01*
X0175333Y0113367D01*
X0175333Y0113367D01*
X0175333Y0113367D01*
X0170233Y0113367D01*
X0170233Y0111254D01*
X0173221Y0108267D01*
X0175333Y0108267D01*
X0175333Y0113367D01*
X0180433Y0113367D01*
X0175333Y0113367D01*
X0175333Y0113367D01*
X0175333Y0113367D01*
X0175333Y0108267D01*
X0177446Y0108267D01*
X0177280Y0108067D02*
X0173387Y0108067D01*
X0170633Y0105313D01*
X0170633Y0101420D01*
X0173387Y0098667D01*
X0177280Y0098667D01*
X0180033Y0101420D01*
X0180033Y0105313D01*
X0177280Y0108067D01*
X0178175Y0107171D02*
X0189491Y0107171D01*
X0187893Y0105573D02*
X0179774Y0105573D01*
X0180033Y0103974D02*
X0187633Y0103974D01*
X0187633Y0102376D02*
X0180033Y0102376D01*
X0179391Y0100777D02*
X0188276Y0100777D01*
X0189874Y0099179D02*
X0177792Y0099179D01*
X0181533Y0096441D02*
X0181533Y0093293D01*
X0183759Y0091067D01*
X0186907Y0091067D01*
X0189133Y0093293D01*
X0189133Y0096441D01*
X0186907Y0098667D01*
X0183759Y0098667D01*
X0181533Y0096441D01*
X0181533Y0095982D02*
X0138770Y0095982D01*
X0138657Y0096256D02*
X0137222Y0097690D01*
X0135348Y0098467D01*
X0133319Y0098467D01*
X0131444Y0097690D01*
X0130010Y0096256D01*
X0129333Y0094623D01*
X0128657Y0096256D01*
X0127222Y0097690D01*
X0125348Y0098467D01*
X0123319Y0098467D01*
X0121444Y0097690D01*
X0120010Y0096256D01*
X0119233Y0094381D01*
X0119233Y0092352D01*
X0120010Y0090478D01*
X0121444Y0089043D01*
X0123319Y0088267D01*
X0125348Y0088267D01*
X0127222Y0089043D01*
X0128657Y0090478D01*
X0129333Y0092111D01*
X0130010Y0090478D01*
X0131444Y0089043D01*
X0133319Y0088267D01*
X0135348Y0088267D01*
X0137222Y0089043D01*
X0138657Y0090478D01*
X0139433Y0092352D01*
X0139433Y0094381D01*
X0138657Y0096256D01*
X0137332Y0097580D02*
X0147508Y0097580D01*
X0146133Y0099179D02*
X0060665Y0099179D01*
X0059033Y0099179D02*
X0058633Y0099179D01*
X0058633Y0100777D02*
X0059033Y0100777D01*
X0059033Y0102376D02*
X0058633Y0102376D01*
X0058633Y0103974D02*
X0059033Y0103974D01*
X0059033Y0104567D02*
X0058633Y0104567D01*
X0058633Y0114667D01*
X0059033Y0114667D01*
X0059033Y0109367D01*
X0059033Y0104567D01*
X0059033Y0105573D02*
X0058633Y0105573D01*
X0058633Y0107171D02*
X0059033Y0107171D01*
X0059033Y0108770D02*
X0058633Y0108770D01*
X0058633Y0110368D02*
X0059033Y0110368D01*
X0059033Y0111967D02*
X0058633Y0111967D01*
X0058633Y0113565D02*
X0059033Y0113565D01*
X0059033Y0115067D02*
X0058633Y0115067D01*
X0058633Y0120367D01*
X0058400Y0120367D01*
X0057545Y0120231D01*
X0056722Y0119964D01*
X0055951Y0119571D01*
X0055250Y0119062D01*
X0054638Y0118450D01*
X0054129Y0117749D01*
X0053736Y0116978D01*
X0053623Y0116630D01*
X0053157Y0117756D01*
X0051722Y0119190D01*
X0051401Y0119323D01*
X0054745Y0122667D01*
X0088222Y0122667D01*
X0087833Y0122278D01*
X0086633Y0121078D01*
X0086633Y0119476D01*
X0085944Y0119190D01*
X0084510Y0117756D01*
X0083833Y0116123D01*
X0083157Y0117756D01*
X0081722Y0119190D01*
X0079848Y0119967D01*
X0077819Y0119967D01*
X0075944Y0119190D01*
X0074510Y0117756D01*
X0073833Y0116123D01*
X0073157Y0117756D01*
X0071722Y0119190D01*
X0069848Y0119967D01*
X0067819Y0119967D01*
X0065944Y0119190D01*
X0064510Y0117756D01*
X0064043Y0116630D01*
X0063930Y0116978D01*
X0063537Y0117749D01*
X0063028Y0118450D01*
X0062416Y0119062D01*
X0061716Y0119571D01*
X0060945Y0119964D01*
X0060121Y0120231D01*
X0059266Y0120367D01*
X0059033Y0120367D01*
X0059033Y0115067D01*
X0059033Y0115164D02*
X0058633Y0115164D01*
X0058633Y0116762D02*
X0059033Y0116762D01*
X0059033Y0118361D02*
X0058633Y0118361D01*
X0058633Y0119959D02*
X0059033Y0119959D01*
X0060953Y0119959D02*
X0067802Y0119959D01*
X0069865Y0119959D02*
X0077802Y0119959D01*
X0079865Y0119959D02*
X0086633Y0119959D01*
X0087113Y0121558D02*
X0053636Y0121558D01*
X0052037Y0119959D02*
X0056714Y0119959D01*
X0054574Y0118361D02*
X0052552Y0118361D01*
X0053568Y0116762D02*
X0053666Y0116762D01*
X0048833Y0119867D02*
X0053833Y0124867D01*
X0123333Y0124867D01*
X0128333Y0129867D01*
X0125840Y0132748D02*
X0124826Y0132748D01*
X0124533Y0131149D02*
X0123227Y0131149D01*
X0122114Y0129551D02*
X0124533Y0129551D01*
X0123307Y0127952D02*
X0122114Y0127952D01*
X0118833Y0129867D02*
X0133833Y0144867D01*
X0133833Y0199867D01*
X0136333Y0202367D01*
X0138833Y0202367D01*
X0142114Y0203082D02*
X0172507Y0203082D01*
X0171633Y0204681D02*
X0142114Y0204681D01*
X0142114Y0201484D02*
X0174105Y0201484D01*
X0175704Y0199885D02*
X0142094Y0199885D01*
X0136033Y0198287D02*
X0177302Y0198287D01*
X0178729Y0203082D02*
X0185836Y0203082D01*
X0185996Y0204681D02*
X0177131Y0204681D01*
X0176033Y0206279D02*
X0183643Y0206279D01*
X0182697Y0207878D02*
X0176033Y0207878D01*
X0176033Y0209476D02*
X0182333Y0209476D01*
X0182456Y0211075D02*
X0175737Y0211075D01*
X0175552Y0212673D02*
X0174138Y0212673D01*
X0171333Y0212367D02*
X0043833Y0212367D01*
X0038833Y0207367D01*
X0038833Y0094867D01*
X0035552Y0094383D02*
X0034428Y0094383D01*
X0033533Y0095982D02*
X0035552Y0095982D01*
X0035805Y0097580D02*
X0033533Y0097580D01*
X0033533Y0099179D02*
X0036633Y0099179D01*
X0036633Y0100777D02*
X0033533Y0100777D01*
X0033533Y0102376D02*
X0036633Y0102376D01*
X0036633Y0103974D02*
X0033533Y0103974D01*
X0033533Y0105573D02*
X0036633Y0105573D01*
X0036633Y0107171D02*
X0033533Y0107171D01*
X0033533Y0108770D02*
X0036633Y0108770D01*
X0036633Y0110368D02*
X0033533Y0110368D01*
X0033533Y0111967D02*
X0036633Y0111967D01*
X0036633Y0113565D02*
X0033533Y0113565D01*
X0033533Y0115164D02*
X0036633Y0115164D01*
X0036633Y0116762D02*
X0033533Y0116762D01*
X0033533Y0118361D02*
X0036633Y0118361D01*
X0036633Y0119959D02*
X0033533Y0119959D01*
X0033533Y0121558D02*
X0036633Y0121558D01*
X0036633Y0123156D02*
X0033533Y0123156D01*
X0033533Y0124755D02*
X0036633Y0124755D01*
X0036633Y0126354D02*
X0033533Y0126354D01*
X0033533Y0127952D02*
X0036633Y0127952D01*
X0036633Y0129551D02*
X0033533Y0129551D01*
X0033533Y0131149D02*
X0036633Y0131149D01*
X0036633Y0132748D02*
X0033533Y0132748D01*
X0033533Y0134346D02*
X0036633Y0134346D01*
X0036633Y0135945D02*
X0033533Y0135945D01*
X0033533Y0137543D02*
X0036633Y0137543D01*
X0036633Y0139142D02*
X0033533Y0139142D01*
X0033533Y0140740D02*
X0036633Y0140740D01*
X0036633Y0142339D02*
X0033533Y0142339D01*
X0033533Y0143937D02*
X0036633Y0143937D01*
X0036633Y0145536D02*
X0033533Y0145536D01*
X0033533Y0147134D02*
X0036633Y0147134D01*
X0036633Y0148733D02*
X0033533Y0148733D01*
X0033533Y0150331D02*
X0036633Y0150331D01*
X0036633Y0151930D02*
X0033533Y0151930D01*
X0033533Y0153528D02*
X0036633Y0153528D01*
X0036633Y0155127D02*
X0033533Y0155127D01*
X0033533Y0156725D02*
X0036633Y0156725D01*
X0036633Y0158324D02*
X0033533Y0158324D01*
X0033533Y0159922D02*
X0036633Y0159922D01*
X0036633Y0161521D02*
X0033533Y0161521D01*
X0033533Y0163119D02*
X0036633Y0163119D01*
X0036633Y0164718D02*
X0033533Y0164718D01*
X0033533Y0166316D02*
X0036633Y0166316D01*
X0036633Y0167915D02*
X0033533Y0167915D01*
X0033533Y0169513D02*
X0036633Y0169513D01*
X0036633Y0171112D02*
X0033533Y0171112D01*
X0033533Y0172710D02*
X0036633Y0172710D01*
X0036633Y0174309D02*
X0033533Y0174309D01*
X0033533Y0175907D02*
X0036633Y0175907D01*
X0036633Y0177506D02*
X0033533Y0177506D01*
X0033533Y0179104D02*
X0036633Y0179104D01*
X0036633Y0180703D02*
X0033533Y0180703D01*
X0033533Y0182301D02*
X0036633Y0182301D01*
X0036633Y0183900D02*
X0033533Y0183900D01*
X0033533Y0185498D02*
X0036633Y0185498D01*
X0036633Y0187097D02*
X0033533Y0187097D01*
X0033533Y0188695D02*
X0036633Y0188695D01*
X0036633Y0190294D02*
X0033533Y0190294D01*
X0033533Y0191892D02*
X0036633Y0191892D01*
X0036633Y0193491D02*
X0033533Y0193491D01*
X0033533Y0195090D02*
X0036633Y0195090D01*
X0036633Y0196688D02*
X0033533Y0196688D01*
X0033533Y0198287D02*
X0036633Y0198287D01*
X0036633Y0199885D02*
X0033533Y0199885D01*
X0033533Y0201484D02*
X0036633Y0201484D01*
X0036633Y0203082D02*
X0033533Y0203082D01*
X0033533Y0204681D02*
X0036633Y0204681D01*
X0036633Y0206279D02*
X0033533Y0206279D01*
X0034956Y0207878D02*
X0036633Y0207878D01*
X0036554Y0209476D02*
X0037832Y0209476D01*
X0038153Y0211075D02*
X0039430Y0211075D01*
X0039751Y0212673D02*
X0041029Y0212673D01*
X0041350Y0214272D02*
X0042627Y0214272D01*
X0042948Y0215870D02*
X0174719Y0215870D01*
X0173120Y0217469D02*
X0044547Y0217469D01*
X0041521Y0220666D02*
X0008833Y0220666D01*
X0008833Y0222264D02*
X0185306Y0222264D01*
X0184733Y0220666D02*
X0176146Y0220666D01*
X0177744Y0219067D02*
X0184733Y0219067D01*
X0185306Y0217469D02*
X0181973Y0217469D01*
X0182114Y0215870D02*
X0186617Y0215870D01*
X0184539Y0214272D02*
X0182114Y0214272D01*
X0182114Y0212673D02*
X0183091Y0212673D01*
X0191128Y0214272D02*
X0198833Y0214272D01*
X0198833Y0215870D02*
X0193049Y0215870D01*
X0194360Y0217469D02*
X0198833Y0217469D01*
X0198833Y0219067D02*
X0194933Y0219067D01*
X0194933Y0220666D02*
X0198833Y0220666D01*
X0198833Y0222264D02*
X0194360Y0222264D01*
X0193050Y0223863D02*
X0198833Y0223863D01*
X0198833Y0225461D02*
X0008833Y0225461D01*
X0008833Y0223863D02*
X0186617Y0223863D01*
X0192576Y0212673D02*
X0198833Y0212673D01*
X0198833Y0211075D02*
X0193211Y0211075D01*
X0193333Y0209476D02*
X0198833Y0209476D01*
X0198833Y0207878D02*
X0192970Y0207878D01*
X0192024Y0206279D02*
X0198833Y0206279D01*
X0198833Y0204681D02*
X0191538Y0204681D01*
X0193830Y0203082D02*
X0198833Y0203082D01*
X0198833Y0201484D02*
X0194684Y0201484D01*
X0188039Y0195090D02*
X0136033Y0195090D01*
X0136033Y0196688D02*
X0185799Y0196688D01*
X0184245Y0193491D02*
X0136033Y0193491D01*
X0136033Y0191892D02*
X0183152Y0191892D01*
X0182733Y0190294D02*
X0136033Y0190294D01*
X0136033Y0188695D02*
X0182798Y0188695D01*
X0183460Y0187097D02*
X0136033Y0187097D01*
X0136033Y0185498D02*
X0185052Y0185498D01*
X0186654Y0183900D02*
X0136033Y0183900D01*
X0136033Y0182301D02*
X0185322Y0182301D01*
X0184733Y0180703D02*
X0136033Y0180703D01*
X0136033Y0179104D02*
X0184733Y0179104D01*
X0185291Y0177506D02*
X0136033Y0177506D01*
X0136033Y0175907D02*
X0186580Y0175907D01*
X0184590Y0174309D02*
X0136033Y0174309D01*
X0136033Y0172710D02*
X0170935Y0172710D01*
X0170552Y0171112D02*
X0136033Y0171112D01*
X0136033Y0169513D02*
X0170552Y0169513D01*
X0170552Y0167915D02*
X0136033Y0167915D01*
X0136033Y0166316D02*
X0171633Y0166316D01*
X0171633Y0164718D02*
X0136033Y0164718D01*
X0136033Y0163119D02*
X0171633Y0163119D01*
X0171633Y0161521D02*
X0136033Y0161521D01*
X0136033Y0159922D02*
X0171633Y0159922D01*
X0171633Y0158324D02*
X0136033Y0158324D01*
X0136033Y0156725D02*
X0137119Y0156725D01*
X0131633Y0156725D02*
X0041033Y0156725D01*
X0041033Y0155127D02*
X0131633Y0155127D01*
X0131633Y0153528D02*
X0041033Y0153528D01*
X0041033Y0151930D02*
X0131633Y0151930D01*
X0131633Y0150331D02*
X0041033Y0150331D01*
X0041033Y0148733D02*
X0131633Y0148733D01*
X0131633Y0147134D02*
X0041033Y0147134D01*
X0041033Y0145536D02*
X0131391Y0145536D01*
X0129793Y0143937D02*
X0041033Y0143937D01*
X0041033Y0142339D02*
X0128194Y0142339D01*
X0126596Y0140740D02*
X0041033Y0140740D01*
X0041033Y0139142D02*
X0124997Y0139142D01*
X0123398Y0137543D02*
X0041033Y0137543D01*
X0041033Y0135945D02*
X0121800Y0135945D01*
X0120201Y0134346D02*
X0041033Y0134346D01*
X0041033Y0132748D02*
X0115972Y0132748D01*
X0115552Y0131149D02*
X0041033Y0131149D01*
X0041033Y0129551D02*
X0115552Y0129551D01*
X0115552Y0127952D02*
X0041033Y0127952D01*
X0041033Y0126354D02*
X0052209Y0126354D01*
X0050610Y0124755D02*
X0041033Y0124755D01*
X0041033Y0123156D02*
X0049012Y0123156D01*
X0047413Y0121558D02*
X0041033Y0121558D01*
X0041033Y0119959D02*
X0046633Y0119959D01*
X0048833Y0119867D02*
X0048833Y0114867D01*
X0044098Y0116762D02*
X0041033Y0116762D01*
X0041033Y0115164D02*
X0043733Y0115164D01*
X0043852Y0113565D02*
X0041033Y0113565D01*
X0041033Y0111967D02*
X0044521Y0111967D01*
X0046366Y0110368D02*
X0041033Y0110368D01*
X0041033Y0108770D02*
X0045024Y0108770D01*
X0044061Y0107171D02*
X0041033Y0107171D01*
X0041033Y0105573D02*
X0043733Y0105573D01*
X0043890Y0103974D02*
X0041033Y0103974D01*
X0041033Y0102376D02*
X0044612Y0102376D01*
X0046586Y0100777D02*
X0041033Y0100777D01*
X0041033Y0099179D02*
X0057001Y0099179D01*
X0054644Y0100777D02*
X0051081Y0100777D01*
X0053055Y0102376D02*
X0053697Y0102376D01*
X0063022Y0100777D02*
X0066586Y0100777D01*
X0064612Y0102376D02*
X0063970Y0102376D01*
X0071081Y0100777D02*
X0075210Y0100777D01*
X0074138Y0102376D02*
X0073055Y0102376D01*
X0078896Y0095982D02*
X0042114Y0095982D01*
X0042114Y0094383D02*
X0078234Y0094383D01*
X0078233Y0092785D02*
X0042114Y0092785D01*
X0039223Y0089588D02*
X0079900Y0089588D01*
X0078716Y0091186D02*
X0037625Y0091186D01*
X0034599Y0087989D02*
X0008833Y0087989D01*
X0008833Y0086391D02*
X0036198Y0086391D01*
X0037796Y0084792D02*
X0008833Y0084792D01*
X0008833Y0083194D02*
X0039395Y0083194D01*
X0040822Y0087989D02*
X0088845Y0087989D01*
X0089900Y0089588D02*
X0086767Y0089588D01*
X0087950Y0091186D02*
X0088716Y0091186D01*
X0088896Y0095982D02*
X0087770Y0095982D01*
X0086332Y0097580D02*
X0090334Y0097580D01*
X0091081Y0100777D02*
X0095210Y0100777D01*
X0094138Y0102376D02*
X0093055Y0102376D01*
X0096332Y0097580D02*
X0121334Y0097580D01*
X0119896Y0095982D02*
X0097770Y0095982D01*
X0098432Y0094383D02*
X0119234Y0094383D01*
X0119233Y0092785D02*
X0098433Y0092785D01*
X0097950Y0091186D02*
X0119716Y0091186D01*
X0120900Y0089588D02*
X0096767Y0089588D01*
X0095067Y0087989D02*
X0169317Y0087989D01*
X0168733Y0086391D02*
X0093469Y0086391D01*
X0091870Y0084792D02*
X0168733Y0084792D01*
X0170642Y0089588D02*
X0137767Y0089588D01*
X0138950Y0091186D02*
X0183640Y0091186D01*
X0182041Y0092785D02*
X0139433Y0092785D01*
X0139432Y0094383D02*
X0181533Y0094383D01*
X0182673Y0097580D02*
X0167158Y0097580D01*
X0168757Y0099179D02*
X0172874Y0099179D01*
X0171276Y0100777D02*
X0169033Y0100777D01*
X0169033Y0102376D02*
X0170633Y0102376D01*
X0170633Y0103974D02*
X0169033Y0103974D01*
X0169033Y0105573D02*
X0170893Y0105573D01*
X0172491Y0107171D02*
X0169033Y0107171D01*
X0169033Y0108770D02*
X0172718Y0108770D01*
X0171119Y0110368D02*
X0169033Y0110368D01*
X0169033Y0111967D02*
X0170233Y0111967D01*
X0170233Y0113565D02*
X0169033Y0113565D01*
X0169033Y0115164D02*
X0170233Y0115164D01*
X0169033Y0116762D02*
X0171517Y0116762D01*
X0170439Y0118361D02*
X0173115Y0118361D01*
X0175333Y0118361D02*
X0175333Y0118361D01*
X0175333Y0116762D02*
X0175333Y0116762D01*
X0175333Y0115164D02*
X0175333Y0115164D01*
X0175333Y0113565D02*
X0175333Y0113565D01*
X0175333Y0111967D02*
X0175333Y0111967D01*
X0175333Y0110368D02*
X0175333Y0110368D01*
X0175333Y0108770D02*
X0175333Y0108770D01*
X0179548Y0110368D02*
X0188119Y0110368D01*
X0187233Y0111967D02*
X0180433Y0111967D01*
X0180433Y0113565D02*
X0187233Y0113565D01*
X0187233Y0115164D02*
X0180433Y0115164D01*
X0179150Y0116762D02*
X0188517Y0116762D01*
X0190115Y0118361D02*
X0177551Y0118361D01*
X0173833Y0124867D02*
X0166833Y0117867D01*
X0166833Y0100367D01*
X0164833Y0098367D01*
X0149833Y0098367D01*
X0148333Y0099867D01*
X0148333Y0104867D01*
X0148833Y0105367D01*
X0152643Y0108770D02*
X0156137Y0108770D01*
X0156366Y0110368D02*
X0151301Y0110368D01*
X0153146Y0111967D02*
X0154521Y0111967D01*
X0153852Y0113565D02*
X0153815Y0113565D01*
X0153606Y0107171D02*
X0154475Y0107171D01*
X0161530Y0108770D02*
X0164633Y0108770D01*
X0164633Y0110368D02*
X0161301Y0110368D01*
X0163146Y0111967D02*
X0164633Y0111967D01*
X0164633Y0113565D02*
X0163815Y0113565D01*
X0163933Y0115164D02*
X0164633Y0115164D01*
X0164633Y0116762D02*
X0163568Y0116762D01*
X0162552Y0118361D02*
X0164633Y0118361D01*
X0165815Y0119959D02*
X0159865Y0119959D01*
X0160236Y0121558D02*
X0167413Y0121558D01*
X0169012Y0123156D02*
X0160633Y0123156D01*
X0160633Y0124755D02*
X0170610Y0124755D01*
X0171633Y0126354D02*
X0167694Y0126354D01*
X0169293Y0127952D02*
X0171633Y0127952D01*
X0171633Y0129551D02*
X0169633Y0129551D01*
X0169633Y0131149D02*
X0171633Y0131149D01*
X0171633Y0132748D02*
X0168326Y0132748D01*
X0171633Y0134346D02*
X0126424Y0134346D01*
X0128023Y0135945D02*
X0171633Y0135945D01*
X0171633Y0137543D02*
X0129621Y0137543D01*
X0131220Y0139142D02*
X0171633Y0139142D01*
X0171633Y0140740D02*
X0132818Y0140740D01*
X0134417Y0142339D02*
X0171633Y0142339D01*
X0171633Y0143937D02*
X0136015Y0143937D01*
X0136033Y0145536D02*
X0171633Y0145536D01*
X0171633Y0147134D02*
X0141936Y0147134D01*
X0139195Y0147134D02*
X0136033Y0147134D01*
X0136033Y0148733D02*
X0136591Y0148733D01*
X0131633Y0158324D02*
X0041033Y0158324D01*
X0041033Y0159922D02*
X0131633Y0159922D01*
X0131633Y0161521D02*
X0041033Y0161521D01*
X0041033Y0163119D02*
X0131633Y0163119D01*
X0131633Y0164718D02*
X0041033Y0164718D01*
X0041033Y0166316D02*
X0131633Y0166316D01*
X0131633Y0167915D02*
X0041033Y0167915D01*
X0041033Y0169513D02*
X0131633Y0169513D01*
X0131633Y0171112D02*
X0041033Y0171112D01*
X0041033Y0172710D02*
X0131633Y0172710D01*
X0131633Y0174309D02*
X0041033Y0174309D01*
X0041033Y0175907D02*
X0131633Y0175907D01*
X0131633Y0177506D02*
X0041033Y0177506D01*
X0041033Y0179104D02*
X0131633Y0179104D01*
X0131633Y0180703D02*
X0041033Y0180703D01*
X0041033Y0182301D02*
X0131633Y0182301D01*
X0131633Y0183900D02*
X0041033Y0183900D01*
X0041033Y0185498D02*
X0131633Y0185498D01*
X0131633Y0187097D02*
X0041033Y0187097D01*
X0041033Y0188695D02*
X0131633Y0188695D01*
X0131633Y0190294D02*
X0041033Y0190294D01*
X0041033Y0191892D02*
X0131633Y0191892D01*
X0131633Y0193491D02*
X0041033Y0193491D01*
X0041033Y0195090D02*
X0131633Y0195090D01*
X0131633Y0196688D02*
X0041033Y0196688D01*
X0041033Y0198287D02*
X0131633Y0198287D01*
X0131633Y0199885D02*
X0041033Y0199885D01*
X0041033Y0201484D02*
X0132339Y0201484D01*
X0133937Y0203082D02*
X0041033Y0203082D01*
X0041033Y0204681D02*
X0135552Y0204681D01*
X0139677Y0231071D02*
X0141454Y0231071D01*
X0143095Y0231750D01*
X0144351Y0233007D01*
X0145031Y0234648D01*
X0145031Y0236424D01*
X0144351Y0238065D01*
X0143095Y0239321D01*
X0141454Y0240001D01*
X0139677Y0240001D01*
X0138036Y0239321D01*
X0136780Y0238065D01*
X0136100Y0236424D01*
X0136100Y0234648D01*
X0136780Y0233007D01*
X0138036Y0231750D01*
X0139677Y0231071D01*
X0137931Y0231855D02*
X0008833Y0231855D01*
X0008833Y0230257D02*
X0198833Y0230257D01*
X0198833Y0231855D02*
X0143200Y0231855D01*
X0144536Y0233454D02*
X0198833Y0233454D01*
X0198833Y0235052D02*
X0145031Y0235052D01*
X0144937Y0236651D02*
X0198833Y0236651D01*
X0198833Y0238249D02*
X0144167Y0238249D01*
X0141824Y0239848D02*
X0198833Y0239848D01*
X0198833Y0241446D02*
X0008833Y0241446D01*
X0008833Y0239848D02*
X0139307Y0239848D01*
X0136964Y0238249D02*
X0008833Y0238249D01*
X0008833Y0236651D02*
X0136194Y0236651D01*
X0136100Y0235052D02*
X0008833Y0235052D01*
X0008833Y0233454D02*
X0136595Y0233454D01*
X0171113Y0209476D02*
X0044054Y0209476D01*
X0042456Y0207878D02*
X0171633Y0207878D01*
X0171633Y0206279D02*
X0041033Y0206279D01*
X0035127Y0214272D02*
X0008833Y0214272D01*
X0008833Y0215870D02*
X0036726Y0215870D01*
X0038324Y0217469D02*
X0008833Y0217469D01*
X0008833Y0219067D02*
X0039923Y0219067D01*
X0033529Y0212673D02*
X0008833Y0212673D01*
X0008833Y0211075D02*
X0031930Y0211075D01*
X0030332Y0209476D02*
X0008833Y0209476D01*
X0008833Y0207878D02*
X0029133Y0207878D01*
X0029133Y0206279D02*
X0008833Y0206279D01*
X0008833Y0204681D02*
X0029133Y0204681D01*
X0029133Y0203082D02*
X0008833Y0203082D01*
X0008833Y0201484D02*
X0029133Y0201484D01*
X0029133Y0199885D02*
X0008833Y0199885D01*
X0008833Y0198287D02*
X0029133Y0198287D01*
X0029133Y0196688D02*
X0008833Y0196688D01*
X0008833Y0195090D02*
X0029133Y0195090D01*
X0029133Y0193491D02*
X0008833Y0193491D01*
X0008833Y0191892D02*
X0029133Y0191892D01*
X0029133Y0190294D02*
X0008833Y0190294D01*
X0008833Y0188695D02*
X0029133Y0188695D01*
X0029133Y0187097D02*
X0008833Y0187097D01*
X0008833Y0185498D02*
X0029133Y0185498D01*
X0029133Y0183900D02*
X0008833Y0183900D01*
X0008833Y0182301D02*
X0029133Y0182301D01*
X0029133Y0180703D02*
X0008833Y0180703D01*
X0008833Y0179104D02*
X0029133Y0179104D01*
X0029133Y0177506D02*
X0008833Y0177506D01*
X0008833Y0175907D02*
X0029133Y0175907D01*
X0029133Y0174309D02*
X0008833Y0174309D01*
X0008833Y0172710D02*
X0029133Y0172710D01*
X0029133Y0171112D02*
X0008833Y0171112D01*
X0008833Y0169513D02*
X0029133Y0169513D01*
X0029133Y0167915D02*
X0008833Y0167915D01*
X0008833Y0166316D02*
X0029133Y0166316D01*
X0029133Y0164718D02*
X0008833Y0164718D01*
X0008833Y0163119D02*
X0029133Y0163119D01*
X0029133Y0161521D02*
X0008833Y0161521D01*
X0008833Y0159922D02*
X0029133Y0159922D01*
X0029133Y0158324D02*
X0008833Y0158324D01*
X0008833Y0156725D02*
X0029133Y0156725D01*
X0029133Y0155127D02*
X0008833Y0155127D01*
X0008833Y0153528D02*
X0029133Y0153528D01*
X0029133Y0151930D02*
X0008833Y0151930D01*
X0008833Y0150331D02*
X0029133Y0150331D01*
X0029133Y0148733D02*
X0008833Y0148733D01*
X0008833Y0147134D02*
X0029133Y0147134D01*
X0029133Y0145536D02*
X0008833Y0145536D01*
X0008833Y0143937D02*
X0029133Y0143937D01*
X0029133Y0142339D02*
X0008833Y0142339D01*
X0008833Y0140740D02*
X0029133Y0140740D01*
X0029133Y0139142D02*
X0008833Y0139142D01*
X0008833Y0137543D02*
X0029133Y0137543D01*
X0029133Y0135945D02*
X0008833Y0135945D01*
X0008833Y0134346D02*
X0029133Y0134346D01*
X0029133Y0132748D02*
X0008833Y0132748D01*
X0008833Y0131149D02*
X0029133Y0131149D01*
X0029133Y0129551D02*
X0008833Y0129551D01*
X0008833Y0127952D02*
X0029133Y0127952D01*
X0029133Y0126354D02*
X0008833Y0126354D01*
X0008833Y0124755D02*
X0029133Y0124755D01*
X0029133Y0123156D02*
X0008833Y0123156D01*
X0008833Y0121558D02*
X0014812Y0121558D01*
X0015444Y0122190D02*
X0014010Y0120756D01*
X0013233Y0118881D01*
X0013233Y0116852D01*
X0014010Y0114978D01*
X0015444Y0113543D01*
X0017077Y0112867D01*
X0015444Y0112190D01*
X0014010Y0110756D01*
X0013233Y0108881D01*
X0013233Y0106852D01*
X0014010Y0104978D01*
X0015444Y0103543D01*
X0017077Y0102867D01*
X0015444Y0102190D01*
X0014010Y0100756D01*
X0013233Y0098881D01*
X0013233Y0096852D01*
X0014010Y0094978D01*
X0015444Y0093543D01*
X0017319Y0092767D01*
X0019348Y0092767D01*
X0021222Y0093543D01*
X0022657Y0094978D01*
X0023433Y0096852D01*
X0023433Y0098881D01*
X0022657Y0100756D01*
X0021222Y0102190D01*
X0019589Y0102867D01*
X0021222Y0103543D01*
X0022657Y0104978D01*
X0023433Y0106852D01*
X0023433Y0108881D01*
X0022657Y0110756D01*
X0021222Y0112190D01*
X0019589Y0112867D01*
X0021222Y0113543D01*
X0022657Y0114978D01*
X0023433Y0116852D01*
X0023433Y0118881D01*
X0022657Y0120756D01*
X0021222Y0122190D01*
X0019348Y0122967D01*
X0017319Y0122967D01*
X0015444Y0122190D01*
X0013680Y0119959D02*
X0008833Y0119959D01*
X0008833Y0118361D02*
X0013233Y0118361D01*
X0013270Y0116762D02*
X0008833Y0116762D01*
X0008833Y0115164D02*
X0013933Y0115164D01*
X0015422Y0113565D02*
X0008833Y0113565D01*
X0008833Y0111967D02*
X0015221Y0111967D01*
X0013849Y0110368D02*
X0008833Y0110368D01*
X0008833Y0108770D02*
X0013233Y0108770D01*
X0013233Y0107171D02*
X0008833Y0107171D01*
X0008833Y0105573D02*
X0013763Y0105573D01*
X0015013Y0103974D02*
X0008833Y0103974D01*
X0008833Y0102376D02*
X0015893Y0102376D01*
X0014032Y0100777D02*
X0008833Y0100777D01*
X0008833Y0099179D02*
X0013357Y0099179D01*
X0013233Y0097580D02*
X0008833Y0097580D01*
X0008833Y0095982D02*
X0013594Y0095982D01*
X0014604Y0094383D02*
X0008833Y0094383D01*
X0008833Y0092785D02*
X0017275Y0092785D01*
X0019392Y0092785D02*
X0029804Y0092785D01*
X0030422Y0092167D02*
X0030422Y0092167D01*
X0031402Y0091186D02*
X0008833Y0091186D01*
X0008833Y0089588D02*
X0033001Y0089588D01*
X0029133Y0094383D02*
X0022062Y0094383D01*
X0023073Y0095982D02*
X0029133Y0095982D01*
X0029133Y0097580D02*
X0023433Y0097580D01*
X0023310Y0099179D02*
X0029133Y0099179D01*
X0029133Y0100777D02*
X0022635Y0100777D01*
X0020774Y0102376D02*
X0029133Y0102376D01*
X0029133Y0103974D02*
X0021654Y0103974D01*
X0022903Y0105573D02*
X0029133Y0105573D01*
X0029133Y0107171D02*
X0023433Y0107171D01*
X0023433Y0108770D02*
X0029133Y0108770D01*
X0029133Y0110368D02*
X0022817Y0110368D01*
X0021446Y0111967D02*
X0029133Y0111967D01*
X0029133Y0113565D02*
X0021245Y0113565D01*
X0022734Y0115164D02*
X0029133Y0115164D01*
X0029133Y0116762D02*
X0023396Y0116762D01*
X0023433Y0118361D02*
X0029133Y0118361D01*
X0029133Y0119959D02*
X0022987Y0119959D01*
X0021854Y0121558D02*
X0029133Y0121558D01*
X0041033Y0118361D02*
X0045115Y0118361D01*
X0041862Y0097580D02*
X0080334Y0097580D01*
X0082456Y0100777D02*
X0086586Y0100777D01*
X0084612Y0102376D02*
X0083529Y0102376D01*
X0088833Y0114867D02*
X0088833Y0120167D01*
X0090033Y0121367D01*
X0156933Y0121367D01*
X0158433Y0122867D01*
X0158433Y0129767D01*
X0158333Y0129867D01*
X0155840Y0132748D02*
X0130826Y0132748D01*
X0132133Y0131149D02*
X0154533Y0131149D01*
X0154533Y0129551D02*
X0132133Y0129551D01*
X0131793Y0127952D02*
X0154874Y0127952D01*
X0156233Y0126354D02*
X0130194Y0126354D01*
X0126333Y0124755D02*
X0156233Y0124755D01*
X0160633Y0126354D02*
X0163972Y0126354D01*
X0162374Y0127952D02*
X0161793Y0127952D01*
X0160826Y0132748D02*
X0163340Y0132748D01*
X0173833Y0124867D02*
X0173833Y0169867D01*
X0177114Y0169513D02*
X0182333Y0169513D01*
X0182462Y0171112D02*
X0177114Y0171112D01*
X0176732Y0172710D02*
X0183109Y0172710D01*
X0182684Y0167915D02*
X0177114Y0167915D01*
X0176033Y0166316D02*
X0183614Y0166316D01*
X0185882Y0164718D02*
X0176033Y0164718D01*
X0171633Y0156725D02*
X0144012Y0156725D01*
X0145362Y0155127D02*
X0171633Y0155127D01*
X0171633Y0153528D02*
X0146015Y0153528D01*
X0146015Y0151930D02*
X0171633Y0151930D01*
X0171633Y0150331D02*
X0145580Y0150331D01*
X0144540Y0148733D02*
X0171633Y0148733D01*
X0187633Y0164718D02*
X0188033Y0164718D01*
X0188033Y0166316D02*
X0187633Y0166316D01*
X0187633Y0167915D02*
X0188033Y0167915D01*
X0188033Y0169513D02*
X0187633Y0169513D01*
X0196150Y0116762D02*
X0198833Y0116762D01*
X0198833Y0115164D02*
X0197433Y0115164D01*
X0197433Y0113565D02*
X0198833Y0113565D01*
X0198833Y0111967D02*
X0197433Y0111967D01*
X0196548Y0110368D02*
X0198833Y0110368D01*
X0198833Y0108770D02*
X0194949Y0108770D01*
X0195175Y0107171D02*
X0198833Y0107171D01*
X0198833Y0105573D02*
X0196774Y0105573D01*
X0197033Y0103974D02*
X0198833Y0103974D01*
X0198833Y0102376D02*
X0197033Y0102376D01*
X0196391Y0100777D02*
X0198833Y0100777D01*
X0198833Y0099179D02*
X0194792Y0099179D01*
X0195707Y0098667D02*
X0192559Y0098667D01*
X0190333Y0096441D01*
X0190333Y0093293D01*
X0192559Y0091067D01*
X0195707Y0091067D01*
X0197933Y0093293D01*
X0197933Y0096441D01*
X0195707Y0098667D01*
X0196794Y0097580D02*
X0198833Y0097580D01*
X0198833Y0095982D02*
X0197933Y0095982D01*
X0197933Y0094383D02*
X0198833Y0094383D01*
X0198833Y0092785D02*
X0197425Y0092785D01*
X0198833Y0091186D02*
X0195827Y0091186D01*
X0198833Y0089588D02*
X0177025Y0089588D01*
X0178350Y0087989D02*
X0198833Y0087989D01*
X0198833Y0086391D02*
X0178933Y0086391D01*
X0178933Y0084792D02*
X0198833Y0084792D01*
X0198833Y0083194D02*
X0178371Y0083194D01*
X0177074Y0081595D02*
X0198833Y0081595D01*
X0198833Y0079997D02*
X0024183Y0079997D01*
X0024733Y0078398D02*
X0170852Y0078398D01*
X0170944Y0078490D02*
X0169510Y0077056D01*
X0168733Y0075181D01*
X0168733Y0073152D01*
X0169510Y0071278D01*
X0170944Y0069843D01*
X0172819Y0069067D01*
X0174848Y0069067D01*
X0176722Y0069843D01*
X0178157Y0071278D01*
X0178933Y0073152D01*
X0178933Y0075181D01*
X0178157Y0077056D01*
X0176722Y0078490D01*
X0174848Y0079267D01*
X0172819Y0079267D01*
X0170944Y0078490D01*
X0169404Y0076800D02*
X0024733Y0076800D01*
X0024733Y0075201D02*
X0168742Y0075201D01*
X0168733Y0073603D02*
X0024733Y0073603D01*
X0024451Y0072004D02*
X0169209Y0072004D01*
X0170382Y0070406D02*
X0024268Y0070406D01*
X0024439Y0070307D02*
X0024028Y0070544D01*
X0023570Y0070667D01*
X0020533Y0070667D01*
X0020533Y0066067D01*
X0020133Y0066067D01*
X0020133Y0065667D01*
X0020533Y0065667D01*
X0020533Y0061067D01*
X0023570Y0061067D01*
X0024028Y0061189D01*
X0024439Y0061426D01*
X0024774Y0061761D01*
X0025011Y0062172D01*
X0025133Y0062630D01*
X0025133Y0065667D01*
X0020533Y0065667D01*
X0020533Y0066067D01*
X0025133Y0066067D01*
X0025133Y0069104D01*
X0025011Y0069561D01*
X0024774Y0069972D01*
X0024439Y0070307D01*
X0025133Y0068807D02*
X0198833Y0068807D01*
X0198833Y0067209D02*
X0197165Y0067209D01*
X0197933Y0065610D02*
X0198833Y0065610D01*
X0198833Y0064012D02*
X0197933Y0064012D01*
X0197054Y0062413D02*
X0198833Y0062413D01*
X0198833Y0060815D02*
X0196033Y0060815D01*
X0196033Y0059216D02*
X0198833Y0059216D01*
X0198833Y0057618D02*
X0196033Y0057618D01*
X0196033Y0056019D02*
X0198833Y0056019D01*
X0198833Y0054421D02*
X0196033Y0054421D01*
X0196033Y0052822D02*
X0198833Y0052822D01*
X0198833Y0051223D02*
X0196033Y0051223D01*
X0196033Y0049625D02*
X0198833Y0049625D01*
X0198833Y0048026D02*
X0195104Y0048026D01*
X0193833Y0049867D02*
X0193833Y0064567D01*
X0194133Y0064867D01*
X0191213Y0062413D02*
X0188254Y0062413D01*
X0187533Y0060815D02*
X0191633Y0060815D01*
X0191633Y0059216D02*
X0187533Y0059216D01*
X0187533Y0057618D02*
X0191633Y0057618D01*
X0191633Y0056019D02*
X0187533Y0056019D01*
X0186998Y0054421D02*
X0191633Y0054421D01*
X0191633Y0052822D02*
X0185400Y0052822D01*
X0183801Y0051223D02*
X0191633Y0051223D01*
X0190480Y0049625D02*
X0151787Y0049625D01*
X0153252Y0048026D02*
X0155281Y0048026D01*
X0154167Y0046428D02*
X0153914Y0046428D01*
X0158833Y0044367D02*
X0188333Y0044367D01*
X0193833Y0049867D01*
X0193506Y0046428D02*
X0198833Y0046428D01*
X0198833Y0044829D02*
X0191907Y0044829D01*
X0190309Y0043231D02*
X0198833Y0043231D01*
X0198833Y0041632D02*
X0163221Y0041632D01*
X0161700Y0040034D02*
X0198833Y0040034D01*
X0198833Y0038435D02*
X0162477Y0038435D01*
X0163537Y0036837D02*
X0198833Y0036837D01*
X0198833Y0035238D02*
X0163933Y0035238D01*
X0163845Y0033640D02*
X0198833Y0033640D01*
X0198833Y0032041D02*
X0163183Y0032041D01*
X0161480Y0030443D02*
X0198833Y0030443D01*
X0198833Y0028844D02*
X0112768Y0028844D01*
X0111480Y0030443D02*
X0116186Y0030443D01*
X0114483Y0032041D02*
X0113183Y0032041D01*
X0114068Y0027246D02*
X0198833Y0027246D01*
X0198833Y0025647D02*
X0114633Y0025647D01*
X0114633Y0024049D02*
X0198833Y0024049D01*
X0198833Y0019253D02*
X0160363Y0019253D01*
X0162758Y0017655D02*
X0198833Y0017655D01*
X0198833Y0016056D02*
X0163654Y0016056D01*
X0163933Y0014458D02*
X0198833Y0014458D01*
X0198833Y0012859D02*
X0163729Y0012859D01*
X0162940Y0011261D02*
X0198833Y0011261D01*
X0188882Y0048026D02*
X0162386Y0048026D01*
X0154483Y0032041D02*
X0153183Y0032041D01*
X0151480Y0030443D02*
X0156186Y0030443D01*
X0157304Y0019253D02*
X0152725Y0019253D01*
X0153840Y0017655D02*
X0154909Y0017655D01*
X0153844Y0013086D02*
X0154510Y0011478D01*
X0155944Y0010043D01*
X0156370Y0009867D01*
X0141296Y0009867D01*
X0141722Y0010043D01*
X0143157Y0011478D01*
X0143823Y0013086D01*
X0144129Y0012484D01*
X0144638Y0011784D01*
X0145250Y0011171D01*
X0145951Y0010663D01*
X0146722Y0010270D01*
X0147545Y0010002D01*
X0148400Y0009867D01*
X0148633Y0009867D01*
X0148633Y0015167D01*
X0149033Y0015167D01*
X0149033Y0009867D01*
X0149266Y0009867D01*
X0150121Y0010002D01*
X0150945Y0010270D01*
X0151716Y0010663D01*
X0152416Y0011171D01*
X0153028Y0011784D01*
X0153537Y0012484D01*
X0153844Y0013086D01*
X0153938Y0012859D02*
X0153728Y0012859D01*
X0154727Y0011261D02*
X0152506Y0011261D01*
X0149033Y0011261D02*
X0148633Y0011261D01*
X0148633Y0012859D02*
X0149033Y0012859D01*
X0149033Y0014458D02*
X0148633Y0014458D01*
X0148633Y0016056D02*
X0149033Y0016056D01*
X0149033Y0017655D02*
X0148633Y0017655D01*
X0148633Y0019253D02*
X0149033Y0019253D01*
X0143938Y0012859D02*
X0143729Y0012859D01*
X0142940Y0011261D02*
X0145161Y0011261D01*
X0126186Y0030443D02*
X0121480Y0030443D01*
X0123183Y0032041D02*
X0124483Y0032041D01*
X0119306Y0022450D02*
X0114053Y0022450D01*
X0112731Y0020852D02*
X0117707Y0020852D01*
X0116109Y0019253D02*
X0100333Y0019253D01*
X0101331Y0020852D02*
X0106336Y0020852D01*
X0105014Y0022450D02*
X0102653Y0022450D01*
X0103233Y0024049D02*
X0104433Y0024049D01*
X0104433Y0025647D02*
X0103233Y0025647D01*
X0102668Y0027246D02*
X0104999Y0027246D01*
X0106299Y0028844D02*
X0101368Y0028844D01*
X0101480Y0030443D02*
X0106186Y0030443D01*
X0104483Y0032041D02*
X0103183Y0032041D01*
X0096186Y0030443D02*
X0091480Y0030443D01*
X0093183Y0032041D02*
X0094483Y0032041D01*
X0086186Y0030443D02*
X0082102Y0030443D01*
X0083567Y0032041D02*
X0084483Y0032041D01*
X0084415Y0048026D02*
X0082952Y0048026D01*
X0071958Y0057618D02*
X0095708Y0057618D01*
X0095033Y0059216D02*
X0072633Y0059216D01*
X0072633Y0060815D02*
X0095033Y0060815D01*
X0096006Y0062413D02*
X0071661Y0062413D01*
X0066006Y0062413D02*
X0025075Y0062413D01*
X0025133Y0064012D02*
X0181533Y0064012D01*
X0181533Y0065610D02*
X0025133Y0065610D01*
X0025133Y0067209D02*
X0182301Y0067209D01*
X0177285Y0070406D02*
X0198833Y0070406D01*
X0198833Y0072004D02*
X0178458Y0072004D01*
X0178933Y0073603D02*
X0198833Y0073603D01*
X0198833Y0075201D02*
X0178925Y0075201D01*
X0178263Y0076800D02*
X0198833Y0076800D01*
X0198833Y0078398D02*
X0176814Y0078398D01*
X0188365Y0067209D02*
X0191101Y0067209D01*
X0190333Y0065610D02*
X0189133Y0065610D01*
X0189133Y0064012D02*
X0190333Y0064012D01*
X0192440Y0091186D02*
X0187027Y0091186D01*
X0188625Y0092785D02*
X0190841Y0092785D01*
X0190333Y0094383D02*
X0189133Y0094383D01*
X0189133Y0095982D02*
X0190333Y0095982D01*
X0191473Y0097580D02*
X0187994Y0097580D01*
X0164633Y0102376D02*
X0163529Y0102376D01*
X0163933Y0103974D02*
X0164633Y0103974D01*
X0164633Y0105573D02*
X0163854Y0105573D01*
X0163192Y0107171D02*
X0164633Y0107171D01*
X0164133Y0100777D02*
X0162456Y0100777D01*
X0146133Y0100777D02*
X0142456Y0100777D01*
X0143529Y0102376D02*
X0144612Y0102376D01*
X0135210Y0100777D02*
X0131081Y0100777D01*
X0133055Y0102376D02*
X0134138Y0102376D01*
X0131334Y0097580D02*
X0127332Y0097580D01*
X0128770Y0095982D02*
X0129896Y0095982D01*
X0129716Y0091186D02*
X0128950Y0091186D01*
X0127767Y0089588D02*
X0130900Y0089588D01*
X0126586Y0100777D02*
X0122456Y0100777D01*
X0123529Y0102376D02*
X0124612Y0102376D01*
X0115210Y0100777D02*
X0111081Y0100777D01*
X0113055Y0102376D02*
X0114138Y0102376D01*
X0106586Y0100777D02*
X0102456Y0100777D01*
X0103529Y0102376D02*
X0104612Y0102376D01*
X0093333Y0093367D02*
X0093333Y0089367D01*
X0088833Y0084867D01*
X0084098Y0116762D02*
X0083568Y0116762D01*
X0082552Y0118361D02*
X0085115Y0118361D01*
X0075115Y0118361D02*
X0072552Y0118361D01*
X0073568Y0116762D02*
X0074098Y0116762D01*
X0065115Y0118361D02*
X0063093Y0118361D01*
X0064000Y0116762D02*
X0064098Y0116762D01*
X0020533Y0070406D02*
X0020133Y0070406D01*
X0020133Y0068807D02*
X0020533Y0068807D01*
X0020533Y0067209D02*
X0020133Y0067209D01*
X0020133Y0065610D02*
X0020533Y0065610D01*
X0020533Y0064012D02*
X0020133Y0064012D01*
X0020133Y0062413D02*
X0020533Y0062413D01*
X0008833Y0049625D02*
X0045879Y0049625D01*
X0044415Y0048026D02*
X0008833Y0048026D01*
X0008833Y0046428D02*
X0043753Y0046428D01*
X0043733Y0044829D02*
X0008833Y0044829D01*
X0008833Y0043231D02*
X0044198Y0043231D01*
X0045355Y0041632D02*
X0008833Y0041632D01*
X0051480Y0030443D02*
X0056186Y0030443D01*
X0054483Y0032041D02*
X0053183Y0032041D01*
X0061480Y0030443D02*
X0066186Y0030443D01*
X0064483Y0032041D02*
X0063183Y0032041D01*
X0068833Y0019867D02*
X0068833Y0015367D01*
X0101656Y0017655D02*
X0114510Y0017655D01*
X0123500Y0046428D02*
X0123753Y0046428D01*
X0124415Y0048026D02*
X0122386Y0048026D01*
X0104415Y0048026D02*
X0102386Y0048026D01*
X0103500Y0046428D02*
X0103753Y0046428D01*
X0008833Y0227060D02*
X0198833Y0227060D01*
X0198833Y0228658D02*
X0008833Y0228658D01*
X0008833Y0243045D02*
X0198833Y0243045D01*
X0198833Y0244643D02*
X0008833Y0244643D01*
X0008833Y0246242D02*
X0198833Y0246242D01*
X0198833Y0247840D02*
X0008833Y0247840D01*
X0008833Y0249439D02*
X0198833Y0249439D01*
M02*
