G75*
%MOIN*%
%OFA0B0*%
%FSLAX25Y25*%
%IPPOS*%
%LPD*%
%AMOC8*
5,1,8,0,0,1.08239X$1,22.5*
%
%ADD10C,0.08000*%
%ADD11R,0.06600X0.06600*%
%ADD12OC8,0.07200*%
%ADD13R,0.08000X0.08000*%
%ADD14OC8,0.05400*%
%ADD15C,0.04931*%
%ADD16C,0.06899*%
%ADD17R,0.04362X0.04362*%
D10*
X0048833Y0015367D03*
X0048833Y0034867D03*
X0048833Y0045367D03*
X0058833Y0044367D03*
X0058833Y0034867D03*
X0068833Y0034867D03*
X0068833Y0045367D03*
X0078833Y0044367D03*
X0078833Y0034867D03*
X0068833Y0015367D03*
X0058833Y0014367D03*
X0088833Y0034867D03*
X0088833Y0045367D03*
X0098833Y0044367D03*
X0098833Y0034867D03*
X0098133Y0024867D03*
X0109533Y0024867D03*
X0108833Y0034867D03*
X0108833Y0045367D03*
X0118833Y0044367D03*
X0118833Y0034867D03*
X0128833Y0034867D03*
X0128833Y0045367D03*
X0138833Y0044367D03*
X0138833Y0034867D03*
X0148833Y0034867D03*
X0148833Y0045367D03*
X0158833Y0044367D03*
X0158833Y0034867D03*
X0148833Y0015367D03*
X0138833Y0014367D03*
X0158833Y0014367D03*
X0173833Y0074167D03*
X0173833Y0085567D03*
X0158833Y0104367D03*
X0158833Y0114867D03*
X0148833Y0114867D03*
X0148833Y0105367D03*
X0138833Y0104367D03*
X0138833Y0114867D03*
X0128833Y0114867D03*
X0128833Y0105367D03*
X0124333Y0093367D03*
X0118833Y0104367D03*
X0118833Y0114867D03*
X0108833Y0114867D03*
X0108833Y0105367D03*
X0098833Y0104367D03*
X0098833Y0114867D03*
X0088833Y0114867D03*
X0088833Y0105367D03*
X0093333Y0093367D03*
X0083333Y0093367D03*
X0078833Y0104367D03*
X0078833Y0114867D03*
X0068833Y0114867D03*
X0068833Y0105367D03*
X0058833Y0104367D03*
X0058833Y0114867D03*
X0048833Y0114867D03*
X0048833Y0105367D03*
X0018333Y0107867D03*
X0018333Y0117867D03*
X0018333Y0097867D03*
X0134333Y0093367D03*
X0187833Y0169867D03*
X0189833Y0179867D03*
X0187833Y0189867D03*
X0189833Y0199867D03*
X0187833Y0209867D03*
X0189833Y0219867D03*
D11*
X0020333Y0065867D03*
X0020333Y0075867D03*
D12*
X0175333Y0103367D03*
X0175333Y0113367D03*
X0192333Y0113367D03*
X0192333Y0103367D03*
D13*
X0128833Y0015367D03*
X0078833Y0014367D03*
D14*
X0068833Y0059867D03*
X0098833Y0059867D03*
X0108833Y0059867D03*
X0138833Y0059867D03*
X0128333Y0129867D03*
X0158333Y0129867D03*
X0165833Y0129867D03*
X0185333Y0094867D03*
X0194133Y0094867D03*
X0194133Y0064867D03*
X0185333Y0064867D03*
X0195833Y0129867D03*
D15*
X0140566Y0235536D03*
D16*
X0140566Y0152465D03*
D17*
X0158833Y0143367D03*
X0173833Y0169867D03*
X0178833Y0214867D03*
X0138833Y0202367D03*
X0118833Y0129867D03*
X0173833Y0059867D03*
X0063833Y0234867D03*
X0038833Y0094867D03*
M02*
