%
M48
M72
T01C0.0236
T02C0.0320
T03C0.0400
T04C0.0433
T05C0.0630
%
T01
X3883Y9487
X11883Y12987
X15883Y14337
X17383Y16987
X17883Y21487
X13883Y20237
X6383Y23487
X17383Y5987
T02
X18533Y6487
X19413Y6487
X19413Y9487
X19233Y10337
X19233Y11337
X19583Y12987
X17533Y11337
X17533Y10337
X18533Y9487
X16583Y12987
X15833Y12987
X12833Y12987
X13883Y5987
X10883Y5987
X9883Y5987
X6883Y5987
T03
X2033Y6587
X2033Y7587
X1833Y9787
X1833Y10787
X1833Y11787
X4883Y11487
X4883Y10537
X5883Y10437
X5883Y11487
X6883Y11487
X6883Y10537
X7883Y10437
X7883Y11487
X8883Y11487
X8883Y10537
X9333Y9337
X9883Y10437
X9883Y11487
X10883Y11487
X10883Y10537
X11883Y10437
X11883Y11487
X12883Y11487
X12883Y10537
X12433Y9337
X13433Y9337
X13883Y10437
X13883Y11487
X14883Y11487
X14883Y10537
X15883Y10437
X15883Y11487
X17383Y8557
X17383Y7417
X15883Y4437
X15883Y3487
X14883Y3487
X14883Y4537
X13883Y4437
X13883Y3487
X12883Y3487
X12883Y4537
X11883Y4437
X11883Y3487
X10883Y3487
X10953Y2487
X9813Y2487
X9883Y3487
X9883Y4437
X8883Y4537
X8883Y3487
X7883Y3487
X7883Y4437
X6883Y4537
X6883Y3487
X5883Y3487
X5883Y4437
X4883Y4537
X4883Y3487
X4883Y1537
X5883Y1437
X6883Y1537
X7883Y1437
X10883Y4537
X12883Y1537
X13883Y1437
X14883Y1537
X15883Y1437
X8333Y9337
X18783Y16987
X18983Y17987
X18783Y18987
X18983Y19987
X18783Y20987
X18983Y21987
T04
X14057Y23554
T05
X14057Y15247
M30
