G75*
%MOIN*%
%OFA0B0*%
%FSLAX25Y25*%
%IPPOS*%
%LPD*%
%AMOC8*
5,1,8,0,0,1.08239X$1,22.5*
%
%ADD10C,0.07400*%
%ADD11R,0.08000X0.08000*%
%ADD12C,0.08000*%
%ADD13OC8,0.06600*%
%ADD14R,0.07400X0.07400*%
%ADD15OC8,0.04800*%
%ADD16R,0.03762X0.03762*%
%ADD17C,0.01600*%
%ADD18C,0.01000*%
D10*
X0048833Y0015367D03*
X0058833Y0014367D03*
X0068833Y0015367D03*
X0068833Y0033367D03*
X0068833Y0045367D03*
X0058833Y0044367D03*
X0058833Y0033367D03*
X0048833Y0033367D03*
X0048833Y0045367D03*
X0078833Y0044367D03*
X0088833Y0045367D03*
X0088833Y0033367D03*
X0078833Y0033367D03*
X0098833Y0033367D03*
X0098833Y0044367D03*
X0108833Y0045367D03*
X0108833Y0033367D03*
X0118833Y0033367D03*
X0118833Y0044367D03*
X0128833Y0045367D03*
X0138833Y0044367D03*
X0138833Y0033367D03*
X0128833Y0033367D03*
X0138833Y0014367D03*
X0148833Y0015367D03*
X0158833Y0014367D03*
X0158833Y0033367D03*
X0158833Y0044367D03*
X0148833Y0045367D03*
X0148833Y0033367D03*
X0173833Y0072167D03*
X0173833Y0083567D03*
X0158833Y0104367D03*
X0148833Y0105367D03*
X0148833Y0116367D03*
X0138833Y0116367D03*
X0128833Y0116367D03*
X0128833Y0105367D03*
X0138833Y0104367D03*
X0134333Y0093367D03*
X0124333Y0093367D03*
X0118833Y0104367D03*
X0108833Y0105367D03*
X0108833Y0116367D03*
X0098833Y0116367D03*
X0088833Y0116367D03*
X0078833Y0116367D03*
X0088833Y0105367D03*
X0078833Y0104367D03*
X0083333Y0093367D03*
X0093333Y0093367D03*
X0098833Y0104367D03*
X0118833Y0116367D03*
X0108833Y0131867D03*
X0098833Y0131867D03*
X0088833Y0131867D03*
X0078833Y0131867D03*
X0068833Y0116367D03*
X0068833Y0105367D03*
X0058833Y0104367D03*
X0048833Y0105367D03*
X0048833Y0116367D03*
X0058833Y0116367D03*
X0018333Y0119867D03*
X0018333Y0109867D03*
X0018333Y0099867D03*
X0098133Y0022367D03*
X0109533Y0022367D03*
X0158833Y0116367D03*
X0187833Y0169867D03*
X0189833Y0179867D03*
X0187833Y0189867D03*
X0189833Y0199867D03*
X0187833Y0209867D03*
X0189833Y0219867D03*
D11*
X0017333Y0062867D03*
D12*
X0017333Y0076646D03*
D13*
X0175333Y0103367D03*
X0175333Y0113367D03*
X0192333Y0113367D03*
X0192333Y0103367D03*
D14*
X0128833Y0015367D03*
X0078833Y0014367D03*
D15*
X0068833Y0059867D03*
X0098833Y0059867D03*
X0108833Y0059867D03*
X0138833Y0059867D03*
X0185333Y0062367D03*
X0194133Y0062367D03*
X0194133Y0092367D03*
X0185333Y0092367D03*
X0195833Y0129867D03*
X0165833Y0129867D03*
X0158333Y0129867D03*
X0128333Y0129867D03*
D16*
X0118833Y0129867D03*
X0158833Y0143367D03*
X0168833Y0172367D03*
X0138833Y0202367D03*
X0178833Y0214867D03*
X0063833Y0234867D03*
X0031333Y0141867D03*
X0044833Y0124867D03*
X0038833Y0094867D03*
X0173833Y0058367D03*
D17*
X0008833Y0009867D02*
X0008833Y0249867D01*
X0198833Y0249867D01*
X0198833Y0132806D01*
X0197573Y0134067D01*
X0195833Y0134067D01*
X0194094Y0134067D01*
X0191633Y0131606D01*
X0191633Y0129867D01*
X0195833Y0129867D01*
X0195833Y0134067D01*
X0195833Y0129867D01*
X0195833Y0129867D01*
X0195833Y0129867D01*
X0191633Y0129867D01*
X0191633Y0128127D01*
X0194094Y0125667D01*
X0195833Y0125667D01*
X0195833Y0129867D01*
X0195833Y0129867D01*
X0195833Y0125667D01*
X0197573Y0125667D01*
X0198833Y0126927D01*
X0198833Y0009867D01*
X0161296Y0009867D01*
X0161722Y0010043D01*
X0163157Y0011478D01*
X0163933Y0013352D01*
X0163933Y0015381D01*
X0163157Y0017256D01*
X0161722Y0018690D01*
X0159848Y0019467D01*
X0157819Y0019467D01*
X0155944Y0018690D01*
X0154510Y0017256D01*
X0154215Y0016545D01*
X0154198Y0016655D01*
X0153930Y0017478D01*
X0153537Y0018249D01*
X0153028Y0018950D01*
X0152416Y0019562D01*
X0151716Y0020071D01*
X0150945Y0020464D01*
X0150121Y0020731D01*
X0149266Y0020867D01*
X0149033Y0020867D01*
X0149033Y0015567D01*
X0148633Y0015567D01*
X0148633Y0020867D01*
X0148400Y0020867D01*
X0147545Y0020731D01*
X0146722Y0020464D01*
X0145951Y0020071D01*
X0145250Y0019562D01*
X0144638Y0018950D01*
X0144129Y0018249D01*
X0143736Y0017478D01*
X0143469Y0016655D01*
X0143451Y0016545D01*
X0143157Y0017256D01*
X0141722Y0018690D01*
X0141033Y0018976D01*
X0141033Y0020778D01*
X0139033Y0022778D01*
X0137745Y0024067D01*
X0122922Y0024067D01*
X0114922Y0016067D01*
X0101033Y0016067D01*
X0101033Y0018054D01*
X0102457Y0019478D01*
X0103233Y0021352D01*
X0103233Y0023381D01*
X0102457Y0025256D01*
X0101022Y0026690D01*
X0099148Y0027467D01*
X0097119Y0027467D01*
X0095244Y0026690D01*
X0093810Y0025256D01*
X0093033Y0023381D01*
X0093033Y0021352D01*
X0093810Y0019478D01*
X0095244Y0018043D01*
X0096633Y0017468D01*
X0096633Y0013955D01*
X0097633Y0012955D01*
X0098922Y0011667D01*
X0116745Y0011667D01*
X0118033Y0012955D01*
X0123733Y0018655D01*
X0123733Y0011087D01*
X0124553Y0010267D01*
X0133113Y0010267D01*
X0133933Y0011087D01*
X0133933Y0012869D01*
X0134510Y0011478D01*
X0135944Y0010043D01*
X0136370Y0009867D01*
X0083713Y0009867D01*
X0083933Y0010087D01*
X0083933Y0018647D01*
X0083113Y0019467D01*
X0074553Y0019467D01*
X0073733Y0018647D01*
X0073733Y0016864D01*
X0073157Y0018256D01*
X0071722Y0019690D01*
X0069848Y0020467D01*
X0067819Y0020467D01*
X0065944Y0019690D01*
X0064510Y0018256D01*
X0063844Y0016648D01*
X0063537Y0017249D01*
X0063028Y0017950D01*
X0062416Y0018562D01*
X0061716Y0019071D01*
X0060945Y0019464D01*
X0060121Y0019731D01*
X0059266Y0019867D01*
X0059033Y0019867D01*
X0059033Y0014567D01*
X0058633Y0014567D01*
X0058633Y0019867D01*
X0058400Y0019867D01*
X0057545Y0019731D01*
X0056722Y0019464D01*
X0055951Y0019071D01*
X0055250Y0018562D01*
X0054638Y0017950D01*
X0054129Y0017249D01*
X0053823Y0016648D01*
X0053157Y0018256D01*
X0051722Y0019690D01*
X0049848Y0020467D01*
X0047819Y0020467D01*
X0045944Y0019690D01*
X0044510Y0018256D01*
X0043733Y0016381D01*
X0043733Y0014352D01*
X0044510Y0012478D01*
X0045944Y0011043D01*
X0047819Y0010267D01*
X0049848Y0010267D01*
X0051722Y0011043D01*
X0053157Y0012478D01*
X0053451Y0013189D01*
X0053469Y0013079D01*
X0053736Y0012255D01*
X0054129Y0011484D01*
X0054638Y0010784D01*
X0055250Y0010171D01*
X0055670Y0009867D01*
X0008833Y0009867D01*
X0008833Y0011261D02*
X0045727Y0011261D01*
X0044352Y0012859D02*
X0008833Y0012859D01*
X0008833Y0014458D02*
X0043733Y0014458D01*
X0043733Y0016056D02*
X0008833Y0016056D01*
X0008833Y0017655D02*
X0044261Y0017655D01*
X0045507Y0019253D02*
X0008833Y0019253D01*
X0008833Y0020852D02*
X0093241Y0020852D01*
X0093033Y0022450D02*
X0008833Y0022450D01*
X0008833Y0024049D02*
X0093310Y0024049D01*
X0094201Y0025647D02*
X0008833Y0025647D01*
X0008833Y0027246D02*
X0096586Y0027246D01*
X0097819Y0028267D02*
X0095944Y0029043D01*
X0094510Y0030478D01*
X0093833Y0032111D01*
X0093157Y0030478D01*
X0091722Y0029043D01*
X0089848Y0028267D01*
X0087819Y0028267D01*
X0085944Y0029043D01*
X0084510Y0030478D01*
X0084043Y0031603D01*
X0083930Y0031255D01*
X0083537Y0030484D01*
X0083028Y0029784D01*
X0082416Y0029171D01*
X0081716Y0028663D01*
X0080945Y0028270D01*
X0080121Y0028002D01*
X0079266Y0027867D01*
X0079033Y0027867D01*
X0079033Y0033167D01*
X0078633Y0033167D01*
X0078633Y0027867D01*
X0078400Y0027867D01*
X0077545Y0028002D01*
X0076722Y0028270D01*
X0075951Y0028663D01*
X0075250Y0029171D01*
X0074638Y0029784D01*
X0074129Y0030484D01*
X0073736Y0031255D01*
X0073623Y0031603D01*
X0073157Y0030478D01*
X0071722Y0029043D01*
X0069848Y0028267D01*
X0067819Y0028267D01*
X0065944Y0029043D01*
X0064510Y0030478D01*
X0063833Y0032111D01*
X0063157Y0030478D01*
X0061722Y0029043D01*
X0059848Y0028267D01*
X0057819Y0028267D01*
X0055944Y0029043D01*
X0054510Y0030478D01*
X0053833Y0032111D01*
X0053157Y0030478D01*
X0051722Y0029043D01*
X0049848Y0028267D01*
X0047819Y0028267D01*
X0045944Y0029043D01*
X0044510Y0030478D01*
X0043733Y0032352D01*
X0043733Y0034381D01*
X0044510Y0036256D01*
X0045944Y0037690D01*
X0047819Y0038467D01*
X0049848Y0038467D01*
X0051722Y0037690D01*
X0053157Y0036256D01*
X0053833Y0034623D01*
X0054510Y0036256D01*
X0055944Y0037690D01*
X0057819Y0038467D01*
X0059848Y0038467D01*
X0061722Y0037690D01*
X0063157Y0036256D01*
X0063833Y0034623D01*
X0064510Y0036256D01*
X0065944Y0037690D01*
X0067819Y0038467D01*
X0069848Y0038467D01*
X0071722Y0037690D01*
X0073157Y0036256D01*
X0073623Y0035130D01*
X0073736Y0035478D01*
X0074129Y0036249D01*
X0074638Y0036950D01*
X0075250Y0037562D01*
X0075951Y0038071D01*
X0076722Y0038464D01*
X0077545Y0038731D01*
X0078400Y0038867D01*
X0078633Y0038867D01*
X0078633Y0044167D01*
X0079033Y0044167D01*
X0079033Y0038867D01*
X0079266Y0038867D01*
X0080121Y0039002D01*
X0080945Y0039270D01*
X0081716Y0039663D01*
X0082416Y0040171D01*
X0083028Y0040784D01*
X0083537Y0041484D01*
X0083930Y0042255D01*
X0084198Y0043079D01*
X0084215Y0043189D01*
X0084510Y0042478D01*
X0085944Y0041043D01*
X0087819Y0040267D01*
X0089848Y0040267D01*
X0091722Y0041043D01*
X0093157Y0042478D01*
X0093733Y0043869D01*
X0093733Y0043352D01*
X0094510Y0041478D01*
X0095944Y0040043D01*
X0097819Y0039267D01*
X0099848Y0039267D01*
X0101722Y0040043D01*
X0103157Y0041478D01*
X0103933Y0043352D01*
X0103933Y0043869D01*
X0104510Y0042478D01*
X0105944Y0041043D01*
X0107819Y0040267D01*
X0109848Y0040267D01*
X0111722Y0041043D01*
X0113157Y0042478D01*
X0113733Y0043869D01*
X0113733Y0043352D01*
X0114510Y0041478D01*
X0115944Y0040043D01*
X0117819Y0039267D01*
X0119848Y0039267D01*
X0121722Y0040043D01*
X0123157Y0041478D01*
X0123933Y0043352D01*
X0123933Y0043869D01*
X0124510Y0042478D01*
X0125944Y0041043D01*
X0127819Y0040267D01*
X0129848Y0040267D01*
X0131722Y0041043D01*
X0133157Y0042478D01*
X0133733Y0043869D01*
X0133733Y0043352D01*
X0134510Y0041478D01*
X0135944Y0040043D01*
X0137819Y0039267D01*
X0139848Y0039267D01*
X0141722Y0040043D01*
X0143157Y0041478D01*
X0143933Y0043352D01*
X0143933Y0043869D01*
X0144510Y0042478D01*
X0145944Y0041043D01*
X0147819Y0040267D01*
X0149848Y0040267D01*
X0151722Y0041043D01*
X0153157Y0042478D01*
X0153733Y0043869D01*
X0153733Y0043352D01*
X0154510Y0041478D01*
X0155944Y0040043D01*
X0157819Y0039267D01*
X0159848Y0039267D01*
X0161722Y0040043D01*
X0163157Y0041478D01*
X0163442Y0042167D01*
X0189245Y0042167D01*
X0194745Y0047667D01*
X0196033Y0048955D01*
X0196033Y0058893D01*
X0197933Y0060793D01*
X0197933Y0063941D01*
X0195707Y0066167D01*
X0195364Y0066167D01*
X0195283Y0066228D01*
X0194745Y0066767D01*
X0194574Y0066767D01*
X0194439Y0066870D01*
X0193684Y0066767D01*
X0192922Y0066767D01*
X0192802Y0066646D01*
X0192633Y0066623D01*
X0192172Y0066017D01*
X0191633Y0065478D01*
X0191633Y0065308D01*
X0191530Y0065172D01*
X0191535Y0065142D01*
X0190333Y0063941D01*
X0190333Y0060793D01*
X0191633Y0059493D01*
X0191633Y0050778D01*
X0187422Y0046567D01*
X0163442Y0046567D01*
X0163157Y0047256D01*
X0161722Y0048690D01*
X0159848Y0049467D01*
X0157819Y0049467D01*
X0155944Y0048690D01*
X0154510Y0047256D01*
X0153933Y0045864D01*
X0153933Y0046381D01*
X0153157Y0048256D01*
X0151722Y0049690D01*
X0150572Y0050167D01*
X0182745Y0050167D01*
X0184033Y0051455D01*
X0187533Y0054955D01*
X0187533Y0059193D01*
X0189133Y0060793D01*
X0189133Y0063941D01*
X0186907Y0066167D01*
X0183759Y0066167D01*
X0181533Y0063941D01*
X0181533Y0060793D01*
X0183133Y0059193D01*
X0183133Y0056778D01*
X0180922Y0054567D01*
X0129922Y0054567D01*
X0127922Y0052567D01*
X0126633Y0051278D01*
X0126633Y0049976D01*
X0125944Y0049690D01*
X0124510Y0048256D01*
X0123733Y0046381D01*
X0123733Y0045864D01*
X0123157Y0047256D01*
X0121722Y0048690D01*
X0119848Y0049467D01*
X0117819Y0049467D01*
X0115944Y0048690D01*
X0114510Y0047256D01*
X0113933Y0045864D01*
X0113933Y0046381D01*
X0113157Y0048256D01*
X0111722Y0049690D01*
X0109848Y0050467D01*
X0107819Y0050467D01*
X0105944Y0049690D01*
X0104510Y0048256D01*
X0103733Y0046381D01*
X0103733Y0045864D01*
X0103157Y0047256D01*
X0101722Y0048690D01*
X0099848Y0049467D01*
X0097819Y0049467D01*
X0095944Y0048690D01*
X0094510Y0047256D01*
X0093933Y0045864D01*
X0093933Y0046381D01*
X0093157Y0048256D01*
X0091722Y0049690D01*
X0089848Y0050467D01*
X0087819Y0050467D01*
X0085944Y0049690D01*
X0084510Y0048256D01*
X0083844Y0046648D01*
X0083537Y0047249D01*
X0083028Y0047950D01*
X0082416Y0048562D01*
X0081716Y0049071D01*
X0080945Y0049464D01*
X0080121Y0049731D01*
X0079266Y0049867D01*
X0079033Y0049867D01*
X0079033Y0044567D01*
X0078633Y0044567D01*
X0078633Y0049867D01*
X0078400Y0049867D01*
X0077545Y0049731D01*
X0076722Y0049464D01*
X0075951Y0049071D01*
X0075250Y0048562D01*
X0074638Y0047950D01*
X0074129Y0047249D01*
X0073823Y0046648D01*
X0073157Y0048256D01*
X0071722Y0049690D01*
X0069848Y0050467D01*
X0067819Y0050467D01*
X0065944Y0049690D01*
X0064510Y0048256D01*
X0063733Y0046381D01*
X0063733Y0045864D01*
X0063157Y0047256D01*
X0061722Y0048690D01*
X0059848Y0049467D01*
X0057819Y0049467D01*
X0055944Y0048690D01*
X0054510Y0047256D01*
X0053933Y0045864D01*
X0053933Y0046381D01*
X0053157Y0048256D01*
X0051722Y0049690D01*
X0049848Y0050467D01*
X0047819Y0050467D01*
X0045944Y0049690D01*
X0044510Y0048256D01*
X0043733Y0046381D01*
X0043733Y0044352D01*
X0044510Y0042478D01*
X0045944Y0041043D01*
X0047819Y0040267D01*
X0049848Y0040267D01*
X0051722Y0041043D01*
X0053157Y0042478D01*
X0053733Y0043869D01*
X0053733Y0043352D01*
X0054510Y0041478D01*
X0055944Y0040043D01*
X0057819Y0039267D01*
X0059848Y0039267D01*
X0061722Y0040043D01*
X0063157Y0041478D01*
X0063933Y0043352D01*
X0063933Y0043869D01*
X0064510Y0042478D01*
X0065944Y0041043D01*
X0067819Y0040267D01*
X0069848Y0040267D01*
X0071722Y0041043D01*
X0073157Y0042478D01*
X0073451Y0043189D01*
X0073469Y0043079D01*
X0073736Y0042255D01*
X0074129Y0041484D01*
X0074638Y0040784D01*
X0075250Y0040171D01*
X0075951Y0039663D01*
X0076722Y0039270D01*
X0077545Y0039002D01*
X0078400Y0038867D01*
X0078633Y0038867D01*
X0078633Y0033567D01*
X0079033Y0033567D01*
X0079033Y0038867D01*
X0079266Y0038867D01*
X0080121Y0038731D01*
X0080945Y0038464D01*
X0081716Y0038071D01*
X0082416Y0037562D01*
X0083028Y0036950D01*
X0083537Y0036249D01*
X0083930Y0035478D01*
X0084043Y0035130D01*
X0084510Y0036256D01*
X0085944Y0037690D01*
X0087819Y0038467D01*
X0089848Y0038467D01*
X0091722Y0037690D01*
X0093157Y0036256D01*
X0093833Y0034623D01*
X0094510Y0036256D01*
X0095944Y0037690D01*
X0097819Y0038467D01*
X0099848Y0038467D01*
X0101722Y0037690D01*
X0103157Y0036256D01*
X0103833Y0034623D01*
X0104510Y0036256D01*
X0105944Y0037690D01*
X0107819Y0038467D01*
X0109848Y0038467D01*
X0111722Y0037690D01*
X0113157Y0036256D01*
X0113833Y0034623D01*
X0114510Y0036256D01*
X0115944Y0037690D01*
X0117819Y0038467D01*
X0119848Y0038467D01*
X0121722Y0037690D01*
X0123157Y0036256D01*
X0123833Y0034623D01*
X0124510Y0036256D01*
X0125944Y0037690D01*
X0127819Y0038467D01*
X0129848Y0038467D01*
X0131722Y0037690D01*
X0133157Y0036256D01*
X0133833Y0034623D01*
X0134510Y0036256D01*
X0135944Y0037690D01*
X0137819Y0038467D01*
X0139848Y0038467D01*
X0141722Y0037690D01*
X0143157Y0036256D01*
X0143833Y0034623D01*
X0144510Y0036256D01*
X0145944Y0037690D01*
X0147819Y0038467D01*
X0149848Y0038467D01*
X0151722Y0037690D01*
X0153157Y0036256D01*
X0153833Y0034623D01*
X0154510Y0036256D01*
X0155944Y0037690D01*
X0157819Y0038467D01*
X0159848Y0038467D01*
X0161722Y0037690D01*
X0163157Y0036256D01*
X0163933Y0034381D01*
X0163933Y0032352D01*
X0163157Y0030478D01*
X0161722Y0029043D01*
X0159848Y0028267D01*
X0157819Y0028267D01*
X0155944Y0029043D01*
X0154510Y0030478D01*
X0153833Y0032111D01*
X0153157Y0030478D01*
X0151722Y0029043D01*
X0149848Y0028267D01*
X0147819Y0028267D01*
X0145944Y0029043D01*
X0144510Y0030478D01*
X0143833Y0032111D01*
X0143157Y0030478D01*
X0141722Y0029043D01*
X0139848Y0028267D01*
X0137819Y0028267D01*
X0135944Y0029043D01*
X0134510Y0030478D01*
X0133833Y0032111D01*
X0133157Y0030478D01*
X0131722Y0029043D01*
X0129848Y0028267D01*
X0127819Y0028267D01*
X0125944Y0029043D01*
X0124510Y0030478D01*
X0123833Y0032111D01*
X0123157Y0030478D01*
X0121722Y0029043D01*
X0119848Y0028267D01*
X0117819Y0028267D01*
X0115944Y0029043D01*
X0114510Y0030478D01*
X0113833Y0032111D01*
X0113157Y0030478D01*
X0111722Y0029043D01*
X0109848Y0028267D01*
X0107819Y0028267D01*
X0105944Y0029043D01*
X0104510Y0030478D01*
X0103833Y0032111D01*
X0103157Y0030478D01*
X0101722Y0029043D01*
X0099848Y0028267D01*
X0097819Y0028267D01*
X0096424Y0028844D02*
X0091242Y0028844D01*
X0093122Y0030443D02*
X0094545Y0030443D01*
X0093862Y0032041D02*
X0093805Y0032041D01*
X0093578Y0035238D02*
X0094088Y0035238D01*
X0095091Y0036837D02*
X0092576Y0036837D01*
X0089923Y0038435D02*
X0097743Y0038435D01*
X0099923Y0038435D02*
X0107743Y0038435D01*
X0105091Y0036837D02*
X0102576Y0036837D01*
X0103578Y0035238D02*
X0104088Y0035238D01*
X0103862Y0032041D02*
X0103805Y0032041D01*
X0103122Y0030443D02*
X0104545Y0030443D01*
X0106424Y0028844D02*
X0101242Y0028844D01*
X0099681Y0027246D02*
X0107986Y0027246D01*
X0108519Y0027467D02*
X0106644Y0026690D01*
X0105210Y0025256D01*
X0104433Y0023381D01*
X0104433Y0021352D01*
X0105210Y0019478D01*
X0106644Y0018043D01*
X0108519Y0017267D01*
X0110548Y0017267D01*
X0112422Y0018043D01*
X0113857Y0019478D01*
X0114633Y0021352D01*
X0114633Y0023381D01*
X0113857Y0025256D01*
X0112422Y0026690D01*
X0110548Y0027467D01*
X0108519Y0027467D01*
X0111081Y0027246D02*
X0198833Y0027246D01*
X0198833Y0028844D02*
X0161242Y0028844D01*
X0163122Y0030443D02*
X0198833Y0030443D01*
X0198833Y0032041D02*
X0163805Y0032041D01*
X0163933Y0033640D02*
X0198833Y0033640D01*
X0198833Y0035238D02*
X0163578Y0035238D01*
X0162576Y0036837D02*
X0198833Y0036837D01*
X0198833Y0038435D02*
X0159923Y0038435D01*
X0157743Y0038435D02*
X0149923Y0038435D01*
X0147743Y0038435D02*
X0139923Y0038435D01*
X0137743Y0038435D02*
X0129923Y0038435D01*
X0127743Y0038435D02*
X0119923Y0038435D01*
X0117743Y0038435D02*
X0109923Y0038435D01*
X0112576Y0036837D02*
X0115091Y0036837D01*
X0114088Y0035238D02*
X0113578Y0035238D01*
X0113805Y0032041D02*
X0113862Y0032041D01*
X0114545Y0030443D02*
X0113122Y0030443D01*
X0111242Y0028844D02*
X0116424Y0028844D01*
X0113465Y0025647D02*
X0198833Y0025647D01*
X0198833Y0024049D02*
X0137762Y0024049D01*
X0139361Y0022450D02*
X0198833Y0022450D01*
X0198833Y0020852D02*
X0149360Y0020852D01*
X0149033Y0020852D02*
X0148633Y0020852D01*
X0148307Y0020852D02*
X0140959Y0020852D01*
X0141033Y0019253D02*
X0144942Y0019253D01*
X0143826Y0017655D02*
X0142758Y0017655D01*
X0143823Y0013086D02*
X0144129Y0012484D01*
X0144638Y0011784D01*
X0145250Y0011171D01*
X0145951Y0010663D01*
X0146722Y0010270D01*
X0147545Y0010002D01*
X0148400Y0009867D01*
X0148633Y0009867D01*
X0148633Y0015167D01*
X0149033Y0015167D01*
X0149033Y0009867D01*
X0149266Y0009867D01*
X0150121Y0010002D01*
X0150945Y0010270D01*
X0151716Y0010663D01*
X0152416Y0011171D01*
X0153028Y0011784D01*
X0153537Y0012484D01*
X0153844Y0013086D01*
X0154510Y0011478D01*
X0155944Y0010043D01*
X0156370Y0009867D01*
X0141296Y0009867D01*
X0141722Y0010043D01*
X0143157Y0011478D01*
X0143823Y0013086D01*
X0143729Y0012859D02*
X0143938Y0012859D01*
X0142940Y0011261D02*
X0145161Y0011261D01*
X0148633Y0011261D02*
X0149033Y0011261D01*
X0149033Y0012859D02*
X0148633Y0012859D01*
X0148633Y0014458D02*
X0149033Y0014458D01*
X0149033Y0016056D02*
X0148633Y0016056D01*
X0148633Y0017655D02*
X0149033Y0017655D01*
X0149033Y0019253D02*
X0148633Y0019253D01*
X0152725Y0019253D02*
X0157304Y0019253D01*
X0154909Y0017655D02*
X0153840Y0017655D01*
X0153728Y0012859D02*
X0153938Y0012859D01*
X0154727Y0011261D02*
X0152506Y0011261D01*
X0160363Y0019253D02*
X0198833Y0019253D01*
X0198833Y0017655D02*
X0162758Y0017655D01*
X0163654Y0016056D02*
X0198833Y0016056D01*
X0198833Y0014458D02*
X0163933Y0014458D01*
X0163729Y0012859D02*
X0198833Y0012859D01*
X0198833Y0011261D02*
X0162940Y0011261D01*
X0156424Y0028844D02*
X0151242Y0028844D01*
X0153122Y0030443D02*
X0154545Y0030443D01*
X0153862Y0032041D02*
X0153805Y0032041D01*
X0153578Y0035238D02*
X0154088Y0035238D01*
X0155091Y0036837D02*
X0152576Y0036837D01*
X0155967Y0040034D02*
X0141700Y0040034D01*
X0143221Y0041632D02*
X0145355Y0041632D01*
X0144198Y0043231D02*
X0143883Y0043231D01*
X0145091Y0036837D02*
X0142576Y0036837D01*
X0143578Y0035238D02*
X0144088Y0035238D01*
X0143862Y0032041D02*
X0143805Y0032041D01*
X0143122Y0030443D02*
X0144545Y0030443D01*
X0146424Y0028844D02*
X0141242Y0028844D01*
X0136424Y0028844D02*
X0131242Y0028844D01*
X0133122Y0030443D02*
X0134545Y0030443D01*
X0133862Y0032041D02*
X0133805Y0032041D01*
X0133578Y0035238D02*
X0134088Y0035238D01*
X0135091Y0036837D02*
X0132576Y0036837D01*
X0135967Y0040034D02*
X0121700Y0040034D01*
X0123221Y0041632D02*
X0125355Y0041632D01*
X0124198Y0043231D02*
X0123883Y0043231D01*
X0123753Y0046428D02*
X0123500Y0046428D01*
X0124415Y0048026D02*
X0122386Y0048026D01*
X0125879Y0049625D02*
X0111787Y0049625D01*
X0113252Y0048026D02*
X0115281Y0048026D01*
X0114167Y0046428D02*
X0113914Y0046428D01*
X0113784Y0043231D02*
X0113469Y0043231D01*
X0114446Y0041632D02*
X0112312Y0041632D01*
X0115967Y0040034D02*
X0101700Y0040034D01*
X0103221Y0041632D02*
X0105355Y0041632D01*
X0104198Y0043231D02*
X0103883Y0043231D01*
X0103753Y0046428D02*
X0103500Y0046428D01*
X0104415Y0048026D02*
X0102386Y0048026D01*
X0105879Y0049625D02*
X0091787Y0049625D01*
X0093252Y0048026D02*
X0095281Y0048026D01*
X0094167Y0046428D02*
X0093914Y0046428D01*
X0093784Y0043231D02*
X0093469Y0043231D01*
X0094446Y0041632D02*
X0092312Y0041632D01*
X0095967Y0040034D02*
X0082227Y0040034D01*
X0081000Y0038435D02*
X0087743Y0038435D01*
X0085091Y0036837D02*
X0083110Y0036837D01*
X0084008Y0035238D02*
X0084088Y0035238D01*
X0084545Y0030443D02*
X0083507Y0030443D01*
X0081966Y0028844D02*
X0086424Y0028844D01*
X0079033Y0028844D02*
X0078633Y0028844D01*
X0078633Y0030443D02*
X0079033Y0030443D01*
X0079033Y0032041D02*
X0078633Y0032041D01*
X0078633Y0033640D02*
X0079033Y0033640D01*
X0079033Y0035238D02*
X0078633Y0035238D01*
X0078633Y0036837D02*
X0079033Y0036837D01*
X0079033Y0038435D02*
X0078633Y0038435D01*
X0078633Y0040034D02*
X0079033Y0040034D01*
X0079033Y0041632D02*
X0078633Y0041632D01*
X0078633Y0043231D02*
X0079033Y0043231D01*
X0079033Y0044829D02*
X0078633Y0044829D01*
X0078633Y0046428D02*
X0079033Y0046428D01*
X0079033Y0048026D02*
X0078633Y0048026D01*
X0078633Y0049625D02*
X0079033Y0049625D01*
X0080448Y0049625D02*
X0085879Y0049625D01*
X0084415Y0048026D02*
X0082952Y0048026D01*
X0083613Y0041632D02*
X0085355Y0041632D01*
X0077218Y0049625D02*
X0071787Y0049625D01*
X0073252Y0048026D02*
X0074715Y0048026D01*
X0074054Y0041632D02*
X0072312Y0041632D01*
X0075440Y0040034D02*
X0061700Y0040034D01*
X0063221Y0041632D02*
X0065355Y0041632D01*
X0064198Y0043231D02*
X0063883Y0043231D01*
X0063753Y0046428D02*
X0063500Y0046428D01*
X0064415Y0048026D02*
X0062386Y0048026D01*
X0065879Y0049625D02*
X0051787Y0049625D01*
X0053252Y0048026D02*
X0055281Y0048026D01*
X0054167Y0046428D02*
X0053914Y0046428D01*
X0053784Y0043231D02*
X0053469Y0043231D01*
X0054446Y0041632D02*
X0052312Y0041632D01*
X0055967Y0040034D02*
X0008833Y0040034D01*
X0008833Y0041632D02*
X0045355Y0041632D01*
X0044198Y0043231D02*
X0008833Y0043231D01*
X0008833Y0044829D02*
X0043733Y0044829D01*
X0043753Y0046428D02*
X0008833Y0046428D01*
X0008833Y0048026D02*
X0044415Y0048026D01*
X0045879Y0049625D02*
X0008833Y0049625D01*
X0008833Y0051223D02*
X0126633Y0051223D01*
X0128177Y0052822D02*
X0008833Y0052822D01*
X0008833Y0054421D02*
X0129776Y0054421D01*
X0130833Y0052367D02*
X0128833Y0050367D01*
X0128833Y0045367D01*
X0132312Y0041632D02*
X0134446Y0041632D01*
X0133784Y0043231D02*
X0133469Y0043231D01*
X0130833Y0052367D02*
X0181833Y0052367D01*
X0185333Y0055867D01*
X0185333Y0062367D01*
X0183110Y0059216D02*
X0142633Y0059216D01*
X0142633Y0058293D02*
X0142633Y0061441D01*
X0140407Y0063667D01*
X0137259Y0063667D01*
X0135033Y0061441D01*
X0135033Y0058293D01*
X0137259Y0056067D01*
X0140407Y0056067D01*
X0142633Y0058293D01*
X0141958Y0057618D02*
X0183133Y0057618D01*
X0182374Y0056019D02*
X0008833Y0056019D01*
X0008833Y0057618D02*
X0012037Y0057618D01*
X0011893Y0057761D02*
X0012228Y0057426D01*
X0012639Y0057189D01*
X0013096Y0057067D01*
X0016952Y0057067D01*
X0016952Y0062485D01*
X0017714Y0062485D01*
X0017714Y0057067D01*
X0021570Y0057067D01*
X0022028Y0057189D01*
X0022439Y0057426D01*
X0022774Y0057761D01*
X0023011Y0058172D01*
X0023133Y0058630D01*
X0023133Y0062486D01*
X0017715Y0062486D01*
X0017715Y0063248D01*
X0023133Y0063248D01*
X0023133Y0067104D01*
X0023011Y0067561D01*
X0022774Y0067972D01*
X0022439Y0068307D01*
X0022028Y0068544D01*
X0021570Y0068667D01*
X0017714Y0068667D01*
X0017714Y0063248D01*
X0016952Y0063248D01*
X0016952Y0068667D01*
X0013096Y0068667D01*
X0012639Y0068544D01*
X0012228Y0068307D01*
X0011893Y0067972D01*
X0011656Y0067561D01*
X0011533Y0067104D01*
X0011533Y0063248D01*
X0016952Y0063248D01*
X0016952Y0062486D01*
X0011533Y0062486D01*
X0011533Y0058630D01*
X0011656Y0058172D01*
X0011893Y0057761D01*
X0011533Y0059216D02*
X0008833Y0059216D01*
X0008833Y0060815D02*
X0011533Y0060815D01*
X0011533Y0062413D02*
X0008833Y0062413D01*
X0008833Y0064012D02*
X0011533Y0064012D01*
X0011533Y0065610D02*
X0008833Y0065610D01*
X0008833Y0067209D02*
X0011561Y0067209D01*
X0008833Y0068807D02*
X0169980Y0068807D01*
X0169510Y0069278D02*
X0170944Y0067843D01*
X0172819Y0067067D01*
X0174848Y0067067D01*
X0176722Y0067843D01*
X0178157Y0069278D01*
X0178933Y0071152D01*
X0178933Y0073181D01*
X0178157Y0075056D01*
X0176722Y0076490D01*
X0174848Y0077267D01*
X0172819Y0077267D01*
X0170944Y0076490D01*
X0169510Y0075056D01*
X0168733Y0073181D01*
X0168733Y0071152D01*
X0169510Y0069278D01*
X0169043Y0070406D02*
X0008833Y0070406D01*
X0008833Y0072004D02*
X0014429Y0072004D01*
X0014274Y0072068D02*
X0016259Y0071246D01*
X0018407Y0071246D01*
X0020392Y0072068D01*
X0021911Y0073587D01*
X0022733Y0075572D01*
X0022733Y0077720D01*
X0021911Y0079705D01*
X0020392Y0081224D01*
X0018407Y0082046D01*
X0016259Y0082046D01*
X0014274Y0081224D01*
X0012755Y0079705D01*
X0011933Y0077720D01*
X0011933Y0075572D01*
X0012755Y0073587D01*
X0014274Y0072068D01*
X0012749Y0073603D02*
X0008833Y0073603D01*
X0008833Y0075201D02*
X0012087Y0075201D01*
X0011933Y0076800D02*
X0008833Y0076800D01*
X0008833Y0078398D02*
X0012214Y0078398D01*
X0013047Y0079997D02*
X0008833Y0079997D01*
X0008833Y0081595D02*
X0015170Y0081595D01*
X0019496Y0081595D02*
X0169130Y0081595D01*
X0169510Y0080678D02*
X0170944Y0079243D01*
X0172819Y0078467D01*
X0174848Y0078467D01*
X0176722Y0079243D01*
X0178157Y0080678D01*
X0178933Y0082552D01*
X0178933Y0084581D01*
X0178157Y0086456D01*
X0176722Y0087890D01*
X0174848Y0088667D01*
X0172819Y0088667D01*
X0170944Y0087890D01*
X0169510Y0086456D01*
X0168733Y0084581D01*
X0168733Y0082552D01*
X0169510Y0080678D01*
X0170191Y0079997D02*
X0021620Y0079997D01*
X0022453Y0078398D02*
X0198833Y0078398D01*
X0198833Y0076800D02*
X0175975Y0076800D01*
X0178011Y0075201D02*
X0198833Y0075201D01*
X0198833Y0073603D02*
X0178759Y0073603D01*
X0178933Y0072004D02*
X0198833Y0072004D01*
X0198833Y0070406D02*
X0178624Y0070406D01*
X0177686Y0068807D02*
X0198833Y0068807D01*
X0198833Y0067209D02*
X0175190Y0067209D01*
X0172476Y0067209D02*
X0023105Y0067209D01*
X0023133Y0065610D02*
X0183203Y0065610D01*
X0181604Y0064012D02*
X0023133Y0064012D01*
X0023133Y0062413D02*
X0066006Y0062413D01*
X0065033Y0061441D02*
X0065033Y0058293D01*
X0067259Y0056067D01*
X0070407Y0056067D01*
X0072633Y0058293D01*
X0072633Y0061441D01*
X0070407Y0063667D01*
X0067259Y0063667D01*
X0065033Y0061441D01*
X0065033Y0060815D02*
X0023133Y0060815D01*
X0023133Y0059216D02*
X0065033Y0059216D01*
X0065708Y0057618D02*
X0022630Y0057618D01*
X0017714Y0057618D02*
X0016952Y0057618D01*
X0016952Y0059216D02*
X0017714Y0059216D01*
X0017714Y0060815D02*
X0016952Y0060815D01*
X0016952Y0062413D02*
X0017714Y0062413D01*
X0017714Y0064012D02*
X0016952Y0064012D01*
X0016952Y0065610D02*
X0017714Y0065610D01*
X0017714Y0067209D02*
X0016952Y0067209D01*
X0020237Y0072004D02*
X0168733Y0072004D01*
X0168908Y0073603D02*
X0021918Y0073603D01*
X0022580Y0075201D02*
X0169655Y0075201D01*
X0171691Y0076800D02*
X0022733Y0076800D01*
X0033001Y0089588D02*
X0008833Y0089588D01*
X0008833Y0091186D02*
X0031402Y0091186D01*
X0030422Y0092167D02*
X0029133Y0093455D01*
X0029133Y0138586D01*
X0028872Y0138586D01*
X0028052Y0139406D01*
X0028052Y0144328D01*
X0028872Y0145148D01*
X0029133Y0145148D01*
X0029133Y0208278D01*
X0041633Y0220778D01*
X0042922Y0222067D01*
X0174745Y0222067D01*
X0178663Y0218148D01*
X0181294Y0218148D01*
X0182114Y0217328D01*
X0182114Y0212406D01*
X0181294Y0211586D01*
X0176372Y0211586D01*
X0175552Y0212406D01*
X0175552Y0215036D01*
X0172922Y0217667D01*
X0044745Y0217667D01*
X0033533Y0206455D01*
X0033533Y0145148D01*
X0033794Y0145148D01*
X0034614Y0144328D01*
X0034614Y0139406D01*
X0033794Y0138586D01*
X0033533Y0138586D01*
X0033533Y0095278D01*
X0035552Y0093259D01*
X0035552Y0097328D01*
X0036372Y0098148D01*
X0036633Y0098148D01*
X0036633Y0208278D01*
X0041633Y0213278D01*
X0042922Y0214567D01*
X0172245Y0214567D01*
X0174745Y0212067D01*
X0176033Y0210778D01*
X0176033Y0205778D01*
X0179745Y0202067D01*
X0185224Y0202067D01*
X0185510Y0202756D01*
X0186944Y0204190D01*
X0187379Y0204370D01*
X0186545Y0204502D01*
X0185722Y0204770D01*
X0184951Y0205163D01*
X0184250Y0205671D01*
X0183638Y0206284D01*
X0183129Y0206984D01*
X0182736Y0207755D01*
X0182469Y0208579D01*
X0182333Y0209434D01*
X0182333Y0209667D01*
X0187633Y0209667D01*
X0187633Y0210067D01*
X0182333Y0210067D01*
X0182333Y0210300D01*
X0182469Y0211155D01*
X0182736Y0211978D01*
X0183129Y0212749D01*
X0183638Y0213450D01*
X0184250Y0214062D01*
X0184951Y0214571D01*
X0185722Y0214964D01*
X0186545Y0215231D01*
X0187379Y0215363D01*
X0186944Y0215543D01*
X0185510Y0216978D01*
X0184733Y0218852D01*
X0184733Y0220881D01*
X0185510Y0222756D01*
X0186944Y0224190D01*
X0188819Y0224967D01*
X0190848Y0224967D01*
X0192722Y0224190D01*
X0194157Y0222756D01*
X0194933Y0220881D01*
X0194933Y0218852D01*
X0194157Y0216978D01*
X0192722Y0215543D01*
X0190848Y0214767D01*
X0190331Y0214767D01*
X0190716Y0214571D01*
X0191416Y0214062D01*
X0192028Y0213450D01*
X0192537Y0212749D01*
X0192930Y0211978D01*
X0193198Y0211155D01*
X0193333Y0210300D01*
X0193333Y0210067D01*
X0188033Y0210067D01*
X0188033Y0209667D01*
X0193333Y0209667D01*
X0193333Y0209434D01*
X0193198Y0208579D01*
X0192930Y0207755D01*
X0192537Y0206984D01*
X0192028Y0206284D01*
X0191416Y0205671D01*
X0190716Y0205163D01*
X0190331Y0204967D01*
X0190848Y0204967D01*
X0192722Y0204190D01*
X0194157Y0202756D01*
X0194933Y0200881D01*
X0194933Y0198852D01*
X0194157Y0196978D01*
X0192722Y0195543D01*
X0190848Y0194767D01*
X0189331Y0194767D01*
X0190722Y0194190D01*
X0192157Y0192756D01*
X0192933Y0190881D01*
X0192933Y0188852D01*
X0192157Y0186978D01*
X0190722Y0185543D01*
X0189331Y0184967D01*
X0190848Y0184967D01*
X0192722Y0184190D01*
X0194157Y0182756D01*
X0194933Y0180881D01*
X0194933Y0178852D01*
X0194157Y0176978D01*
X0192722Y0175543D01*
X0190848Y0174767D01*
X0190331Y0174767D01*
X0190716Y0174571D01*
X0191416Y0174062D01*
X0192028Y0173450D01*
X0192537Y0172749D01*
X0192930Y0171978D01*
X0193198Y0171155D01*
X0193333Y0170300D01*
X0193333Y0170067D01*
X0188033Y0170067D01*
X0188033Y0169667D01*
X0193333Y0169667D01*
X0193333Y0169434D01*
X0193198Y0168579D01*
X0192930Y0167755D01*
X0192537Y0166984D01*
X0192028Y0166284D01*
X0191416Y0165671D01*
X0190716Y0165163D01*
X0189945Y0164770D01*
X0189121Y0164502D01*
X0188266Y0164367D01*
X0188033Y0164367D01*
X0188033Y0169667D01*
X0187633Y0169667D01*
X0182333Y0169667D01*
X0182333Y0169434D01*
X0182469Y0168579D01*
X0182736Y0167755D01*
X0183129Y0166984D01*
X0183638Y0166284D01*
X0184250Y0165671D01*
X0184951Y0165163D01*
X0185722Y0164770D01*
X0186545Y0164502D01*
X0187400Y0164367D01*
X0187633Y0164367D01*
X0187633Y0169667D01*
X0187633Y0170067D01*
X0182333Y0170067D01*
X0182333Y0170300D01*
X0182469Y0171155D01*
X0182736Y0171978D01*
X0183129Y0172749D01*
X0183638Y0173450D01*
X0184250Y0174062D01*
X0184951Y0174571D01*
X0185722Y0174964D01*
X0186545Y0175231D01*
X0187379Y0175363D01*
X0186944Y0175543D01*
X0185510Y0176978D01*
X0184733Y0178852D01*
X0184733Y0180881D01*
X0185510Y0182756D01*
X0186944Y0184190D01*
X0188336Y0184767D01*
X0186819Y0184767D01*
X0184944Y0185543D01*
X0183510Y0186978D01*
X0182733Y0188852D01*
X0182733Y0190881D01*
X0183510Y0192756D01*
X0184944Y0194190D01*
X0186819Y0194967D01*
X0188336Y0194967D01*
X0186944Y0195543D01*
X0185510Y0196978D01*
X0185224Y0197667D01*
X0177922Y0197667D01*
X0176633Y0198955D01*
X0171633Y0203955D01*
X0171633Y0208955D01*
X0170422Y0210167D01*
X0044745Y0210167D01*
X0041033Y0206455D01*
X0041033Y0127067D01*
X0041552Y0127067D01*
X0041552Y0127328D01*
X0042372Y0128148D01*
X0047294Y0128148D01*
X0048114Y0127328D01*
X0048114Y0122406D01*
X0047294Y0121586D01*
X0042372Y0121586D01*
X0041552Y0122406D01*
X0041552Y0122474D01*
X0041033Y0121955D01*
X0041033Y0098148D01*
X0041294Y0098148D01*
X0042114Y0097328D01*
X0042114Y0092406D01*
X0041294Y0091586D01*
X0037226Y0091586D01*
X0041745Y0087067D01*
X0087922Y0087067D01*
X0090171Y0089316D01*
X0089010Y0090478D01*
X0088333Y0092111D01*
X0087657Y0090478D01*
X0086222Y0089043D01*
X0084348Y0088267D01*
X0082319Y0088267D01*
X0080444Y0089043D01*
X0079010Y0090478D01*
X0078233Y0092352D01*
X0078233Y0094381D01*
X0079010Y0096256D01*
X0080444Y0097690D01*
X0082319Y0098467D01*
X0084348Y0098467D01*
X0086222Y0097690D01*
X0087657Y0096256D01*
X0088333Y0094623D01*
X0089010Y0096256D01*
X0090444Y0097690D01*
X0092319Y0098467D01*
X0094348Y0098467D01*
X0096222Y0097690D01*
X0097657Y0096256D01*
X0098433Y0094381D01*
X0098433Y0092352D01*
X0097657Y0090478D01*
X0096222Y0089043D01*
X0095533Y0088758D01*
X0095533Y0088455D01*
X0091033Y0083955D01*
X0089745Y0082667D01*
X0039922Y0082667D01*
X0030422Y0092167D01*
X0029804Y0092785D02*
X0008833Y0092785D01*
X0008833Y0094383D02*
X0029133Y0094383D01*
X0029133Y0095982D02*
X0021661Y0095982D01*
X0021222Y0095543D02*
X0022657Y0096978D01*
X0023433Y0098852D01*
X0023433Y0100881D01*
X0022657Y0102756D01*
X0021222Y0104190D01*
X0019589Y0104867D01*
X0021222Y0105543D01*
X0022657Y0106978D01*
X0023433Y0108852D01*
X0023433Y0110881D01*
X0022657Y0112756D01*
X0021222Y0114190D01*
X0019589Y0114867D01*
X0021222Y0115543D01*
X0022657Y0116978D01*
X0023433Y0118852D01*
X0023433Y0120881D01*
X0022657Y0122756D01*
X0021222Y0124190D01*
X0019348Y0124967D01*
X0017319Y0124967D01*
X0015444Y0124190D01*
X0014010Y0122756D01*
X0013233Y0120881D01*
X0013233Y0118852D01*
X0014010Y0116978D01*
X0015444Y0115543D01*
X0017077Y0114867D01*
X0015444Y0114190D01*
X0014010Y0112756D01*
X0013233Y0110881D01*
X0013233Y0108852D01*
X0014010Y0106978D01*
X0015444Y0105543D01*
X0017077Y0104867D01*
X0015444Y0104190D01*
X0014010Y0102756D01*
X0013233Y0100881D01*
X0013233Y0098852D01*
X0014010Y0096978D01*
X0015444Y0095543D01*
X0017319Y0094767D01*
X0019348Y0094767D01*
X0021222Y0095543D01*
X0022906Y0097580D02*
X0029133Y0097580D01*
X0029133Y0099179D02*
X0023433Y0099179D01*
X0023433Y0100777D02*
X0029133Y0100777D01*
X0029133Y0102376D02*
X0022814Y0102376D01*
X0021438Y0103974D02*
X0029133Y0103974D01*
X0029133Y0105573D02*
X0021252Y0105573D01*
X0022737Y0107171D02*
X0029133Y0107171D01*
X0029133Y0108770D02*
X0023399Y0108770D01*
X0023433Y0110368D02*
X0029133Y0110368D01*
X0029133Y0111967D02*
X0022984Y0111967D01*
X0021847Y0113565D02*
X0029133Y0113565D01*
X0029133Y0115164D02*
X0020307Y0115164D01*
X0022442Y0116762D02*
X0029133Y0116762D01*
X0029133Y0118361D02*
X0023230Y0118361D01*
X0023433Y0119959D02*
X0029133Y0119959D01*
X0029133Y0121558D02*
X0023153Y0121558D01*
X0022256Y0123156D02*
X0029133Y0123156D01*
X0029133Y0124755D02*
X0019859Y0124755D01*
X0016808Y0124755D02*
X0008833Y0124755D01*
X0008833Y0123156D02*
X0014411Y0123156D01*
X0013514Y0121558D02*
X0008833Y0121558D01*
X0008833Y0119959D02*
X0013233Y0119959D01*
X0013437Y0118361D02*
X0008833Y0118361D01*
X0008833Y0116762D02*
X0014225Y0116762D01*
X0016360Y0115164D02*
X0008833Y0115164D01*
X0008833Y0113565D02*
X0014820Y0113565D01*
X0013683Y0111967D02*
X0008833Y0111967D01*
X0008833Y0110368D02*
X0013233Y0110368D01*
X0013267Y0108770D02*
X0008833Y0108770D01*
X0008833Y0107171D02*
X0013930Y0107171D01*
X0015415Y0105573D02*
X0008833Y0105573D01*
X0008833Y0103974D02*
X0015229Y0103974D01*
X0013852Y0102376D02*
X0008833Y0102376D01*
X0008833Y0100777D02*
X0013233Y0100777D01*
X0013233Y0099179D02*
X0008833Y0099179D01*
X0008833Y0097580D02*
X0013760Y0097580D01*
X0015006Y0095982D02*
X0008833Y0095982D01*
X0008833Y0087989D02*
X0034599Y0087989D01*
X0036198Y0086391D02*
X0008833Y0086391D01*
X0008833Y0084792D02*
X0037796Y0084792D01*
X0039395Y0083194D02*
X0008833Y0083194D01*
X0031333Y0094367D02*
X0031333Y0141867D01*
X0031333Y0207367D01*
X0043833Y0219867D01*
X0173833Y0219867D01*
X0178833Y0214867D01*
X0182114Y0214272D02*
X0184539Y0214272D01*
X0183091Y0212673D02*
X0182114Y0212673D01*
X0182456Y0211075D02*
X0175737Y0211075D01*
X0175552Y0212673D02*
X0174138Y0212673D01*
X0175552Y0214272D02*
X0172540Y0214272D01*
X0171333Y0212367D02*
X0173833Y0209867D01*
X0173833Y0204867D01*
X0178833Y0199867D01*
X0189833Y0199867D01*
X0188039Y0195090D02*
X0136033Y0195090D01*
X0136033Y0196688D02*
X0185799Y0196688D01*
X0184245Y0193491D02*
X0136033Y0193491D01*
X0136033Y0191892D02*
X0183152Y0191892D01*
X0182733Y0190294D02*
X0136033Y0190294D01*
X0136033Y0188695D02*
X0182798Y0188695D01*
X0183460Y0187097D02*
X0136033Y0187097D01*
X0136033Y0185498D02*
X0185052Y0185498D01*
X0186654Y0183900D02*
X0136033Y0183900D01*
X0136033Y0182301D02*
X0185322Y0182301D01*
X0184733Y0180703D02*
X0136033Y0180703D01*
X0136033Y0179104D02*
X0184733Y0179104D01*
X0185291Y0177506D02*
X0136033Y0177506D01*
X0136033Y0175907D02*
X0186580Y0175907D01*
X0184590Y0174309D02*
X0172114Y0174309D01*
X0172114Y0174067D02*
X0172114Y0174828D01*
X0171294Y0175648D01*
X0166372Y0175648D01*
X0165552Y0174828D01*
X0165552Y0169906D01*
X0166372Y0169086D01*
X0171294Y0169086D01*
X0171633Y0169425D01*
X0171633Y0125778D01*
X0165922Y0120067D01*
X0164633Y0118778D01*
X0164633Y0101278D01*
X0163922Y0100567D01*
X0162246Y0100567D01*
X0163157Y0101478D01*
X0163933Y0103352D01*
X0163933Y0105381D01*
X0163157Y0107256D01*
X0161722Y0108690D01*
X0159848Y0109467D01*
X0157819Y0109467D01*
X0155944Y0108690D01*
X0154510Y0107256D01*
X0153933Y0105864D01*
X0153933Y0106381D01*
X0153157Y0108256D01*
X0151722Y0109690D01*
X0149848Y0110467D01*
X0147819Y0110467D01*
X0145944Y0109690D01*
X0144510Y0108256D01*
X0143733Y0106381D01*
X0143733Y0105864D01*
X0143157Y0107256D01*
X0141722Y0108690D01*
X0139848Y0109467D01*
X0137819Y0109467D01*
X0135944Y0108690D01*
X0134510Y0107256D01*
X0133933Y0105864D01*
X0133933Y0106381D01*
X0133157Y0108256D01*
X0131722Y0109690D01*
X0129848Y0110467D01*
X0127819Y0110467D01*
X0125944Y0109690D01*
X0124510Y0108256D01*
X0123733Y0106381D01*
X0123733Y0105864D01*
X0123157Y0107256D01*
X0121722Y0108690D01*
X0119848Y0109467D01*
X0117819Y0109467D01*
X0115944Y0108690D01*
X0114510Y0107256D01*
X0113933Y0105864D01*
X0113933Y0106381D01*
X0113157Y0108256D01*
X0111722Y0109690D01*
X0109848Y0110467D01*
X0107819Y0110467D01*
X0105944Y0109690D01*
X0104510Y0108256D01*
X0103733Y0106381D01*
X0103733Y0105864D01*
X0103157Y0107256D01*
X0101722Y0108690D01*
X0099848Y0109467D01*
X0097819Y0109467D01*
X0095944Y0108690D01*
X0094510Y0107256D01*
X0093933Y0105864D01*
X0093933Y0106381D01*
X0093157Y0108256D01*
X0091722Y0109690D01*
X0089848Y0110467D01*
X0087819Y0110467D01*
X0085944Y0109690D01*
X0084510Y0108256D01*
X0083733Y0106381D01*
X0083733Y0105864D01*
X0083157Y0107256D01*
X0081722Y0108690D01*
X0079848Y0109467D01*
X0077819Y0109467D01*
X0075944Y0108690D01*
X0074510Y0107256D01*
X0073933Y0105864D01*
X0073933Y0106381D01*
X0073157Y0108256D01*
X0071722Y0109690D01*
X0069848Y0110467D01*
X0067819Y0110467D01*
X0065944Y0109690D01*
X0064510Y0108256D01*
X0063844Y0106648D01*
X0063537Y0107249D01*
X0063028Y0107950D01*
X0062416Y0108562D01*
X0061716Y0109071D01*
X0060945Y0109464D01*
X0060121Y0109731D01*
X0059266Y0109867D01*
X0059033Y0109867D01*
X0059033Y0104567D01*
X0058633Y0104567D01*
X0058633Y0109867D01*
X0058400Y0109867D01*
X0057545Y0109731D01*
X0056722Y0109464D01*
X0055951Y0109071D01*
X0055250Y0108562D01*
X0054638Y0107950D01*
X0054129Y0107249D01*
X0053823Y0106648D01*
X0053157Y0108256D01*
X0051722Y0109690D01*
X0049848Y0110467D01*
X0047819Y0110467D01*
X0045944Y0109690D01*
X0044510Y0108256D01*
X0043733Y0106381D01*
X0043733Y0104352D01*
X0044510Y0102478D01*
X0045944Y0101043D01*
X0047819Y0100267D01*
X0049848Y0100267D01*
X0051722Y0101043D01*
X0053157Y0102478D01*
X0053451Y0103189D01*
X0053469Y0103079D01*
X0053736Y0102255D01*
X0054129Y0101484D01*
X0054638Y0100784D01*
X0055250Y0100171D01*
X0055951Y0099663D01*
X0056722Y0099270D01*
X0057545Y0099002D01*
X0058400Y0098867D01*
X0058633Y0098867D01*
X0058633Y0104167D01*
X0059033Y0104167D01*
X0059033Y0098867D01*
X0059266Y0098867D01*
X0060121Y0099002D01*
X0060945Y0099270D01*
X0061716Y0099663D01*
X0062416Y0100171D01*
X0063028Y0100784D01*
X0063537Y0101484D01*
X0063930Y0102255D01*
X0064198Y0103079D01*
X0064215Y0103189D01*
X0064510Y0102478D01*
X0065944Y0101043D01*
X0067819Y0100267D01*
X0069848Y0100267D01*
X0071722Y0101043D01*
X0073157Y0102478D01*
X0073733Y0103869D01*
X0073733Y0103352D01*
X0074510Y0101478D01*
X0075944Y0100043D01*
X0077819Y0099267D01*
X0079848Y0099267D01*
X0081722Y0100043D01*
X0083157Y0101478D01*
X0083933Y0103352D01*
X0083933Y0103869D01*
X0084510Y0102478D01*
X0085944Y0101043D01*
X0087819Y0100267D01*
X0089848Y0100267D01*
X0091722Y0101043D01*
X0093157Y0102478D01*
X0093733Y0103869D01*
X0093733Y0103352D01*
X0094510Y0101478D01*
X0095944Y0100043D01*
X0097819Y0099267D01*
X0099848Y0099267D01*
X0101722Y0100043D01*
X0103157Y0101478D01*
X0103933Y0103352D01*
X0103933Y0103869D01*
X0104510Y0102478D01*
X0105944Y0101043D01*
X0107819Y0100267D01*
X0109848Y0100267D01*
X0111722Y0101043D01*
X0113157Y0102478D01*
X0113733Y0103869D01*
X0113733Y0103352D01*
X0114510Y0101478D01*
X0115944Y0100043D01*
X0117819Y0099267D01*
X0119848Y0099267D01*
X0121722Y0100043D01*
X0123157Y0101478D01*
X0123933Y0103352D01*
X0123933Y0103869D01*
X0124510Y0102478D01*
X0125944Y0101043D01*
X0127819Y0100267D01*
X0129848Y0100267D01*
X0131722Y0101043D01*
X0133157Y0102478D01*
X0133733Y0103869D01*
X0133733Y0103352D01*
X0134510Y0101478D01*
X0135944Y0100043D01*
X0137819Y0099267D01*
X0139848Y0099267D01*
X0141722Y0100043D01*
X0143157Y0101478D01*
X0143933Y0103352D01*
X0143933Y0103869D01*
X0144510Y0102478D01*
X0145944Y0101043D01*
X0146133Y0100965D01*
X0146133Y0098955D01*
X0147422Y0097667D01*
X0148922Y0096167D01*
X0165745Y0096167D01*
X0169033Y0099455D01*
X0169033Y0116955D01*
X0176033Y0123955D01*
X0176033Y0171778D01*
X0175033Y0172778D01*
X0173745Y0174067D01*
X0172114Y0174067D01*
X0172833Y0171867D02*
X0169333Y0171867D01*
X0168833Y0172367D01*
X0165945Y0169513D02*
X0136033Y0169513D01*
X0136033Y0167915D02*
X0171633Y0167915D01*
X0171633Y0166316D02*
X0136033Y0166316D01*
X0136033Y0164718D02*
X0171633Y0164718D01*
X0171633Y0163119D02*
X0136033Y0163119D01*
X0136033Y0161521D02*
X0171633Y0161521D01*
X0171633Y0159922D02*
X0136033Y0159922D01*
X0136033Y0158324D02*
X0171633Y0158324D01*
X0171633Y0156725D02*
X0144012Y0156725D01*
X0143653Y0157085D02*
X0141650Y0157915D01*
X0139482Y0157915D01*
X0137479Y0157085D01*
X0136033Y0155640D01*
X0136033Y0198955D01*
X0136268Y0199190D01*
X0136372Y0199086D01*
X0141294Y0199086D01*
X0142114Y0199906D01*
X0142114Y0204828D01*
X0141294Y0205648D01*
X0136372Y0205648D01*
X0135552Y0204828D01*
X0135552Y0204567D01*
X0135422Y0204567D01*
X0132922Y0202067D01*
X0131633Y0200778D01*
X0131633Y0145778D01*
X0119003Y0133148D01*
X0116372Y0133148D01*
X0115552Y0132328D01*
X0115552Y0127406D01*
X0115891Y0127067D01*
X0111528Y0127067D01*
X0111716Y0127163D01*
X0112416Y0127671D01*
X0113028Y0128284D01*
X0113537Y0128984D01*
X0113930Y0129755D01*
X0114198Y0130579D01*
X0114333Y0131434D01*
X0114333Y0131667D01*
X0109033Y0131667D01*
X0109033Y0132067D01*
X0108633Y0132067D01*
X0108633Y0137367D01*
X0108400Y0137367D01*
X0107545Y0137231D01*
X0106722Y0136964D01*
X0105951Y0136571D01*
X0105250Y0136062D01*
X0104638Y0135450D01*
X0104129Y0134749D01*
X0103736Y0133978D01*
X0103623Y0133630D01*
X0103157Y0134756D01*
X0101722Y0136190D01*
X0099848Y0136967D01*
X0097819Y0136967D01*
X0095944Y0136190D01*
X0094510Y0134756D01*
X0093833Y0133123D01*
X0093157Y0134756D01*
X0091722Y0136190D01*
X0089848Y0136967D01*
X0087819Y0136967D01*
X0085944Y0136190D01*
X0084510Y0134756D01*
X0083833Y0133123D01*
X0083157Y0134756D01*
X0081722Y0136190D01*
X0079848Y0136967D01*
X0077819Y0136967D01*
X0075944Y0136190D01*
X0074510Y0134756D01*
X0073733Y0132881D01*
X0073733Y0130852D01*
X0074510Y0128978D01*
X0075944Y0127543D01*
X0077095Y0127067D01*
X0052922Y0127067D01*
X0051633Y0125778D01*
X0046971Y0121115D01*
X0045944Y0120690D01*
X0044510Y0119256D01*
X0043733Y0117381D01*
X0043733Y0115352D01*
X0044510Y0113478D01*
X0045944Y0112043D01*
X0047819Y0111267D01*
X0049848Y0111267D01*
X0051722Y0112043D01*
X0053157Y0113478D01*
X0053623Y0114603D01*
X0053736Y0114255D01*
X0054129Y0113484D01*
X0054638Y0112784D01*
X0055250Y0112171D01*
X0055951Y0111663D01*
X0056722Y0111270D01*
X0057545Y0111002D01*
X0058400Y0110867D01*
X0058633Y0110867D01*
X0058633Y0116167D01*
X0059033Y0116167D01*
X0059033Y0110867D01*
X0059266Y0110867D01*
X0060121Y0111002D01*
X0060945Y0111270D01*
X0061716Y0111663D01*
X0062416Y0112171D01*
X0063028Y0112784D01*
X0063537Y0113484D01*
X0063930Y0114255D01*
X0064043Y0114603D01*
X0064510Y0113478D01*
X0065944Y0112043D01*
X0067819Y0111267D01*
X0069848Y0111267D01*
X0071722Y0112043D01*
X0073157Y0113478D01*
X0073833Y0115111D01*
X0074510Y0113478D01*
X0075944Y0112043D01*
X0077819Y0111267D01*
X0079848Y0111267D01*
X0081722Y0112043D01*
X0083157Y0113478D01*
X0083833Y0115111D01*
X0084510Y0113478D01*
X0085944Y0112043D01*
X0087819Y0111267D01*
X0089848Y0111267D01*
X0091722Y0112043D01*
X0093157Y0113478D01*
X0093833Y0115111D01*
X0094510Y0113478D01*
X0095944Y0112043D01*
X0097819Y0111267D01*
X0099848Y0111267D01*
X0101722Y0112043D01*
X0103157Y0113478D01*
X0103833Y0115111D01*
X0104510Y0113478D01*
X0105944Y0112043D01*
X0107819Y0111267D01*
X0109848Y0111267D01*
X0111722Y0112043D01*
X0113157Y0113478D01*
X0113833Y0115111D01*
X0114510Y0113478D01*
X0115944Y0112043D01*
X0117819Y0111267D01*
X0119848Y0111267D01*
X0121722Y0112043D01*
X0123157Y0113478D01*
X0123833Y0115111D01*
X0124510Y0113478D01*
X0125944Y0112043D01*
X0127819Y0111267D01*
X0129848Y0111267D01*
X0131722Y0112043D01*
X0133157Y0113478D01*
X0133833Y0115111D01*
X0134510Y0113478D01*
X0135944Y0112043D01*
X0137819Y0111267D01*
X0139848Y0111267D01*
X0141722Y0112043D01*
X0143157Y0113478D01*
X0143833Y0115111D01*
X0144510Y0113478D01*
X0145944Y0112043D01*
X0147819Y0111267D01*
X0149848Y0111267D01*
X0151722Y0112043D01*
X0153157Y0113478D01*
X0153833Y0115111D01*
X0154510Y0113478D01*
X0155944Y0112043D01*
X0157819Y0111267D01*
X0159848Y0111267D01*
X0161722Y0112043D01*
X0163157Y0113478D01*
X0163933Y0115352D01*
X0163933Y0117381D01*
X0163157Y0119256D01*
X0161722Y0120690D01*
X0159848Y0121467D01*
X0158620Y0121467D01*
X0159120Y0121967D01*
X0160233Y0123080D01*
X0160233Y0126393D01*
X0162083Y0128243D01*
X0164259Y0126067D01*
X0167407Y0126067D01*
X0169633Y0128293D01*
X0169633Y0131441D01*
X0167407Y0133667D01*
X0164259Y0133667D01*
X0162083Y0131491D01*
X0159907Y0133667D01*
X0156759Y0133667D01*
X0154533Y0131441D01*
X0154533Y0128293D01*
X0156433Y0126393D01*
X0156433Y0124654D01*
X0156046Y0124267D01*
X0125845Y0124267D01*
X0127645Y0126067D01*
X0129907Y0126067D01*
X0132133Y0128293D01*
X0132133Y0131441D01*
X0129907Y0133667D01*
X0126759Y0133667D01*
X0124533Y0131441D01*
X0124533Y0129178D01*
X0122422Y0127067D01*
X0121775Y0127067D01*
X0122114Y0127406D01*
X0122114Y0130036D01*
X0136033Y0143955D01*
X0136033Y0149290D01*
X0137479Y0147845D01*
X0139482Y0147015D01*
X0141650Y0147015D01*
X0143653Y0147845D01*
X0145186Y0149378D01*
X0146015Y0151381D01*
X0146015Y0153549D01*
X0145186Y0155552D01*
X0143653Y0157085D01*
X0145362Y0155127D02*
X0171633Y0155127D01*
X0171633Y0153528D02*
X0146015Y0153528D01*
X0146015Y0151930D02*
X0171633Y0151930D01*
X0171633Y0150331D02*
X0145580Y0150331D01*
X0144540Y0148733D02*
X0171633Y0148733D01*
X0171633Y0147134D02*
X0141936Y0147134D01*
X0139195Y0147134D02*
X0136033Y0147134D01*
X0136033Y0145536D02*
X0171633Y0145536D01*
X0171633Y0143937D02*
X0136015Y0143937D01*
X0134417Y0142339D02*
X0171633Y0142339D01*
X0171633Y0140740D02*
X0132818Y0140740D01*
X0131220Y0139142D02*
X0171633Y0139142D01*
X0171633Y0137543D02*
X0129621Y0137543D01*
X0128023Y0135945D02*
X0171633Y0135945D01*
X0171633Y0134346D02*
X0126424Y0134346D01*
X0125840Y0132748D02*
X0124826Y0132748D01*
X0124533Y0131149D02*
X0123227Y0131149D01*
X0122114Y0129551D02*
X0124533Y0129551D01*
X0123307Y0127952D02*
X0122114Y0127952D01*
X0123333Y0124867D02*
X0128333Y0129867D01*
X0130194Y0126354D02*
X0156433Y0126354D01*
X0156433Y0124755D02*
X0126333Y0124755D01*
X0123333Y0124867D02*
X0053833Y0124867D01*
X0048833Y0119867D01*
X0048833Y0116367D01*
X0045214Y0119959D02*
X0041033Y0119959D01*
X0041033Y0118361D02*
X0044139Y0118361D01*
X0043733Y0116762D02*
X0041033Y0116762D01*
X0041033Y0115164D02*
X0043811Y0115164D01*
X0044473Y0113565D02*
X0041033Y0113565D01*
X0041033Y0111967D02*
X0046128Y0111967D01*
X0047582Y0110368D02*
X0041033Y0110368D01*
X0041033Y0108770D02*
X0045024Y0108770D01*
X0044061Y0107171D02*
X0041033Y0107171D01*
X0041033Y0105573D02*
X0043733Y0105573D01*
X0043890Y0103974D02*
X0041033Y0103974D01*
X0041033Y0102376D02*
X0044612Y0102376D01*
X0046586Y0100777D02*
X0041033Y0100777D01*
X0041033Y0099179D02*
X0057001Y0099179D01*
X0058633Y0099179D02*
X0059033Y0099179D01*
X0059033Y0100777D02*
X0058633Y0100777D01*
X0058633Y0102376D02*
X0059033Y0102376D01*
X0059033Y0103974D02*
X0058633Y0103974D01*
X0058633Y0105573D02*
X0059033Y0105573D01*
X0059033Y0107171D02*
X0058633Y0107171D01*
X0058633Y0108770D02*
X0059033Y0108770D01*
X0062130Y0108770D02*
X0065024Y0108770D01*
X0064061Y0107171D02*
X0063577Y0107171D01*
X0063970Y0102376D02*
X0064612Y0102376D01*
X0063022Y0100777D02*
X0066586Y0100777D01*
X0071081Y0100777D02*
X0075210Y0100777D01*
X0074138Y0102376D02*
X0073055Y0102376D01*
X0073606Y0107171D02*
X0074475Y0107171D01*
X0076137Y0108770D02*
X0072643Y0108770D01*
X0071538Y0111967D02*
X0076128Y0111967D01*
X0074473Y0113565D02*
X0073193Y0113565D01*
X0073833Y0117623D02*
X0073157Y0119256D01*
X0071722Y0120690D01*
X0069848Y0121467D01*
X0067819Y0121467D01*
X0065944Y0120690D01*
X0064510Y0119256D01*
X0064043Y0118130D01*
X0063930Y0118478D01*
X0063537Y0119249D01*
X0063028Y0119950D01*
X0062416Y0120562D01*
X0061716Y0121071D01*
X0060945Y0121464D01*
X0060121Y0121731D01*
X0059266Y0121867D01*
X0059033Y0121867D01*
X0059033Y0116567D01*
X0058633Y0116567D01*
X0058633Y0121867D01*
X0058400Y0121867D01*
X0057545Y0121731D01*
X0056722Y0121464D01*
X0055951Y0121071D01*
X0055250Y0120562D01*
X0054638Y0119950D01*
X0054129Y0119249D01*
X0053736Y0118478D01*
X0053623Y0118130D01*
X0053157Y0119256D01*
X0052245Y0120167D01*
X0054745Y0122667D01*
X0086946Y0122667D01*
X0086933Y0122654D01*
X0086933Y0121100D01*
X0085944Y0120690D01*
X0084510Y0119256D01*
X0083833Y0117623D01*
X0083157Y0119256D01*
X0081722Y0120690D01*
X0079848Y0121467D01*
X0077819Y0121467D01*
X0075944Y0120690D01*
X0074510Y0119256D01*
X0073833Y0117623D01*
X0073527Y0118361D02*
X0074139Y0118361D01*
X0075214Y0119959D02*
X0072453Y0119959D01*
X0065214Y0119959D02*
X0063019Y0119959D01*
X0063968Y0118361D02*
X0064139Y0118361D01*
X0060654Y0121558D02*
X0086933Y0121558D01*
X0085214Y0119959D02*
X0082453Y0119959D01*
X0083527Y0118361D02*
X0084139Y0118361D01*
X0084473Y0113565D02*
X0083193Y0113565D01*
X0081538Y0111967D02*
X0086128Y0111967D01*
X0087582Y0110368D02*
X0070085Y0110368D01*
X0067582Y0110368D02*
X0050085Y0110368D01*
X0051538Y0111967D02*
X0055532Y0111967D01*
X0054088Y0113565D02*
X0053193Y0113565D01*
X0053527Y0118361D02*
X0053698Y0118361D01*
X0054648Y0119959D02*
X0052453Y0119959D01*
X0053636Y0121558D02*
X0057012Y0121558D01*
X0058633Y0121558D02*
X0059033Y0121558D01*
X0059033Y0119959D02*
X0058633Y0119959D01*
X0058633Y0118361D02*
X0059033Y0118361D01*
X0059033Y0116762D02*
X0058633Y0116762D01*
X0058633Y0115164D02*
X0059033Y0115164D01*
X0059033Y0113565D02*
X0058633Y0113565D01*
X0058633Y0111967D02*
X0059033Y0111967D01*
X0062135Y0111967D02*
X0066128Y0111967D01*
X0064473Y0113565D02*
X0063579Y0113565D01*
X0055537Y0108770D02*
X0052643Y0108770D01*
X0053606Y0107171D02*
X0054090Y0107171D01*
X0053697Y0102376D02*
X0053055Y0102376D01*
X0054644Y0100777D02*
X0051081Y0100777D01*
X0041862Y0097580D02*
X0080334Y0097580D01*
X0078896Y0095982D02*
X0042114Y0095982D01*
X0042114Y0094383D02*
X0078234Y0094383D01*
X0078233Y0092785D02*
X0042114Y0092785D01*
X0038833Y0094867D02*
X0038833Y0122867D01*
X0040833Y0124867D01*
X0044833Y0124867D01*
X0042177Y0127952D02*
X0041033Y0127952D01*
X0041033Y0129551D02*
X0074272Y0129551D01*
X0073733Y0131149D02*
X0041033Y0131149D01*
X0041033Y0132748D02*
X0073733Y0132748D01*
X0074340Y0134346D02*
X0041033Y0134346D01*
X0041033Y0135945D02*
X0075699Y0135945D01*
X0081968Y0135945D02*
X0085699Y0135945D01*
X0084340Y0134346D02*
X0083327Y0134346D01*
X0091968Y0135945D02*
X0095699Y0135945D01*
X0094340Y0134346D02*
X0093327Y0134346D01*
X0101968Y0135945D02*
X0105133Y0135945D01*
X0103924Y0134346D02*
X0103327Y0134346D01*
X0108633Y0134346D02*
X0109033Y0134346D01*
X0109033Y0132748D02*
X0108633Y0132748D01*
X0109033Y0132067D02*
X0109033Y0137367D01*
X0109266Y0137367D01*
X0110121Y0137231D01*
X0110945Y0136964D01*
X0111716Y0136571D01*
X0112416Y0136062D01*
X0113028Y0135450D01*
X0113537Y0134749D01*
X0113930Y0133978D01*
X0114198Y0133155D01*
X0114333Y0132300D01*
X0114333Y0132067D01*
X0109033Y0132067D01*
X0109033Y0135945D02*
X0108633Y0135945D01*
X0112534Y0135945D02*
X0121800Y0135945D01*
X0123398Y0137543D02*
X0041033Y0137543D01*
X0041033Y0139142D02*
X0124997Y0139142D01*
X0126596Y0140740D02*
X0041033Y0140740D01*
X0041033Y0142339D02*
X0128194Y0142339D01*
X0129793Y0143937D02*
X0041033Y0143937D01*
X0041033Y0145536D02*
X0131391Y0145536D01*
X0131633Y0147134D02*
X0041033Y0147134D01*
X0041033Y0148733D02*
X0131633Y0148733D01*
X0131633Y0150331D02*
X0041033Y0150331D01*
X0041033Y0151930D02*
X0131633Y0151930D01*
X0131633Y0153528D02*
X0041033Y0153528D01*
X0041033Y0155127D02*
X0131633Y0155127D01*
X0131633Y0156725D02*
X0041033Y0156725D01*
X0041033Y0158324D02*
X0131633Y0158324D01*
X0131633Y0159922D02*
X0041033Y0159922D01*
X0041033Y0161521D02*
X0131633Y0161521D01*
X0131633Y0163119D02*
X0041033Y0163119D01*
X0041033Y0164718D02*
X0131633Y0164718D01*
X0131633Y0166316D02*
X0041033Y0166316D01*
X0041033Y0167915D02*
X0131633Y0167915D01*
X0131633Y0169513D02*
X0041033Y0169513D01*
X0041033Y0171112D02*
X0131633Y0171112D01*
X0131633Y0172710D02*
X0041033Y0172710D01*
X0041033Y0174309D02*
X0131633Y0174309D01*
X0131633Y0175907D02*
X0041033Y0175907D01*
X0041033Y0177506D02*
X0131633Y0177506D01*
X0131633Y0179104D02*
X0041033Y0179104D01*
X0041033Y0180703D02*
X0131633Y0180703D01*
X0131633Y0182301D02*
X0041033Y0182301D01*
X0041033Y0183900D02*
X0131633Y0183900D01*
X0131633Y0185498D02*
X0041033Y0185498D01*
X0041033Y0187097D02*
X0131633Y0187097D01*
X0131633Y0188695D02*
X0041033Y0188695D01*
X0041033Y0190294D02*
X0131633Y0190294D01*
X0131633Y0191892D02*
X0041033Y0191892D01*
X0041033Y0193491D02*
X0131633Y0193491D01*
X0131633Y0195090D02*
X0041033Y0195090D01*
X0041033Y0196688D02*
X0131633Y0196688D01*
X0131633Y0198287D02*
X0041033Y0198287D01*
X0041033Y0199885D02*
X0131633Y0199885D01*
X0132339Y0201484D02*
X0041033Y0201484D01*
X0041033Y0203082D02*
X0133937Y0203082D01*
X0135552Y0204681D02*
X0041033Y0204681D01*
X0041033Y0206279D02*
X0171633Y0206279D01*
X0171633Y0204681D02*
X0142114Y0204681D01*
X0142114Y0203082D02*
X0172507Y0203082D01*
X0174105Y0201484D02*
X0142114Y0201484D01*
X0142094Y0199885D02*
X0175704Y0199885D01*
X0177302Y0198287D02*
X0136033Y0198287D01*
X0133833Y0199867D02*
X0136333Y0202367D01*
X0138833Y0202367D01*
X0133833Y0199867D02*
X0133833Y0144867D01*
X0118833Y0129867D01*
X0115552Y0129551D02*
X0113826Y0129551D01*
X0114288Y0131149D02*
X0115552Y0131149D01*
X0115972Y0132748D02*
X0114262Y0132748D01*
X0113743Y0134346D02*
X0120201Y0134346D01*
X0115552Y0127952D02*
X0112697Y0127952D01*
X0113193Y0113565D02*
X0114473Y0113565D01*
X0116128Y0111967D02*
X0111538Y0111967D01*
X0110085Y0110368D02*
X0127582Y0110368D01*
X0126128Y0111967D02*
X0121538Y0111967D01*
X0123193Y0113565D02*
X0124473Y0113565D01*
X0125024Y0108770D02*
X0121530Y0108770D01*
X0123192Y0107171D02*
X0124061Y0107171D01*
X0123529Y0102376D02*
X0124612Y0102376D01*
X0126586Y0100777D02*
X0122456Y0100777D01*
X0123319Y0098467D02*
X0121444Y0097690D01*
X0120010Y0096256D01*
X0119233Y0094381D01*
X0119233Y0092352D01*
X0120010Y0090478D01*
X0121444Y0089043D01*
X0123319Y0088267D01*
X0125348Y0088267D01*
X0127222Y0089043D01*
X0128657Y0090478D01*
X0129333Y0092111D01*
X0130010Y0090478D01*
X0131444Y0089043D01*
X0133319Y0088267D01*
X0135348Y0088267D01*
X0137222Y0089043D01*
X0138657Y0090478D01*
X0139433Y0092352D01*
X0139433Y0094381D01*
X0138657Y0096256D01*
X0137222Y0097690D01*
X0135348Y0098467D01*
X0133319Y0098467D01*
X0131444Y0097690D01*
X0130010Y0096256D01*
X0129333Y0094623D01*
X0128657Y0096256D01*
X0127222Y0097690D01*
X0125348Y0098467D01*
X0123319Y0098467D01*
X0121334Y0097580D02*
X0096332Y0097580D01*
X0097770Y0095982D02*
X0119896Y0095982D01*
X0119234Y0094383D02*
X0098432Y0094383D01*
X0098433Y0092785D02*
X0119233Y0092785D01*
X0119716Y0091186D02*
X0097950Y0091186D01*
X0096767Y0089588D02*
X0120900Y0089588D01*
X0127767Y0089588D02*
X0130900Y0089588D01*
X0129716Y0091186D02*
X0128950Y0091186D01*
X0128770Y0095982D02*
X0129896Y0095982D01*
X0131334Y0097580D02*
X0127332Y0097580D01*
X0131081Y0100777D02*
X0135210Y0100777D01*
X0134138Y0102376D02*
X0133055Y0102376D01*
X0133606Y0107171D02*
X0134475Y0107171D01*
X0136137Y0108770D02*
X0132643Y0108770D01*
X0130085Y0110368D02*
X0147582Y0110368D01*
X0146128Y0111967D02*
X0141538Y0111967D01*
X0143193Y0113565D02*
X0144473Y0113565D01*
X0145024Y0108770D02*
X0141530Y0108770D01*
X0143192Y0107171D02*
X0144061Y0107171D01*
X0143529Y0102376D02*
X0144612Y0102376D01*
X0146133Y0100777D02*
X0142456Y0100777D01*
X0146133Y0099179D02*
X0060665Y0099179D01*
X0078716Y0091186D02*
X0037625Y0091186D01*
X0039223Y0089588D02*
X0079900Y0089588D01*
X0086767Y0089588D02*
X0089900Y0089588D01*
X0088845Y0087989D02*
X0040822Y0087989D01*
X0040833Y0084867D02*
X0031333Y0094367D01*
X0033533Y0095982D02*
X0035552Y0095982D01*
X0035552Y0094383D02*
X0034428Y0094383D01*
X0033533Y0097580D02*
X0035805Y0097580D01*
X0036633Y0099179D02*
X0033533Y0099179D01*
X0033533Y0100777D02*
X0036633Y0100777D01*
X0036633Y0102376D02*
X0033533Y0102376D01*
X0033533Y0103974D02*
X0036633Y0103974D01*
X0036633Y0105573D02*
X0033533Y0105573D01*
X0033533Y0107171D02*
X0036633Y0107171D01*
X0036633Y0108770D02*
X0033533Y0108770D01*
X0033533Y0110368D02*
X0036633Y0110368D01*
X0036633Y0111967D02*
X0033533Y0111967D01*
X0033533Y0113565D02*
X0036633Y0113565D01*
X0036633Y0115164D02*
X0033533Y0115164D01*
X0033533Y0116762D02*
X0036633Y0116762D01*
X0036633Y0118361D02*
X0033533Y0118361D01*
X0033533Y0119959D02*
X0036633Y0119959D01*
X0036633Y0121558D02*
X0033533Y0121558D01*
X0033533Y0123156D02*
X0036633Y0123156D01*
X0036633Y0124755D02*
X0033533Y0124755D01*
X0033533Y0126354D02*
X0036633Y0126354D01*
X0036633Y0127952D02*
X0033533Y0127952D01*
X0033533Y0129551D02*
X0036633Y0129551D01*
X0036633Y0131149D02*
X0033533Y0131149D01*
X0033533Y0132748D02*
X0036633Y0132748D01*
X0036633Y0134346D02*
X0033533Y0134346D01*
X0033533Y0135945D02*
X0036633Y0135945D01*
X0036633Y0137543D02*
X0033533Y0137543D01*
X0034350Y0139142D02*
X0036633Y0139142D01*
X0036633Y0140740D02*
X0034614Y0140740D01*
X0034614Y0142339D02*
X0036633Y0142339D01*
X0036633Y0143937D02*
X0034614Y0143937D01*
X0033533Y0145536D02*
X0036633Y0145536D01*
X0036633Y0147134D02*
X0033533Y0147134D01*
X0033533Y0148733D02*
X0036633Y0148733D01*
X0036633Y0150331D02*
X0033533Y0150331D01*
X0033533Y0151930D02*
X0036633Y0151930D01*
X0036633Y0153528D02*
X0033533Y0153528D01*
X0033533Y0155127D02*
X0036633Y0155127D01*
X0036633Y0156725D02*
X0033533Y0156725D01*
X0033533Y0158324D02*
X0036633Y0158324D01*
X0036633Y0159922D02*
X0033533Y0159922D01*
X0033533Y0161521D02*
X0036633Y0161521D01*
X0036633Y0163119D02*
X0033533Y0163119D01*
X0033533Y0164718D02*
X0036633Y0164718D01*
X0036633Y0166316D02*
X0033533Y0166316D01*
X0033533Y0167915D02*
X0036633Y0167915D01*
X0036633Y0169513D02*
X0033533Y0169513D01*
X0033533Y0171112D02*
X0036633Y0171112D01*
X0036633Y0172710D02*
X0033533Y0172710D01*
X0033533Y0174309D02*
X0036633Y0174309D01*
X0036633Y0175907D02*
X0033533Y0175907D01*
X0033533Y0177506D02*
X0036633Y0177506D01*
X0036633Y0179104D02*
X0033533Y0179104D01*
X0033533Y0180703D02*
X0036633Y0180703D01*
X0036633Y0182301D02*
X0033533Y0182301D01*
X0033533Y0183900D02*
X0036633Y0183900D01*
X0036633Y0185498D02*
X0033533Y0185498D01*
X0033533Y0187097D02*
X0036633Y0187097D01*
X0036633Y0188695D02*
X0033533Y0188695D01*
X0033533Y0190294D02*
X0036633Y0190294D01*
X0036633Y0191892D02*
X0033533Y0191892D01*
X0033533Y0193491D02*
X0036633Y0193491D01*
X0036633Y0195090D02*
X0033533Y0195090D01*
X0033533Y0196688D02*
X0036633Y0196688D01*
X0036633Y0198287D02*
X0033533Y0198287D01*
X0033533Y0199885D02*
X0036633Y0199885D01*
X0036633Y0201484D02*
X0033533Y0201484D01*
X0033533Y0203082D02*
X0036633Y0203082D01*
X0036633Y0204681D02*
X0033533Y0204681D01*
X0033533Y0206279D02*
X0036633Y0206279D01*
X0036633Y0207878D02*
X0034956Y0207878D01*
X0036554Y0209476D02*
X0037832Y0209476D01*
X0038153Y0211075D02*
X0039430Y0211075D01*
X0039751Y0212673D02*
X0041029Y0212673D01*
X0041350Y0214272D02*
X0042627Y0214272D01*
X0042948Y0215870D02*
X0174719Y0215870D01*
X0173120Y0217469D02*
X0044547Y0217469D01*
X0041521Y0220666D02*
X0008833Y0220666D01*
X0008833Y0222264D02*
X0185306Y0222264D01*
X0184733Y0220666D02*
X0176146Y0220666D01*
X0177744Y0219067D02*
X0184733Y0219067D01*
X0185306Y0217469D02*
X0181973Y0217469D01*
X0182114Y0215870D02*
X0186617Y0215870D01*
X0191128Y0214272D02*
X0198833Y0214272D01*
X0198833Y0215870D02*
X0193049Y0215870D01*
X0194360Y0217469D02*
X0198833Y0217469D01*
X0198833Y0219067D02*
X0194933Y0219067D01*
X0194933Y0220666D02*
X0198833Y0220666D01*
X0198833Y0222264D02*
X0194360Y0222264D01*
X0193050Y0223863D02*
X0198833Y0223863D01*
X0198833Y0225461D02*
X0008833Y0225461D01*
X0008833Y0223863D02*
X0186617Y0223863D01*
X0198833Y0227060D02*
X0008833Y0227060D01*
X0008833Y0228658D02*
X0198833Y0228658D01*
X0198833Y0230257D02*
X0008833Y0230257D01*
X0008833Y0231855D02*
X0137931Y0231855D01*
X0138036Y0231750D02*
X0139677Y0231071D01*
X0141454Y0231071D01*
X0143095Y0231750D01*
X0144351Y0233007D01*
X0145031Y0234648D01*
X0145031Y0236424D01*
X0144351Y0238065D01*
X0143095Y0239321D01*
X0141454Y0240001D01*
X0139677Y0240001D01*
X0138036Y0239321D01*
X0136780Y0238065D01*
X0136100Y0236424D01*
X0136100Y0234648D01*
X0136780Y0233007D01*
X0138036Y0231750D01*
X0136595Y0233454D02*
X0008833Y0233454D01*
X0008833Y0235052D02*
X0136100Y0235052D01*
X0136194Y0236651D02*
X0008833Y0236651D01*
X0008833Y0238249D02*
X0136964Y0238249D01*
X0139307Y0239848D02*
X0008833Y0239848D01*
X0008833Y0241446D02*
X0198833Y0241446D01*
X0198833Y0239848D02*
X0141824Y0239848D01*
X0144167Y0238249D02*
X0198833Y0238249D01*
X0198833Y0236651D02*
X0144937Y0236651D01*
X0145031Y0235052D02*
X0198833Y0235052D01*
X0198833Y0233454D02*
X0144536Y0233454D01*
X0143200Y0231855D02*
X0198833Y0231855D01*
X0198833Y0243045D02*
X0008833Y0243045D01*
X0008833Y0244643D02*
X0198833Y0244643D01*
X0198833Y0246242D02*
X0008833Y0246242D01*
X0008833Y0247840D02*
X0198833Y0247840D01*
X0198833Y0249439D02*
X0008833Y0249439D01*
X0008833Y0219067D02*
X0039923Y0219067D01*
X0038324Y0217469D02*
X0008833Y0217469D01*
X0008833Y0215870D02*
X0036726Y0215870D01*
X0035127Y0214272D02*
X0008833Y0214272D01*
X0008833Y0212673D02*
X0033529Y0212673D01*
X0031930Y0211075D02*
X0008833Y0211075D01*
X0008833Y0209476D02*
X0030332Y0209476D01*
X0029133Y0207878D02*
X0008833Y0207878D01*
X0008833Y0206279D02*
X0029133Y0206279D01*
X0029133Y0204681D02*
X0008833Y0204681D01*
X0008833Y0203082D02*
X0029133Y0203082D01*
X0029133Y0201484D02*
X0008833Y0201484D01*
X0008833Y0199885D02*
X0029133Y0199885D01*
X0029133Y0198287D02*
X0008833Y0198287D01*
X0008833Y0196688D02*
X0029133Y0196688D01*
X0029133Y0195090D02*
X0008833Y0195090D01*
X0008833Y0193491D02*
X0029133Y0193491D01*
X0029133Y0191892D02*
X0008833Y0191892D01*
X0008833Y0190294D02*
X0029133Y0190294D01*
X0029133Y0188695D02*
X0008833Y0188695D01*
X0008833Y0187097D02*
X0029133Y0187097D01*
X0029133Y0185498D02*
X0008833Y0185498D01*
X0008833Y0183900D02*
X0029133Y0183900D01*
X0029133Y0182301D02*
X0008833Y0182301D01*
X0008833Y0180703D02*
X0029133Y0180703D01*
X0029133Y0179104D02*
X0008833Y0179104D01*
X0008833Y0177506D02*
X0029133Y0177506D01*
X0029133Y0175907D02*
X0008833Y0175907D01*
X0008833Y0174309D02*
X0029133Y0174309D01*
X0029133Y0172710D02*
X0008833Y0172710D01*
X0008833Y0171112D02*
X0029133Y0171112D01*
X0029133Y0169513D02*
X0008833Y0169513D01*
X0008833Y0167915D02*
X0029133Y0167915D01*
X0029133Y0166316D02*
X0008833Y0166316D01*
X0008833Y0164718D02*
X0029133Y0164718D01*
X0029133Y0163119D02*
X0008833Y0163119D01*
X0008833Y0161521D02*
X0029133Y0161521D01*
X0029133Y0159922D02*
X0008833Y0159922D01*
X0008833Y0158324D02*
X0029133Y0158324D01*
X0029133Y0156725D02*
X0008833Y0156725D01*
X0008833Y0155127D02*
X0029133Y0155127D01*
X0029133Y0153528D02*
X0008833Y0153528D01*
X0008833Y0151930D02*
X0029133Y0151930D01*
X0029133Y0150331D02*
X0008833Y0150331D01*
X0008833Y0148733D02*
X0029133Y0148733D01*
X0029133Y0147134D02*
X0008833Y0147134D01*
X0008833Y0145536D02*
X0029133Y0145536D01*
X0028052Y0143937D02*
X0008833Y0143937D01*
X0008833Y0142339D02*
X0028052Y0142339D01*
X0028052Y0140740D02*
X0008833Y0140740D01*
X0008833Y0139142D02*
X0028316Y0139142D01*
X0029133Y0137543D02*
X0008833Y0137543D01*
X0008833Y0135945D02*
X0029133Y0135945D01*
X0029133Y0134346D02*
X0008833Y0134346D01*
X0008833Y0132748D02*
X0029133Y0132748D01*
X0029133Y0131149D02*
X0008833Y0131149D01*
X0008833Y0129551D02*
X0029133Y0129551D01*
X0029133Y0127952D02*
X0008833Y0127952D01*
X0008833Y0126354D02*
X0029133Y0126354D01*
X0038833Y0122867D02*
X0038833Y0207367D01*
X0043833Y0212367D01*
X0171333Y0212367D01*
X0171113Y0209476D02*
X0044054Y0209476D01*
X0042456Y0207878D02*
X0171633Y0207878D01*
X0176033Y0207878D02*
X0182697Y0207878D01*
X0182333Y0209476D02*
X0176033Y0209476D01*
X0176033Y0206279D02*
X0183643Y0206279D01*
X0185996Y0204681D02*
X0177131Y0204681D01*
X0178729Y0203082D02*
X0185836Y0203082D01*
X0191538Y0204681D02*
X0198833Y0204681D01*
X0198833Y0206279D02*
X0192024Y0206279D01*
X0192970Y0207878D02*
X0198833Y0207878D01*
X0198833Y0209476D02*
X0193333Y0209476D01*
X0193211Y0211075D02*
X0198833Y0211075D01*
X0198833Y0212673D02*
X0192576Y0212673D01*
X0193830Y0203082D02*
X0198833Y0203082D01*
X0198833Y0201484D02*
X0194684Y0201484D01*
X0194933Y0199885D02*
X0198833Y0199885D01*
X0198833Y0198287D02*
X0194699Y0198287D01*
X0193867Y0196688D02*
X0198833Y0196688D01*
X0198833Y0195090D02*
X0191627Y0195090D01*
X0191421Y0193491D02*
X0198833Y0193491D01*
X0198833Y0191892D02*
X0192514Y0191892D01*
X0192933Y0190294D02*
X0198833Y0190294D01*
X0198833Y0188695D02*
X0192868Y0188695D01*
X0192206Y0187097D02*
X0198833Y0187097D01*
X0198833Y0185498D02*
X0190614Y0185498D01*
X0193013Y0183900D02*
X0198833Y0183900D01*
X0198833Y0182301D02*
X0194345Y0182301D01*
X0194933Y0180703D02*
X0198833Y0180703D01*
X0198833Y0179104D02*
X0194933Y0179104D01*
X0194376Y0177506D02*
X0198833Y0177506D01*
X0198833Y0175907D02*
X0193087Y0175907D01*
X0191076Y0174309D02*
X0198833Y0174309D01*
X0198833Y0172710D02*
X0192557Y0172710D01*
X0193205Y0171112D02*
X0198833Y0171112D01*
X0198833Y0169513D02*
X0193333Y0169513D01*
X0192982Y0167915D02*
X0198833Y0167915D01*
X0198833Y0166316D02*
X0192052Y0166316D01*
X0189785Y0164718D02*
X0198833Y0164718D01*
X0198833Y0163119D02*
X0176033Y0163119D01*
X0176033Y0161521D02*
X0198833Y0161521D01*
X0198833Y0159922D02*
X0176033Y0159922D01*
X0176033Y0158324D02*
X0198833Y0158324D01*
X0198833Y0156725D02*
X0176033Y0156725D01*
X0176033Y0155127D02*
X0198833Y0155127D01*
X0198833Y0153528D02*
X0176033Y0153528D01*
X0176033Y0151930D02*
X0198833Y0151930D01*
X0198833Y0150331D02*
X0176033Y0150331D01*
X0176033Y0148733D02*
X0198833Y0148733D01*
X0198833Y0147134D02*
X0176033Y0147134D01*
X0176033Y0145536D02*
X0198833Y0145536D01*
X0198833Y0143937D02*
X0176033Y0143937D01*
X0176033Y0142339D02*
X0198833Y0142339D01*
X0198833Y0140740D02*
X0176033Y0140740D01*
X0176033Y0139142D02*
X0198833Y0139142D01*
X0198833Y0137543D02*
X0176033Y0137543D01*
X0176033Y0135945D02*
X0198833Y0135945D01*
X0198833Y0134346D02*
X0176033Y0134346D01*
X0176033Y0132748D02*
X0192775Y0132748D01*
X0191633Y0131149D02*
X0176033Y0131149D01*
X0176033Y0129551D02*
X0191633Y0129551D01*
X0191808Y0127952D02*
X0176033Y0127952D01*
X0176033Y0126354D02*
X0193407Y0126354D01*
X0195833Y0126354D02*
X0195833Y0126354D01*
X0195833Y0127952D02*
X0195833Y0127952D01*
X0195833Y0129551D02*
X0195833Y0129551D01*
X0195833Y0131149D02*
X0195833Y0131149D01*
X0195833Y0132748D02*
X0195833Y0132748D01*
X0198260Y0126354D02*
X0198833Y0126354D01*
X0198833Y0124755D02*
X0176033Y0124755D01*
X0175234Y0123156D02*
X0198833Y0123156D01*
X0198833Y0121558D02*
X0173636Y0121558D01*
X0172037Y0119959D02*
X0198833Y0119959D01*
X0198833Y0118361D02*
X0194551Y0118361D01*
X0194446Y0118467D02*
X0192333Y0118467D01*
X0190221Y0118467D01*
X0187233Y0115479D01*
X0187233Y0113367D01*
X0192333Y0113367D01*
X0192333Y0118467D01*
X0192333Y0113367D01*
X0192333Y0113367D01*
X0192333Y0113367D01*
X0187233Y0113367D01*
X0187233Y0111254D01*
X0190221Y0108267D01*
X0192333Y0108267D01*
X0192333Y0113367D01*
X0197433Y0113367D01*
X0197433Y0115479D01*
X0194446Y0118467D01*
X0192333Y0118361D02*
X0192333Y0118361D01*
X0192333Y0116762D02*
X0192333Y0116762D01*
X0192333Y0115164D02*
X0192333Y0115164D01*
X0192333Y0113565D02*
X0192333Y0113565D01*
X0192333Y0113367D02*
X0192333Y0113367D01*
X0192333Y0113367D01*
X0192333Y0108267D01*
X0194446Y0108267D01*
X0197433Y0111254D01*
X0197433Y0113367D01*
X0192333Y0113367D01*
X0192333Y0111967D02*
X0192333Y0111967D01*
X0192333Y0110368D02*
X0192333Y0110368D01*
X0192333Y0108770D02*
X0192333Y0108770D01*
X0190387Y0108067D02*
X0187633Y0105313D01*
X0187633Y0101420D01*
X0190387Y0098667D01*
X0194280Y0098667D01*
X0197033Y0101420D01*
X0197033Y0105313D01*
X0194280Y0108067D01*
X0190387Y0108067D01*
X0189718Y0108770D02*
X0177949Y0108770D01*
X0177446Y0108267D02*
X0180433Y0111254D01*
X0180433Y0113367D01*
X0180433Y0115479D01*
X0177446Y0118467D01*
X0175333Y0118467D01*
X0173221Y0118467D01*
X0170233Y0115479D01*
X0170233Y0113367D01*
X0175333Y0113367D01*
X0175333Y0118467D01*
X0175333Y0113367D01*
X0175333Y0113367D01*
X0175333Y0113367D01*
X0170233Y0113367D01*
X0170233Y0111254D01*
X0173221Y0108267D01*
X0175333Y0108267D01*
X0175333Y0113367D01*
X0180433Y0113367D01*
X0175333Y0113367D01*
X0175333Y0113367D01*
X0175333Y0113367D01*
X0175333Y0108267D01*
X0177446Y0108267D01*
X0177280Y0108067D02*
X0173387Y0108067D01*
X0170633Y0105313D01*
X0170633Y0101420D01*
X0173387Y0098667D01*
X0177280Y0098667D01*
X0180033Y0101420D01*
X0180033Y0105313D01*
X0177280Y0108067D01*
X0178175Y0107171D02*
X0189491Y0107171D01*
X0187893Y0105573D02*
X0179774Y0105573D01*
X0180033Y0103974D02*
X0187633Y0103974D01*
X0187633Y0102376D02*
X0180033Y0102376D01*
X0179391Y0100777D02*
X0188276Y0100777D01*
X0189874Y0099179D02*
X0177792Y0099179D01*
X0172874Y0099179D02*
X0168757Y0099179D01*
X0169033Y0100777D02*
X0171276Y0100777D01*
X0170633Y0102376D02*
X0169033Y0102376D01*
X0169033Y0103974D02*
X0170633Y0103974D01*
X0170893Y0105573D02*
X0169033Y0105573D01*
X0169033Y0107171D02*
X0172491Y0107171D01*
X0172718Y0108770D02*
X0169033Y0108770D01*
X0169033Y0110368D02*
X0171119Y0110368D01*
X0170233Y0111967D02*
X0169033Y0111967D01*
X0169033Y0113565D02*
X0170233Y0113565D01*
X0170233Y0115164D02*
X0169033Y0115164D01*
X0169033Y0116762D02*
X0171517Y0116762D01*
X0170439Y0118361D02*
X0173115Y0118361D01*
X0175333Y0118361D02*
X0175333Y0118361D01*
X0175333Y0116762D02*
X0175333Y0116762D01*
X0175333Y0115164D02*
X0175333Y0115164D01*
X0175333Y0113565D02*
X0175333Y0113565D01*
X0175333Y0111967D02*
X0175333Y0111967D01*
X0175333Y0110368D02*
X0175333Y0110368D01*
X0175333Y0108770D02*
X0175333Y0108770D01*
X0179548Y0110368D02*
X0188119Y0110368D01*
X0187233Y0111967D02*
X0180433Y0111967D01*
X0180433Y0113565D02*
X0187233Y0113565D01*
X0187233Y0115164D02*
X0180433Y0115164D01*
X0179150Y0116762D02*
X0188517Y0116762D01*
X0190115Y0118361D02*
X0177551Y0118361D01*
X0173833Y0124867D02*
X0173833Y0170867D01*
X0172833Y0171867D01*
X0175101Y0172710D02*
X0183109Y0172710D01*
X0182462Y0171112D02*
X0176033Y0171112D01*
X0176033Y0169513D02*
X0182333Y0169513D01*
X0182684Y0167915D02*
X0176033Y0167915D01*
X0176033Y0166316D02*
X0183614Y0166316D01*
X0185882Y0164718D02*
X0176033Y0164718D01*
X0165552Y0171112D02*
X0136033Y0171112D01*
X0136033Y0172710D02*
X0165552Y0172710D01*
X0165552Y0174309D02*
X0136033Y0174309D01*
X0136033Y0156725D02*
X0137119Y0156725D01*
X0136591Y0148733D02*
X0136033Y0148733D01*
X0130826Y0132748D02*
X0155840Y0132748D01*
X0154533Y0131149D02*
X0132133Y0131149D01*
X0132133Y0129551D02*
X0154533Y0129551D01*
X0154874Y0127952D02*
X0131793Y0127952D01*
X0133193Y0113565D02*
X0134473Y0113565D01*
X0136128Y0111967D02*
X0131538Y0111967D01*
X0137332Y0097580D02*
X0147508Y0097580D01*
X0147422Y0097667D02*
X0147422Y0097667D01*
X0148333Y0099867D02*
X0148333Y0104867D01*
X0148833Y0105367D01*
X0152643Y0108770D02*
X0156137Y0108770D01*
X0154475Y0107171D02*
X0153606Y0107171D01*
X0150085Y0110368D02*
X0164633Y0110368D01*
X0164633Y0108770D02*
X0161530Y0108770D01*
X0163192Y0107171D02*
X0164633Y0107171D01*
X0164633Y0105573D02*
X0163854Y0105573D01*
X0163933Y0103974D02*
X0164633Y0103974D01*
X0164633Y0102376D02*
X0163529Y0102376D01*
X0164133Y0100777D02*
X0162456Y0100777D01*
X0164833Y0098367D02*
X0149833Y0098367D01*
X0148333Y0099867D01*
X0139432Y0094383D02*
X0181976Y0094383D01*
X0181533Y0093941D02*
X0181533Y0090793D01*
X0183759Y0088567D01*
X0186907Y0088567D01*
X0189133Y0090793D01*
X0189133Y0093941D01*
X0186907Y0096167D01*
X0183759Y0096167D01*
X0181533Y0093941D01*
X0181533Y0092785D02*
X0139433Y0092785D01*
X0138950Y0091186D02*
X0181533Y0091186D01*
X0182738Y0089588D02*
X0137767Y0089588D01*
X0138770Y0095982D02*
X0183574Y0095982D01*
X0187092Y0095982D02*
X0192374Y0095982D01*
X0192559Y0096167D02*
X0190333Y0093941D01*
X0190333Y0090793D01*
X0192559Y0088567D01*
X0195707Y0088567D01*
X0197933Y0090793D01*
X0197933Y0093941D01*
X0195707Y0096167D01*
X0192559Y0096167D01*
X0190776Y0094383D02*
X0188691Y0094383D01*
X0189133Y0092785D02*
X0190333Y0092785D01*
X0190333Y0091186D02*
X0189133Y0091186D01*
X0187928Y0089588D02*
X0191538Y0089588D01*
X0196728Y0089588D02*
X0198833Y0089588D01*
X0198833Y0091186D02*
X0197933Y0091186D01*
X0197933Y0092785D02*
X0198833Y0092785D01*
X0198833Y0094383D02*
X0197491Y0094383D01*
X0198833Y0095982D02*
X0195892Y0095982D01*
X0198833Y0097580D02*
X0167158Y0097580D01*
X0164833Y0098367D02*
X0166833Y0100367D01*
X0166833Y0117867D01*
X0173833Y0124867D01*
X0171633Y0126354D02*
X0167694Y0126354D01*
X0169293Y0127952D02*
X0171633Y0127952D01*
X0171633Y0129551D02*
X0169633Y0129551D01*
X0169633Y0131149D02*
X0171633Y0131149D01*
X0171633Y0132748D02*
X0168326Y0132748D01*
X0163972Y0126354D02*
X0160233Y0126354D01*
X0160233Y0124755D02*
X0170610Y0124755D01*
X0169012Y0123156D02*
X0160233Y0123156D01*
X0158712Y0121558D02*
X0167413Y0121558D01*
X0165815Y0119959D02*
X0162453Y0119959D01*
X0163527Y0118361D02*
X0164633Y0118361D01*
X0164633Y0116762D02*
X0163933Y0116762D01*
X0163855Y0115164D02*
X0164633Y0115164D01*
X0164633Y0113565D02*
X0163193Y0113565D01*
X0164633Y0111967D02*
X0161538Y0111967D01*
X0156128Y0111967D02*
X0151538Y0111967D01*
X0153193Y0113565D02*
X0154473Y0113565D01*
X0161793Y0127952D02*
X0162374Y0127952D01*
X0163340Y0132748D02*
X0160826Y0132748D01*
X0187633Y0164718D02*
X0188033Y0164718D01*
X0188033Y0166316D02*
X0187633Y0166316D01*
X0187633Y0167915D02*
X0188033Y0167915D01*
X0188033Y0169513D02*
X0187633Y0169513D01*
X0196150Y0116762D02*
X0198833Y0116762D01*
X0198833Y0115164D02*
X0197433Y0115164D01*
X0197433Y0113565D02*
X0198833Y0113565D01*
X0198833Y0111967D02*
X0197433Y0111967D01*
X0196548Y0110368D02*
X0198833Y0110368D01*
X0198833Y0108770D02*
X0194949Y0108770D01*
X0195175Y0107171D02*
X0198833Y0107171D01*
X0198833Y0105573D02*
X0196774Y0105573D01*
X0197033Y0103974D02*
X0198833Y0103974D01*
X0198833Y0102376D02*
X0197033Y0102376D01*
X0196391Y0100777D02*
X0198833Y0100777D01*
X0198833Y0099179D02*
X0194792Y0099179D01*
X0198833Y0087989D02*
X0176483Y0087989D01*
X0178184Y0086391D02*
X0198833Y0086391D01*
X0198833Y0084792D02*
X0178846Y0084792D01*
X0178933Y0083194D02*
X0198833Y0083194D01*
X0198833Y0081595D02*
X0178537Y0081595D01*
X0177476Y0079997D02*
X0198833Y0079997D01*
X0198833Y0065610D02*
X0196264Y0065610D01*
X0197862Y0064012D02*
X0198833Y0064012D01*
X0198833Y0062413D02*
X0197933Y0062413D01*
X0197933Y0060815D02*
X0198833Y0060815D01*
X0198833Y0059216D02*
X0196357Y0059216D01*
X0196033Y0057618D02*
X0198833Y0057618D01*
X0198833Y0056019D02*
X0196033Y0056019D01*
X0196033Y0054421D02*
X0198833Y0054421D01*
X0198833Y0052822D02*
X0196033Y0052822D01*
X0196033Y0051223D02*
X0198833Y0051223D01*
X0198833Y0049625D02*
X0196033Y0049625D01*
X0195104Y0048026D02*
X0198833Y0048026D01*
X0198833Y0046428D02*
X0193506Y0046428D01*
X0191907Y0044829D02*
X0198833Y0044829D01*
X0198833Y0043231D02*
X0190309Y0043231D01*
X0188333Y0044367D02*
X0193833Y0049867D01*
X0193833Y0064567D01*
X0194133Y0062367D01*
X0191766Y0065610D02*
X0187464Y0065610D01*
X0189062Y0064012D02*
X0190404Y0064012D01*
X0190333Y0062413D02*
X0189133Y0062413D01*
X0189133Y0060815D02*
X0190333Y0060815D01*
X0191633Y0059216D02*
X0187557Y0059216D01*
X0187533Y0057618D02*
X0191633Y0057618D01*
X0191633Y0056019D02*
X0187533Y0056019D01*
X0186998Y0054421D02*
X0191633Y0054421D01*
X0191633Y0052822D02*
X0185400Y0052822D01*
X0183801Y0051223D02*
X0191633Y0051223D01*
X0190480Y0049625D02*
X0151787Y0049625D01*
X0153252Y0048026D02*
X0155281Y0048026D01*
X0154167Y0046428D02*
X0153914Y0046428D01*
X0153784Y0043231D02*
X0153469Y0043231D01*
X0154446Y0041632D02*
X0152312Y0041632D01*
X0158833Y0044367D02*
X0188333Y0044367D01*
X0188882Y0048026D02*
X0162386Y0048026D01*
X0163221Y0041632D02*
X0198833Y0041632D01*
X0198833Y0040034D02*
X0161700Y0040034D01*
X0142633Y0060815D02*
X0181533Y0060815D01*
X0181533Y0062413D02*
X0141661Y0062413D01*
X0136006Y0062413D02*
X0111661Y0062413D01*
X0112633Y0061441D02*
X0110407Y0063667D01*
X0107259Y0063667D01*
X0105033Y0061441D01*
X0105033Y0058293D01*
X0107259Y0056067D01*
X0110407Y0056067D01*
X0112633Y0058293D01*
X0112633Y0061441D01*
X0112633Y0060815D02*
X0135033Y0060815D01*
X0135033Y0059216D02*
X0112633Y0059216D01*
X0111958Y0057618D02*
X0135708Y0057618D01*
X0125091Y0036837D02*
X0122576Y0036837D01*
X0123578Y0035238D02*
X0124088Y0035238D01*
X0123862Y0032041D02*
X0123805Y0032041D01*
X0123122Y0030443D02*
X0124545Y0030443D01*
X0126424Y0028844D02*
X0121242Y0028844D01*
X0122904Y0024049D02*
X0114357Y0024049D01*
X0114633Y0022450D02*
X0121306Y0022450D01*
X0119707Y0020852D02*
X0114426Y0020852D01*
X0113632Y0019253D02*
X0118109Y0019253D01*
X0116510Y0017655D02*
X0111485Y0017655D01*
X0107582Y0017655D02*
X0101033Y0017655D01*
X0102232Y0019253D02*
X0105434Y0019253D01*
X0104641Y0020852D02*
X0103026Y0020852D01*
X0103233Y0022450D02*
X0104433Y0022450D01*
X0104710Y0024049D02*
X0102957Y0024049D01*
X0102065Y0025647D02*
X0105601Y0025647D01*
X0098833Y0021667D02*
X0098133Y0022367D01*
X0098833Y0021667D02*
X0098833Y0014867D01*
X0099833Y0013867D01*
X0115833Y0013867D01*
X0123833Y0021867D01*
X0136833Y0021867D01*
X0138833Y0019867D01*
X0138833Y0014367D01*
X0133938Y0012859D02*
X0133933Y0012859D01*
X0133933Y0011261D02*
X0134727Y0011261D01*
X0123733Y0011261D02*
X0083933Y0011261D01*
X0083933Y0012859D02*
X0097729Y0012859D01*
X0097633Y0012955D02*
X0097633Y0012955D01*
X0096633Y0014458D02*
X0083933Y0014458D01*
X0083933Y0016056D02*
X0096633Y0016056D01*
X0096182Y0017655D02*
X0083933Y0017655D01*
X0083327Y0019253D02*
X0094034Y0019253D01*
X0075701Y0028844D02*
X0071242Y0028844D01*
X0073122Y0030443D02*
X0074159Y0030443D01*
X0073658Y0035238D02*
X0073578Y0035238D01*
X0074556Y0036837D02*
X0072576Y0036837D01*
X0069923Y0038435D02*
X0076667Y0038435D01*
X0067743Y0038435D02*
X0059923Y0038435D01*
X0057743Y0038435D02*
X0049923Y0038435D01*
X0047743Y0038435D02*
X0008833Y0038435D01*
X0008833Y0036837D02*
X0045091Y0036837D01*
X0044088Y0035238D02*
X0008833Y0035238D01*
X0008833Y0033640D02*
X0043733Y0033640D01*
X0043862Y0032041D02*
X0008833Y0032041D01*
X0008833Y0030443D02*
X0044545Y0030443D01*
X0046424Y0028844D02*
X0008833Y0028844D01*
X0051242Y0028844D02*
X0056424Y0028844D01*
X0054545Y0030443D02*
X0053122Y0030443D01*
X0053805Y0032041D02*
X0053862Y0032041D01*
X0054088Y0035238D02*
X0053578Y0035238D01*
X0052576Y0036837D02*
X0055091Y0036837D01*
X0061242Y0028844D02*
X0066424Y0028844D01*
X0064545Y0030443D02*
X0063122Y0030443D01*
X0063805Y0032041D02*
X0063862Y0032041D01*
X0064088Y0035238D02*
X0063578Y0035238D01*
X0062576Y0036837D02*
X0065091Y0036837D01*
X0065507Y0019253D02*
X0061358Y0019253D01*
X0059033Y0019253D02*
X0058633Y0019253D01*
X0058633Y0017655D02*
X0059033Y0017655D01*
X0059033Y0016056D02*
X0058633Y0016056D01*
X0056309Y0019253D02*
X0052159Y0019253D01*
X0053406Y0017655D02*
X0054424Y0017655D01*
X0053540Y0012859D02*
X0053315Y0012859D01*
X0054292Y0011261D02*
X0051940Y0011261D01*
X0063243Y0017655D02*
X0064261Y0017655D01*
X0072159Y0019253D02*
X0074340Y0019253D01*
X0073733Y0017655D02*
X0073406Y0017655D01*
X0097259Y0056067D02*
X0100407Y0056067D01*
X0102633Y0058293D01*
X0102633Y0061441D01*
X0100407Y0063667D01*
X0097259Y0063667D01*
X0095033Y0061441D01*
X0095033Y0058293D01*
X0097259Y0056067D01*
X0095708Y0057618D02*
X0071958Y0057618D01*
X0072633Y0059216D02*
X0095033Y0059216D01*
X0095033Y0060815D02*
X0072633Y0060815D01*
X0071661Y0062413D02*
X0096006Y0062413D01*
X0101661Y0062413D02*
X0106006Y0062413D01*
X0105033Y0060815D02*
X0102633Y0060815D01*
X0102633Y0059216D02*
X0105033Y0059216D01*
X0105708Y0057618D02*
X0101958Y0057618D01*
X0090272Y0083194D02*
X0168733Y0083194D01*
X0168821Y0084792D02*
X0091870Y0084792D01*
X0093469Y0086391D02*
X0169483Y0086391D01*
X0171183Y0087989D02*
X0095067Y0087989D01*
X0093333Y0089367D02*
X0088833Y0084867D01*
X0040833Y0084867D01*
X0041033Y0121558D02*
X0047413Y0121558D01*
X0048114Y0123156D02*
X0049012Y0123156D01*
X0048114Y0124755D02*
X0050610Y0124755D01*
X0052209Y0126354D02*
X0048114Y0126354D01*
X0047490Y0127952D02*
X0075535Y0127952D01*
X0081530Y0108770D02*
X0085024Y0108770D01*
X0084061Y0107171D02*
X0083192Y0107171D01*
X0083529Y0102376D02*
X0084612Y0102376D01*
X0086586Y0100777D02*
X0082456Y0100777D01*
X0086332Y0097580D02*
X0090334Y0097580D01*
X0088896Y0095982D02*
X0087770Y0095982D01*
X0087950Y0091186D02*
X0088716Y0091186D01*
X0093333Y0089367D02*
X0093333Y0093367D01*
X0095210Y0100777D02*
X0091081Y0100777D01*
X0093055Y0102376D02*
X0094138Y0102376D01*
X0094475Y0107171D02*
X0093606Y0107171D01*
X0092643Y0108770D02*
X0096137Y0108770D01*
X0096128Y0111967D02*
X0091538Y0111967D01*
X0090085Y0110368D02*
X0107582Y0110368D01*
X0106128Y0111967D02*
X0101538Y0111967D01*
X0103193Y0113565D02*
X0104473Y0113565D01*
X0105024Y0108770D02*
X0101530Y0108770D01*
X0103192Y0107171D02*
X0104061Y0107171D01*
X0103529Y0102376D02*
X0104612Y0102376D01*
X0106586Y0100777D02*
X0102456Y0100777D01*
X0111081Y0100777D02*
X0115210Y0100777D01*
X0114138Y0102376D02*
X0113055Y0102376D01*
X0113606Y0107171D02*
X0114475Y0107171D01*
X0116137Y0108770D02*
X0112643Y0108770D01*
X0094473Y0113565D02*
X0093193Y0113565D01*
X0122733Y0017655D02*
X0123733Y0017655D01*
X0123733Y0016056D02*
X0121134Y0016056D01*
X0119536Y0014458D02*
X0123733Y0014458D01*
X0123733Y0012859D02*
X0117937Y0012859D01*
D18*
X0088833Y0116367D02*
X0088833Y0121867D01*
X0089333Y0122367D01*
X0156833Y0122367D01*
X0158333Y0123867D01*
X0158333Y0129867D01*
M02*
