G75*
%MOIN*%
%OFA0B0*%
%FSLAX25Y25*%
%IPPOS*%
%LPD*%
%AMOC8*
5,1,8,0,0,1.08239X$1,22.5*
%
%ADD10C,0.01600*%
%ADD11C,0.00000*%
D10*
X0003833Y0004867D02*
X0203833Y0004867D01*
X0203833Y0254867D01*
X0003833Y0254867D01*
X0003833Y0004867D01*
D11*
X0137416Y0152465D02*
X0137418Y0152577D01*
X0137424Y0152688D01*
X0137434Y0152800D01*
X0137448Y0152911D01*
X0137465Y0153021D01*
X0137487Y0153131D01*
X0137513Y0153240D01*
X0137542Y0153348D01*
X0137575Y0153454D01*
X0137612Y0153560D01*
X0137653Y0153664D01*
X0137698Y0153767D01*
X0137746Y0153868D01*
X0137797Y0153967D01*
X0137852Y0154064D01*
X0137911Y0154159D01*
X0137972Y0154253D01*
X0138037Y0154344D01*
X0138106Y0154432D01*
X0138177Y0154518D01*
X0138251Y0154602D01*
X0138329Y0154682D01*
X0138409Y0154760D01*
X0138492Y0154836D01*
X0138577Y0154908D01*
X0138665Y0154977D01*
X0138755Y0155043D01*
X0138848Y0155105D01*
X0138943Y0155165D01*
X0139040Y0155221D01*
X0139138Y0155273D01*
X0139239Y0155322D01*
X0139341Y0155367D01*
X0139445Y0155409D01*
X0139550Y0155447D01*
X0139657Y0155481D01*
X0139764Y0155511D01*
X0139873Y0155538D01*
X0139982Y0155560D01*
X0140093Y0155579D01*
X0140203Y0155594D01*
X0140315Y0155605D01*
X0140426Y0155612D01*
X0140538Y0155615D01*
X0140650Y0155614D01*
X0140762Y0155609D01*
X0140873Y0155600D01*
X0140984Y0155587D01*
X0141095Y0155570D01*
X0141205Y0155550D01*
X0141314Y0155525D01*
X0141422Y0155497D01*
X0141529Y0155464D01*
X0141635Y0155428D01*
X0141739Y0155388D01*
X0141842Y0155345D01*
X0141944Y0155298D01*
X0142043Y0155247D01*
X0142141Y0155193D01*
X0142237Y0155135D01*
X0142331Y0155074D01*
X0142422Y0155010D01*
X0142511Y0154943D01*
X0142598Y0154872D01*
X0142682Y0154798D01*
X0142764Y0154722D01*
X0142842Y0154642D01*
X0142918Y0154560D01*
X0142991Y0154475D01*
X0143061Y0154388D01*
X0143127Y0154298D01*
X0143191Y0154206D01*
X0143251Y0154112D01*
X0143308Y0154016D01*
X0143361Y0153917D01*
X0143411Y0153817D01*
X0143457Y0153716D01*
X0143500Y0153612D01*
X0143539Y0153507D01*
X0143574Y0153401D01*
X0143605Y0153294D01*
X0143633Y0153185D01*
X0143656Y0153076D01*
X0143676Y0152966D01*
X0143692Y0152855D01*
X0143704Y0152744D01*
X0143712Y0152633D01*
X0143716Y0152521D01*
X0143716Y0152409D01*
X0143712Y0152297D01*
X0143704Y0152186D01*
X0143692Y0152075D01*
X0143676Y0151964D01*
X0143656Y0151854D01*
X0143633Y0151745D01*
X0143605Y0151636D01*
X0143574Y0151529D01*
X0143539Y0151423D01*
X0143500Y0151318D01*
X0143457Y0151214D01*
X0143411Y0151113D01*
X0143361Y0151013D01*
X0143308Y0150914D01*
X0143251Y0150818D01*
X0143191Y0150724D01*
X0143127Y0150632D01*
X0143061Y0150542D01*
X0142991Y0150455D01*
X0142918Y0150370D01*
X0142842Y0150288D01*
X0142764Y0150208D01*
X0142682Y0150132D01*
X0142598Y0150058D01*
X0142511Y0149987D01*
X0142422Y0149920D01*
X0142331Y0149856D01*
X0142237Y0149795D01*
X0142141Y0149737D01*
X0142043Y0149683D01*
X0141944Y0149632D01*
X0141842Y0149585D01*
X0141739Y0149542D01*
X0141635Y0149502D01*
X0141529Y0149466D01*
X0141422Y0149433D01*
X0141314Y0149405D01*
X0141205Y0149380D01*
X0141095Y0149360D01*
X0140984Y0149343D01*
X0140873Y0149330D01*
X0140762Y0149321D01*
X0140650Y0149316D01*
X0140538Y0149315D01*
X0140426Y0149318D01*
X0140315Y0149325D01*
X0140203Y0149336D01*
X0140093Y0149351D01*
X0139982Y0149370D01*
X0139873Y0149392D01*
X0139764Y0149419D01*
X0139657Y0149449D01*
X0139550Y0149483D01*
X0139445Y0149521D01*
X0139341Y0149563D01*
X0139239Y0149608D01*
X0139138Y0149657D01*
X0139040Y0149709D01*
X0138943Y0149765D01*
X0138848Y0149825D01*
X0138755Y0149887D01*
X0138665Y0149953D01*
X0138577Y0150022D01*
X0138492Y0150094D01*
X0138409Y0150170D01*
X0138329Y0150248D01*
X0138251Y0150328D01*
X0138177Y0150412D01*
X0138106Y0150498D01*
X0138037Y0150586D01*
X0137972Y0150677D01*
X0137911Y0150771D01*
X0137852Y0150866D01*
X0137797Y0150963D01*
X0137746Y0151062D01*
X0137698Y0151163D01*
X0137653Y0151266D01*
X0137612Y0151370D01*
X0137575Y0151476D01*
X0137542Y0151582D01*
X0137513Y0151690D01*
X0137487Y0151799D01*
X0137465Y0151909D01*
X0137448Y0152019D01*
X0137434Y0152130D01*
X0137424Y0152242D01*
X0137418Y0152353D01*
X0137416Y0152465D01*
X0138401Y0235536D02*
X0138403Y0235629D01*
X0138409Y0235721D01*
X0138419Y0235813D01*
X0138433Y0235904D01*
X0138450Y0235995D01*
X0138472Y0236085D01*
X0138497Y0236174D01*
X0138526Y0236262D01*
X0138559Y0236348D01*
X0138596Y0236433D01*
X0138636Y0236517D01*
X0138680Y0236598D01*
X0138727Y0236678D01*
X0138777Y0236756D01*
X0138831Y0236831D01*
X0138888Y0236904D01*
X0138948Y0236974D01*
X0139011Y0237042D01*
X0139077Y0237107D01*
X0139145Y0237169D01*
X0139216Y0237229D01*
X0139290Y0237285D01*
X0139366Y0237338D01*
X0139444Y0237387D01*
X0139524Y0237434D01*
X0139606Y0237476D01*
X0139690Y0237516D01*
X0139775Y0237551D01*
X0139862Y0237583D01*
X0139950Y0237612D01*
X0140039Y0237636D01*
X0140129Y0237657D01*
X0140220Y0237673D01*
X0140312Y0237686D01*
X0140404Y0237695D01*
X0140497Y0237700D01*
X0140589Y0237701D01*
X0140682Y0237698D01*
X0140774Y0237691D01*
X0140866Y0237680D01*
X0140957Y0237665D01*
X0141048Y0237647D01*
X0141138Y0237624D01*
X0141226Y0237598D01*
X0141314Y0237568D01*
X0141400Y0237534D01*
X0141484Y0237497D01*
X0141567Y0237455D01*
X0141648Y0237411D01*
X0141728Y0237363D01*
X0141805Y0237312D01*
X0141879Y0237257D01*
X0141952Y0237199D01*
X0142022Y0237139D01*
X0142089Y0237075D01*
X0142153Y0237009D01*
X0142215Y0236939D01*
X0142273Y0236868D01*
X0142328Y0236794D01*
X0142380Y0236717D01*
X0142429Y0236638D01*
X0142475Y0236558D01*
X0142517Y0236475D01*
X0142555Y0236391D01*
X0142590Y0236305D01*
X0142621Y0236218D01*
X0142648Y0236130D01*
X0142671Y0236040D01*
X0142691Y0235950D01*
X0142707Y0235859D01*
X0142719Y0235767D01*
X0142727Y0235675D01*
X0142731Y0235582D01*
X0142731Y0235490D01*
X0142727Y0235397D01*
X0142719Y0235305D01*
X0142707Y0235213D01*
X0142691Y0235122D01*
X0142671Y0235032D01*
X0142648Y0234942D01*
X0142621Y0234854D01*
X0142590Y0234767D01*
X0142555Y0234681D01*
X0142517Y0234597D01*
X0142475Y0234514D01*
X0142429Y0234434D01*
X0142380Y0234355D01*
X0142328Y0234278D01*
X0142273Y0234204D01*
X0142215Y0234133D01*
X0142153Y0234063D01*
X0142089Y0233997D01*
X0142022Y0233933D01*
X0141952Y0233873D01*
X0141879Y0233815D01*
X0141805Y0233760D01*
X0141728Y0233709D01*
X0141649Y0233661D01*
X0141567Y0233617D01*
X0141484Y0233575D01*
X0141400Y0233538D01*
X0141314Y0233504D01*
X0141226Y0233474D01*
X0141138Y0233448D01*
X0141048Y0233425D01*
X0140957Y0233407D01*
X0140866Y0233392D01*
X0140774Y0233381D01*
X0140682Y0233374D01*
X0140589Y0233371D01*
X0140497Y0233372D01*
X0140404Y0233377D01*
X0140312Y0233386D01*
X0140220Y0233399D01*
X0140129Y0233415D01*
X0140039Y0233436D01*
X0139950Y0233460D01*
X0139862Y0233489D01*
X0139775Y0233521D01*
X0139690Y0233556D01*
X0139606Y0233596D01*
X0139524Y0233638D01*
X0139444Y0233685D01*
X0139366Y0233734D01*
X0139290Y0233787D01*
X0139216Y0233843D01*
X0139145Y0233903D01*
X0139077Y0233965D01*
X0139011Y0234030D01*
X0138948Y0234098D01*
X0138888Y0234168D01*
X0138831Y0234241D01*
X0138777Y0234316D01*
X0138727Y0234394D01*
X0138680Y0234474D01*
X0138636Y0234555D01*
X0138596Y0234639D01*
X0138559Y0234724D01*
X0138526Y0234810D01*
X0138497Y0234898D01*
X0138472Y0234987D01*
X0138450Y0235077D01*
X0138433Y0235168D01*
X0138419Y0235259D01*
X0138409Y0235351D01*
X0138403Y0235443D01*
X0138401Y0235536D01*
M02*
