%
M48
M72
T01C0.02362
T02C0.03200
T03C0.04000
T04C0.04331
T05C0.06299
%
T01
X38833Y94867
X118833Y129867
X158833Y143367
X173833Y169867
X178833Y214867
X138833Y202367
X63833Y234867
X173833Y59867
T02
X185333Y64867
X194133Y64867
X194133Y94867
X192333Y103367
X192333Y113367
X195833Y129867
X175333Y113367
X175333Y103367
X185333Y94867
X165833Y129867
X158333Y129867
X128333Y129867
X138833Y59867
X108833Y59867
X98833Y59867
X68833Y59867
T03
X20333Y65867
X20333Y75867
X18333Y97867
X18333Y107867
X18333Y117867
X48833Y114867
X48833Y105367
X58833Y104367
X58833Y114867
X68833Y114867
X68833Y105367
X78833Y104367
X78833Y114867
X88833Y114867
X88833Y105367
X93333Y93367
X98833Y104367
X98833Y114867
X108833Y114867
X108833Y105367
X118833Y104367
X118833Y114867
X128833Y114867
X128833Y105367
X124333Y93367
X134333Y93367
X138833Y104367
X138833Y114867
X148833Y114867
X148833Y105367
X158833Y104367
X158833Y114867
X173833Y85567
X173833Y74167
X158833Y44367
X158833Y34867
X148833Y34867
X148833Y45367
X138833Y44367
X138833Y34867
X128833Y34867
X128833Y45367
X118833Y44367
X118833Y34867
X108833Y34867
X109533Y24867
X98133Y24867
X98833Y34867
X98833Y44367
X88833Y45367
X88833Y34867
X78833Y34867
X78833Y44367
X68833Y45367
X68833Y34867
X58833Y34867
X58833Y44367
X48833Y45367
X48833Y34867
X48833Y15367
X58833Y14367
X68833Y15367
X78833Y14367
X108833Y45367
X128833Y15367
X138833Y14367
X148833Y15367
X158833Y14367
X83333Y93367
X187833Y169867
X189833Y179867
X187833Y189867
X189833Y199867
X187833Y209867
X189833Y219867
T04
X140566Y235536
T05
X140566Y152465
M30
