G75*
%MOIN*%
%OFA0B0*%
%FSLAX25Y25*%
%IPPOS*%
%LPD*%
%AMOC8*
5,1,8,0,0,1.08239X$1,22.5*
%
%ADD10C,0.01600*%
%ADD11C,0.01200*%
%ADD12C,0.07400*%
%ADD13R,0.06000X0.06000*%
%ADD14OC8,0.06600*%
%ADD15R,0.07400X0.07400*%
%ADD16OC8,0.05200*%
%ADD17R,0.11024X0.07874*%
%ADD18R,0.15748X0.02756*%
%ADD19R,0.15748X0.04724*%
%ADD20C,0.00000*%
%ADD21R,0.03962X0.03962*%
%ADD22C,0.04000*%
D10*
X0003833Y0004867D02*
X0203833Y0004867D01*
X0203833Y0254867D01*
X0003833Y0254867D01*
X0003833Y0004867D01*
X0009433Y0010467D02*
X0009433Y0249267D01*
X0056364Y0249267D01*
X0055895Y0248797D01*
X0055895Y0239598D01*
X0056832Y0238660D01*
X0060607Y0238660D01*
X0060607Y0237865D01*
X0060252Y0237510D01*
X0060252Y0232223D01*
X0061189Y0231286D01*
X0066477Y0231286D01*
X0067414Y0232223D01*
X0067414Y0237510D01*
X0066477Y0238448D01*
X0065407Y0238448D01*
X0065407Y0238660D01*
X0069181Y0238660D01*
X0070118Y0239598D01*
X0070118Y0248797D01*
X0069649Y0249267D01*
X0137860Y0249267D01*
X0137785Y0249191D01*
X0137785Y0241923D01*
X0136620Y0241441D01*
X0134661Y0239481D01*
X0133600Y0236921D01*
X0133600Y0234150D01*
X0134661Y0231590D01*
X0136620Y0229631D01*
X0139180Y0228571D01*
X0141951Y0228571D01*
X0142903Y0228965D01*
X0142903Y0226015D01*
X0143519Y0225398D01*
X0142903Y0224781D01*
X0142903Y0224156D01*
X0135246Y0224156D01*
X0134364Y0223791D01*
X0132474Y0221901D01*
X0131799Y0221226D01*
X0131433Y0220344D01*
X0131433Y0134389D01*
X0131799Y0133507D01*
X0136433Y0128873D01*
X0136433Y0119609D01*
X0135831Y0119360D01*
X0134340Y0117869D01*
X0133833Y0116645D01*
X0133326Y0117869D01*
X0131836Y0119360D01*
X0131233Y0119609D01*
X0131233Y0120344D01*
X0130868Y0121226D01*
X0130193Y0121901D01*
X0128693Y0123401D01*
X0127811Y0123767D01*
X0122327Y0123767D01*
X0121233Y0124861D01*
X0121233Y0126286D01*
X0121477Y0126286D01*
X0122414Y0127223D01*
X0122414Y0132510D01*
X0121477Y0133448D01*
X0116189Y0133448D01*
X0115252Y0132510D01*
X0115252Y0127223D01*
X0116189Y0126286D01*
X0116433Y0126286D01*
X0116433Y0123389D01*
X0116799Y0122507D01*
X0119139Y0120167D01*
X0117779Y0120167D01*
X0115831Y0119360D01*
X0114340Y0117869D01*
X0113833Y0116645D01*
X0113326Y0117869D01*
X0111836Y0119360D01*
X0109888Y0120167D01*
X0107779Y0120167D01*
X0105831Y0119360D01*
X0104340Y0117869D01*
X0103833Y0116645D01*
X0103326Y0117869D01*
X0101836Y0119360D01*
X0099888Y0120167D01*
X0097779Y0120167D01*
X0095831Y0119360D01*
X0094340Y0117869D01*
X0093833Y0116645D01*
X0093326Y0117869D01*
X0091836Y0119360D01*
X0089888Y0120167D01*
X0087779Y0120167D01*
X0085831Y0119360D01*
X0084340Y0117869D01*
X0083948Y0116923D01*
X0083930Y0116978D01*
X0083537Y0117749D01*
X0083028Y0118450D01*
X0082416Y0119062D01*
X0081716Y0119571D01*
X0080945Y0119964D01*
X0080121Y0120231D01*
X0079266Y0120367D01*
X0079033Y0120367D01*
X0079033Y0115067D01*
X0078633Y0115067D01*
X0078633Y0120367D01*
X0078400Y0120367D01*
X0077545Y0120231D01*
X0076722Y0119964D01*
X0075951Y0119571D01*
X0075250Y0119062D01*
X0074638Y0118450D01*
X0074129Y0117749D01*
X0073736Y0116978D01*
X0073718Y0116923D01*
X0073326Y0117869D01*
X0071836Y0119360D01*
X0069888Y0120167D01*
X0067779Y0120167D01*
X0065831Y0119360D01*
X0064340Y0117869D01*
X0063833Y0116645D01*
X0063326Y0117869D01*
X0061836Y0119360D01*
X0059888Y0120167D01*
X0057779Y0120167D01*
X0055831Y0119360D01*
X0054340Y0117869D01*
X0053833Y0116645D01*
X0053326Y0117869D01*
X0051836Y0119360D01*
X0049888Y0120167D01*
X0047779Y0120167D01*
X0045831Y0119360D01*
X0044340Y0117869D01*
X0043533Y0115921D01*
X0043533Y0113812D01*
X0044340Y0111864D01*
X0045831Y0110374D01*
X0046433Y0110124D01*
X0046433Y0110109D01*
X0045831Y0109860D01*
X0044938Y0108967D01*
X0023614Y0108967D01*
X0022826Y0110869D01*
X0021336Y0112360D01*
X0020112Y0112867D01*
X0021336Y0113374D01*
X0022826Y0114864D01*
X0023633Y0116812D01*
X0023633Y0118921D01*
X0022826Y0120869D01*
X0021336Y0122360D01*
X0019388Y0123167D01*
X0017279Y0123167D01*
X0015331Y0122360D01*
X0013840Y0120869D01*
X0013033Y0118921D01*
X0013033Y0116812D01*
X0013840Y0114864D01*
X0015331Y0113374D01*
X0016555Y0112867D01*
X0015331Y0112360D01*
X0013840Y0110869D01*
X0013033Y0108921D01*
X0013033Y0106812D01*
X0013840Y0104864D01*
X0015331Y0103374D01*
X0016555Y0102867D01*
X0015331Y0102360D01*
X0013840Y0100869D01*
X0013033Y0098921D01*
X0013033Y0096812D01*
X0013840Y0094864D01*
X0015331Y0093374D01*
X0016733Y0092793D01*
X0016733Y0080467D01*
X0016671Y0080467D01*
X0015733Y0079529D01*
X0015733Y0072204D01*
X0016671Y0071267D01*
X0023996Y0071267D01*
X0024933Y0072204D01*
X0024933Y0079529D01*
X0023996Y0080467D01*
X0023933Y0080467D01*
X0023933Y0096583D01*
X0023633Y0097307D01*
X0023633Y0098921D01*
X0022826Y0100869D01*
X0021929Y0101767D01*
X0044938Y0101767D01*
X0045831Y0100874D01*
X0047779Y0100067D01*
X0049888Y0100067D01*
X0051836Y0100874D01*
X0053326Y0102364D01*
X0053626Y0103088D01*
X0054340Y0101364D01*
X0055831Y0099874D01*
X0057779Y0099067D01*
X0059888Y0099067D01*
X0061836Y0099874D01*
X0063326Y0101364D01*
X0064040Y0103088D01*
X0064340Y0102364D01*
X0065831Y0100874D01*
X0067779Y0100067D01*
X0069888Y0100067D01*
X0071836Y0100874D01*
X0073326Y0102364D01*
X0073536Y0102871D01*
X0073736Y0102255D01*
X0074129Y0101484D01*
X0074638Y0100784D01*
X0075250Y0100171D01*
X0075951Y0099663D01*
X0076722Y0099270D01*
X0077545Y0099002D01*
X0078400Y0098867D01*
X0078633Y0098867D01*
X0078633Y0104167D01*
X0079033Y0104167D01*
X0079033Y0098867D01*
X0079266Y0098867D01*
X0080121Y0099002D01*
X0080945Y0099270D01*
X0081716Y0099663D01*
X0082416Y0100171D01*
X0083028Y0100784D01*
X0083537Y0101484D01*
X0083930Y0102255D01*
X0084130Y0102871D01*
X0084340Y0102364D01*
X0085831Y0100874D01*
X0087779Y0100067D01*
X0089888Y0100067D01*
X0091836Y0100874D01*
X0093326Y0102364D01*
X0093626Y0103088D01*
X0094340Y0101364D01*
X0095831Y0099874D01*
X0097779Y0099067D01*
X0099888Y0099067D01*
X0101836Y0099874D01*
X0103326Y0101364D01*
X0104040Y0103088D01*
X0104340Y0102364D01*
X0105831Y0100874D01*
X0107779Y0100067D01*
X0109888Y0100067D01*
X0111836Y0100874D01*
X0113326Y0102364D01*
X0113626Y0103088D01*
X0114340Y0101364D01*
X0115831Y0099874D01*
X0117779Y0099067D01*
X0119888Y0099067D01*
X0121836Y0099874D01*
X0123326Y0101364D01*
X0124040Y0103088D01*
X0124340Y0102364D01*
X0125831Y0100874D01*
X0127779Y0100067D01*
X0129888Y0100067D01*
X0131836Y0100874D01*
X0133326Y0102364D01*
X0133626Y0103088D01*
X0134340Y0101364D01*
X0135831Y0099874D01*
X0137779Y0099067D01*
X0139888Y0099067D01*
X0141836Y0099874D01*
X0143326Y0101364D01*
X0144040Y0103088D01*
X0144340Y0102364D01*
X0145831Y0100874D01*
X0147779Y0100067D01*
X0149888Y0100067D01*
X0151836Y0100874D01*
X0153326Y0102364D01*
X0153626Y0103088D01*
X0154340Y0101364D01*
X0155831Y0099874D01*
X0157779Y0099067D01*
X0159888Y0099067D01*
X0161836Y0099874D01*
X0163326Y0101364D01*
X0164133Y0103312D01*
X0164133Y0105421D01*
X0163326Y0107369D01*
X0161836Y0108860D01*
X0161233Y0109109D01*
X0161233Y0110124D01*
X0161836Y0110374D01*
X0163326Y0111864D01*
X0163576Y0112467D01*
X0164311Y0112467D01*
X0165193Y0112832D01*
X0175193Y0122832D01*
X0175868Y0123507D01*
X0176233Y0124389D01*
X0176233Y0157844D01*
X0175868Y0158726D01*
X0170868Y0163726D01*
X0170193Y0164401D01*
X0169311Y0164767D01*
X0161851Y0164767D01*
X0161851Y0165726D01*
X0160913Y0166663D01*
X0143840Y0166663D01*
X0142903Y0165726D01*
X0142903Y0160102D01*
X0142147Y0160415D01*
X0138984Y0160415D01*
X0136233Y0159275D01*
X0136233Y0198786D01*
X0141477Y0198786D01*
X0142414Y0199723D01*
X0142414Y0199967D01*
X0142903Y0199967D01*
X0142903Y0199046D01*
X0143840Y0198109D01*
X0160913Y0198109D01*
X0161851Y0199046D01*
X0161851Y0205096D01*
X0160913Y0206034D01*
X0143840Y0206034D01*
X0142903Y0205096D01*
X0142903Y0204767D01*
X0142414Y0204767D01*
X0142414Y0205010D01*
X0141477Y0205948D01*
X0136233Y0205948D01*
X0136233Y0218873D01*
X0136717Y0219356D01*
X0142903Y0219356D01*
X0142903Y0218731D01*
X0143840Y0217794D01*
X0160913Y0217794D01*
X0161851Y0218731D01*
X0161851Y0224781D01*
X0161234Y0225398D01*
X0161851Y0226015D01*
X0161851Y0230096D01*
X0161332Y0230615D01*
X0161851Y0231133D01*
X0161851Y0235214D01*
X0161529Y0235536D01*
X0161851Y0235857D01*
X0161851Y0239939D01*
X0160913Y0240876D01*
X0152008Y0240876D01*
X0152008Y0249191D01*
X0151932Y0249267D01*
X0198233Y0249267D01*
X0198233Y0133406D01*
X0197573Y0134067D01*
X0194094Y0134067D01*
X0191633Y0131606D01*
X0191633Y0128127D01*
X0194094Y0125667D01*
X0197573Y0125667D01*
X0198233Y0126327D01*
X0198233Y0096706D01*
X0196533Y0098406D01*
X0196533Y0100637D01*
X0197233Y0101337D01*
X0197233Y0105396D01*
X0194363Y0108267D01*
X0190304Y0108267D01*
X0187433Y0105396D01*
X0187433Y0101337D01*
X0190304Y0098467D01*
X0191733Y0098467D01*
X0191733Y0098406D01*
X0189933Y0096606D01*
X0189933Y0093127D01*
X0192394Y0090667D01*
X0195873Y0090667D01*
X0198233Y0093027D01*
X0198233Y0066706D01*
X0195873Y0069067D01*
X0192394Y0069067D01*
X0189933Y0066606D01*
X0189933Y0063127D01*
X0192394Y0060667D01*
X0195873Y0060667D01*
X0198233Y0063027D01*
X0198233Y0010467D01*
X0162711Y0010467D01*
X0163028Y0010784D01*
X0163537Y0011484D01*
X0163930Y0012255D01*
X0164198Y0013079D01*
X0164333Y0013934D01*
X0164333Y0014167D01*
X0159033Y0014167D01*
X0159033Y0014567D01*
X0164333Y0014567D01*
X0164333Y0014800D01*
X0164198Y0015655D01*
X0163930Y0016478D01*
X0163537Y0017249D01*
X0163028Y0017950D01*
X0162511Y0018467D01*
X0170311Y0018467D01*
X0171193Y0018832D01*
X0175193Y0022832D01*
X0175868Y0023507D01*
X0176233Y0024389D01*
X0176233Y0056286D01*
X0176477Y0056286D01*
X0177414Y0057223D01*
X0177414Y0062510D01*
X0176477Y0063448D01*
X0171189Y0063448D01*
X0170252Y0062510D01*
X0170252Y0057223D01*
X0171189Y0056286D01*
X0171433Y0056286D01*
X0171433Y0025861D01*
X0168839Y0023267D01*
X0165627Y0023267D01*
X0165868Y0023507D01*
X0168868Y0026507D01*
X0169233Y0027389D01*
X0169233Y0049844D01*
X0168868Y0050726D01*
X0168193Y0051401D01*
X0165693Y0053901D01*
X0164811Y0054267D01*
X0112327Y0054267D01*
X0111233Y0055361D01*
X0111233Y0056327D01*
X0113033Y0058127D01*
X0113033Y0061606D01*
X0111233Y0063406D01*
X0111233Y0070344D01*
X0110868Y0071226D01*
X0096233Y0085861D01*
X0096233Y0088831D01*
X0096336Y0088874D01*
X0097826Y0090364D01*
X0098633Y0092312D01*
X0098633Y0094421D01*
X0097826Y0096369D01*
X0096336Y0097860D01*
X0094388Y0098667D01*
X0092279Y0098667D01*
X0090331Y0097860D01*
X0088840Y0096369D01*
X0088333Y0095145D01*
X0087826Y0096369D01*
X0086336Y0097860D01*
X0084388Y0098667D01*
X0082279Y0098667D01*
X0080331Y0097860D01*
X0078840Y0096369D01*
X0078591Y0095767D01*
X0042414Y0095767D01*
X0042414Y0097510D01*
X0041477Y0098448D01*
X0036189Y0098448D01*
X0035252Y0097510D01*
X0035252Y0092223D01*
X0036189Y0091286D01*
X0039086Y0091286D01*
X0039856Y0090967D01*
X0078591Y0090967D01*
X0078840Y0090364D01*
X0080331Y0088874D01*
X0080933Y0088624D01*
X0080933Y0084889D01*
X0081299Y0084007D01*
X0096433Y0068873D01*
X0096433Y0063406D01*
X0094633Y0061606D01*
X0094633Y0058127D01*
X0096433Y0056327D01*
X0096433Y0054861D01*
X0095839Y0054267D01*
X0042856Y0054267D01*
X0041974Y0053901D01*
X0039974Y0051901D01*
X0039299Y0051226D01*
X0038933Y0050344D01*
X0038933Y0026889D01*
X0039299Y0026007D01*
X0041799Y0023507D01*
X0042474Y0022832D01*
X0043356Y0022467D01*
X0093391Y0022467D01*
X0093640Y0021864D01*
X0095131Y0020374D01*
X0097079Y0019567D01*
X0099188Y0019567D01*
X0101136Y0020374D01*
X0102626Y0021864D01*
X0103433Y0023812D01*
X0103433Y0025921D01*
X0102626Y0027869D01*
X0101136Y0029360D01*
X0100262Y0029722D01*
X0101836Y0030374D01*
X0103326Y0031864D01*
X0103833Y0033088D01*
X0104340Y0031864D01*
X0105831Y0030374D01*
X0107405Y0029722D01*
X0106531Y0029360D01*
X0105040Y0027869D01*
X0104233Y0025921D01*
X0104233Y0023812D01*
X0105040Y0021864D01*
X0106531Y0020374D01*
X0107133Y0020124D01*
X0107133Y0018189D01*
X0107499Y0017307D01*
X0108039Y0016767D01*
X0084133Y0016767D01*
X0084133Y0018729D01*
X0083196Y0019667D01*
X0074471Y0019667D01*
X0073533Y0018729D01*
X0073533Y0017869D01*
X0073326Y0018369D01*
X0071836Y0019860D01*
X0069888Y0020667D01*
X0067779Y0020667D01*
X0065831Y0019860D01*
X0064340Y0018369D01*
X0063626Y0016645D01*
X0063326Y0017369D01*
X0061836Y0018860D01*
X0059888Y0019667D01*
X0057779Y0019667D01*
X0055831Y0018860D01*
X0054340Y0017369D01*
X0054130Y0016862D01*
X0053930Y0017478D01*
X0053537Y0018249D01*
X0053028Y0018950D01*
X0052416Y0019562D01*
X0051716Y0020071D01*
X0050945Y0020464D01*
X0050121Y0020731D01*
X0049266Y0020867D01*
X0049033Y0020867D01*
X0049033Y0015567D01*
X0048633Y0015567D01*
X0048633Y0020867D01*
X0048400Y0020867D01*
X0047545Y0020731D01*
X0046722Y0020464D01*
X0045951Y0020071D01*
X0045250Y0019562D01*
X0044638Y0018950D01*
X0044129Y0018249D01*
X0043736Y0017478D01*
X0043469Y0016655D01*
X0043333Y0015800D01*
X0043333Y0015567D01*
X0048633Y0015567D01*
X0048633Y0015167D01*
X0043333Y0015167D01*
X0043333Y0014934D01*
X0043469Y0014079D01*
X0043736Y0013255D01*
X0044129Y0012484D01*
X0044638Y0011784D01*
X0045250Y0011171D01*
X0045951Y0010663D01*
X0046335Y0010467D01*
X0009433Y0010467D01*
X0009433Y0011261D02*
X0045161Y0011261D01*
X0043938Y0012859D02*
X0009433Y0012859D01*
X0009433Y0014458D02*
X0043409Y0014458D01*
X0043374Y0016056D02*
X0009433Y0016056D01*
X0009433Y0017655D02*
X0043826Y0017655D01*
X0044942Y0019253D02*
X0009433Y0019253D01*
X0009433Y0020852D02*
X0048307Y0020852D01*
X0048633Y0020852D02*
X0049033Y0020852D01*
X0049360Y0020852D02*
X0094653Y0020852D01*
X0093398Y0022450D02*
X0009433Y0022450D01*
X0009433Y0024049D02*
X0041257Y0024049D01*
X0039659Y0025647D02*
X0009433Y0025647D01*
X0009433Y0027246D02*
X0038933Y0027246D01*
X0038933Y0028844D02*
X0009433Y0028844D01*
X0009433Y0030443D02*
X0038933Y0030443D01*
X0038933Y0032041D02*
X0009433Y0032041D01*
X0009433Y0033640D02*
X0038933Y0033640D01*
X0038933Y0035238D02*
X0009433Y0035238D01*
X0009433Y0036837D02*
X0038933Y0036837D01*
X0038933Y0038435D02*
X0009433Y0038435D01*
X0009433Y0040034D02*
X0038933Y0040034D01*
X0038933Y0041632D02*
X0009433Y0041632D01*
X0009433Y0043231D02*
X0038933Y0043231D01*
X0038933Y0044829D02*
X0009433Y0044829D01*
X0009433Y0046428D02*
X0038933Y0046428D01*
X0038933Y0048026D02*
X0009433Y0048026D01*
X0009433Y0049625D02*
X0038933Y0049625D01*
X0039298Y0051223D02*
X0009433Y0051223D01*
X0009433Y0052822D02*
X0040895Y0052822D01*
X0043333Y0051867D02*
X0041333Y0049867D01*
X0041333Y0027367D01*
X0043833Y0024867D01*
X0098133Y0024867D01*
X0101651Y0028844D02*
X0106016Y0028844D01*
X0105762Y0030443D02*
X0101905Y0030443D01*
X0103400Y0032041D02*
X0104267Y0032041D01*
X0104782Y0027246D02*
X0102885Y0027246D01*
X0103433Y0025647D02*
X0104233Y0025647D01*
X0104233Y0024049D02*
X0103433Y0024049D01*
X0102869Y0022450D02*
X0104798Y0022450D01*
X0106053Y0020852D02*
X0101614Y0020852D01*
X0107133Y0019253D02*
X0083609Y0019253D01*
X0084133Y0017655D02*
X0107355Y0017655D01*
X0109533Y0018667D02*
X0113833Y0014367D01*
X0127833Y0014367D01*
X0128833Y0015367D01*
X0128833Y0034867D02*
X0128833Y0045367D01*
X0137011Y0055467D02*
X0138833Y0055467D01*
X0138833Y0059867D01*
X0138833Y0064267D01*
X0137011Y0064267D01*
X0134433Y0061689D01*
X0134433Y0059867D01*
X0138833Y0059867D01*
X0138833Y0059867D01*
X0138833Y0059867D01*
X0138833Y0064267D01*
X0140656Y0064267D01*
X0143233Y0061689D01*
X0143233Y0059867D01*
X0138833Y0059867D01*
X0134433Y0059867D01*
X0134433Y0058044D01*
X0137011Y0055467D01*
X0136458Y0056019D02*
X0111233Y0056019D01*
X0112174Y0054421D02*
X0171433Y0054421D01*
X0171433Y0056019D02*
X0141208Y0056019D01*
X0140656Y0055467D02*
X0143233Y0058044D01*
X0143233Y0059867D01*
X0138833Y0059867D01*
X0138833Y0059867D01*
X0138833Y0059867D01*
X0138833Y0055467D01*
X0140656Y0055467D01*
X0138833Y0056019D02*
X0138833Y0056019D01*
X0138833Y0057618D02*
X0138833Y0057618D01*
X0138833Y0059216D02*
X0138833Y0059216D01*
X0138833Y0060815D02*
X0138833Y0060815D01*
X0138833Y0062413D02*
X0138833Y0062413D01*
X0138833Y0064012D02*
X0138833Y0064012D01*
X0136756Y0064012D02*
X0111233Y0064012D01*
X0111233Y0065610D02*
X0181133Y0065610D01*
X0181133Y0066606D02*
X0181133Y0063127D01*
X0183594Y0060667D01*
X0187073Y0060667D01*
X0189533Y0063127D01*
X0189533Y0066606D01*
X0187073Y0069067D01*
X0183594Y0069067D01*
X0181133Y0066606D01*
X0181736Y0067209D02*
X0111233Y0067209D01*
X0111233Y0068807D02*
X0183334Y0068807D01*
X0181133Y0064012D02*
X0140911Y0064012D01*
X0142509Y0062413D02*
X0170252Y0062413D01*
X0170252Y0060815D02*
X0143233Y0060815D01*
X0143233Y0059216D02*
X0170252Y0059216D01*
X0170252Y0057618D02*
X0142807Y0057618D01*
X0134860Y0057618D02*
X0112524Y0057618D01*
X0113033Y0059216D02*
X0134433Y0059216D01*
X0134433Y0060815D02*
X0113033Y0060815D01*
X0112227Y0062413D02*
X0135157Y0062413D01*
X0133356Y0072467D02*
X0168801Y0072467D01*
X0169340Y0071164D01*
X0170831Y0069674D01*
X0172779Y0068867D01*
X0174888Y0068867D01*
X0176836Y0069674D01*
X0178326Y0071164D01*
X0179133Y0073112D01*
X0179133Y0075221D01*
X0178326Y0077169D01*
X0176836Y0078660D01*
X0174888Y0079467D01*
X0172779Y0079467D01*
X0170831Y0078660D01*
X0169438Y0077267D01*
X0134827Y0077267D01*
X0126733Y0085361D01*
X0126733Y0088624D01*
X0127336Y0088874D01*
X0128826Y0090364D01*
X0129333Y0091588D01*
X0129840Y0090364D01*
X0131331Y0088874D01*
X0132066Y0088569D01*
X0132299Y0088007D01*
X0136799Y0083507D01*
X0137474Y0082832D01*
X0138356Y0082467D01*
X0169438Y0082467D01*
X0170831Y0081074D01*
X0172779Y0080267D01*
X0174888Y0080267D01*
X0176836Y0081074D01*
X0178326Y0082564D01*
X0179133Y0084512D01*
X0179133Y0086621D01*
X0178326Y0088569D01*
X0176836Y0090060D01*
X0174888Y0090867D01*
X0172779Y0090867D01*
X0170831Y0090060D01*
X0169340Y0088569D01*
X0168801Y0087267D01*
X0139827Y0087267D01*
X0137778Y0089316D01*
X0138826Y0090364D01*
X0139633Y0092312D01*
X0139633Y0094421D01*
X0138826Y0096369D01*
X0137336Y0097860D01*
X0135388Y0098667D01*
X0133279Y0098667D01*
X0131331Y0097860D01*
X0129840Y0096369D01*
X0129333Y0095145D01*
X0128826Y0096369D01*
X0127336Y0097860D01*
X0125388Y0098667D01*
X0123279Y0098667D01*
X0121331Y0097860D01*
X0119840Y0096369D01*
X0119033Y0094421D01*
X0119033Y0092312D01*
X0119840Y0090364D01*
X0121331Y0088874D01*
X0121933Y0088624D01*
X0121933Y0083889D01*
X0122299Y0083007D01*
X0131799Y0073507D01*
X0132474Y0072832D01*
X0133356Y0072467D01*
X0131703Y0073603D02*
X0108491Y0073603D01*
X0106893Y0075201D02*
X0130105Y0075201D01*
X0128506Y0076800D02*
X0105294Y0076800D01*
X0103696Y0078398D02*
X0126908Y0078398D01*
X0125309Y0079997D02*
X0102097Y0079997D01*
X0100499Y0081595D02*
X0123711Y0081595D01*
X0122221Y0083194D02*
X0098900Y0083194D01*
X0097302Y0084792D02*
X0121933Y0084792D01*
X0121933Y0086391D02*
X0096233Y0086391D01*
X0096233Y0087989D02*
X0121933Y0087989D01*
X0120617Y0089588D02*
X0097050Y0089588D01*
X0098167Y0091186D02*
X0119500Y0091186D01*
X0119033Y0092785D02*
X0098633Y0092785D01*
X0098633Y0094383D02*
X0119033Y0094383D01*
X0119680Y0095982D02*
X0097987Y0095982D01*
X0096615Y0097580D02*
X0121052Y0097580D01*
X0120158Y0099179D02*
X0137508Y0099179D01*
X0137615Y0097580D02*
X0177726Y0097580D01*
X0176839Y0098467D02*
X0181133Y0094173D01*
X0181133Y0093127D01*
X0183594Y0090667D01*
X0187073Y0090667D01*
X0189533Y0093127D01*
X0189533Y0096606D01*
X0187073Y0099067D01*
X0183594Y0099067D01*
X0183311Y0098784D01*
X0180233Y0101861D01*
X0180233Y0105396D01*
X0177363Y0108267D01*
X0173304Y0108267D01*
X0170433Y0105396D01*
X0170433Y0101337D01*
X0173304Y0098467D01*
X0176839Y0098467D01*
X0179324Y0095982D02*
X0138987Y0095982D01*
X0139633Y0094383D02*
X0180923Y0094383D01*
X0181476Y0092785D02*
X0139633Y0092785D01*
X0139167Y0091186D02*
X0183074Y0091186D01*
X0183833Y0094867D02*
X0175333Y0103367D01*
X0172208Y0107171D02*
X0163408Y0107171D01*
X0164070Y0105573D02*
X0170610Y0105573D01*
X0170433Y0103974D02*
X0164133Y0103974D01*
X0163745Y0102376D02*
X0170433Y0102376D01*
X0170993Y0100777D02*
X0162739Y0100777D01*
X0160158Y0099179D02*
X0172592Y0099179D01*
X0180233Y0102376D02*
X0187433Y0102376D01*
X0187433Y0103974D02*
X0180233Y0103974D01*
X0180057Y0105573D02*
X0187610Y0105573D01*
X0189208Y0107171D02*
X0178458Y0107171D01*
X0177363Y0108467D02*
X0180233Y0111337D01*
X0180233Y0115396D01*
X0177363Y0118267D01*
X0173304Y0118267D01*
X0170433Y0115396D01*
X0170433Y0111337D01*
X0173304Y0108467D01*
X0177363Y0108467D01*
X0177666Y0108770D02*
X0190000Y0108770D01*
X0190304Y0108467D02*
X0194363Y0108467D01*
X0197233Y0111337D01*
X0197233Y0115396D01*
X0194363Y0118267D01*
X0190304Y0118267D01*
X0187433Y0115396D01*
X0187433Y0111337D01*
X0190304Y0108467D01*
X0188402Y0110368D02*
X0179265Y0110368D01*
X0180233Y0111967D02*
X0187433Y0111967D01*
X0187433Y0113565D02*
X0180233Y0113565D01*
X0180233Y0115164D02*
X0187433Y0115164D01*
X0188799Y0116762D02*
X0178867Y0116762D01*
X0175517Y0123156D02*
X0198233Y0123156D01*
X0198233Y0121558D02*
X0173919Y0121558D01*
X0172320Y0119959D02*
X0198233Y0119959D01*
X0198233Y0118361D02*
X0170722Y0118361D01*
X0171799Y0116762D02*
X0169123Y0116762D01*
X0170433Y0115164D02*
X0167525Y0115164D01*
X0165926Y0113565D02*
X0170433Y0113565D01*
X0170433Y0111967D02*
X0163369Y0111967D01*
X0161823Y0110368D02*
X0171402Y0110368D01*
X0173000Y0108770D02*
X0161925Y0108770D01*
X0158833Y0104367D02*
X0158833Y0114867D01*
X0163833Y0114867D01*
X0173833Y0124867D01*
X0173833Y0157367D01*
X0168833Y0162367D01*
X0152711Y0162367D01*
X0152377Y0162701D01*
X0152377Y0172544D02*
X0171156Y0172544D01*
X0173833Y0169867D01*
X0173646Y0173448D02*
X0172516Y0174578D01*
X0171634Y0174944D01*
X0161851Y0174944D01*
X0161851Y0175569D01*
X0160913Y0176506D01*
X0143840Y0176506D01*
X0142903Y0175569D01*
X0142903Y0169519D01*
X0143840Y0168582D01*
X0160913Y0168582D01*
X0161851Y0169519D01*
X0161851Y0170144D01*
X0170162Y0170144D01*
X0170252Y0170054D01*
X0170252Y0167223D01*
X0171189Y0166286D01*
X0176477Y0166286D01*
X0177414Y0167223D01*
X0177414Y0172510D01*
X0176477Y0173448D01*
X0173646Y0173448D01*
X0172785Y0174309D02*
X0179997Y0174309D01*
X0178398Y0175907D02*
X0161512Y0175907D01*
X0160913Y0178424D02*
X0161851Y0179361D01*
X0161851Y0179986D01*
X0174320Y0179986D01*
X0182783Y0171523D01*
X0182533Y0170921D01*
X0182533Y0168812D01*
X0183340Y0166864D01*
X0184831Y0165374D01*
X0186779Y0164567D01*
X0188888Y0164567D01*
X0190836Y0165374D01*
X0192326Y0166864D01*
X0193133Y0168812D01*
X0193133Y0170921D01*
X0192326Y0172869D01*
X0190836Y0174360D01*
X0190666Y0174430D01*
X0191121Y0174502D01*
X0191945Y0174770D01*
X0192716Y0175163D01*
X0193416Y0175671D01*
X0194028Y0176284D01*
X0194537Y0176984D01*
X0194930Y0177755D01*
X0195198Y0178579D01*
X0195333Y0179434D01*
X0195333Y0179667D01*
X0190033Y0179667D01*
X0190033Y0180067D01*
X0195333Y0180067D01*
X0195333Y0180300D01*
X0195198Y0181155D01*
X0194930Y0181978D01*
X0194537Y0182749D01*
X0194028Y0183450D01*
X0193416Y0184062D01*
X0192716Y0184571D01*
X0191945Y0184964D01*
X0191121Y0185231D01*
X0190666Y0185303D01*
X0190836Y0185374D01*
X0192326Y0186864D01*
X0193133Y0188812D01*
X0193133Y0190921D01*
X0192326Y0192869D01*
X0190836Y0194360D01*
X0190336Y0194567D01*
X0190888Y0194567D01*
X0192836Y0195374D01*
X0194326Y0196864D01*
X0195133Y0198812D01*
X0195133Y0200921D01*
X0194326Y0202869D01*
X0192836Y0204360D01*
X0190888Y0205167D01*
X0190336Y0205167D01*
X0190836Y0205374D01*
X0192326Y0206864D01*
X0193133Y0208812D01*
X0193133Y0210921D01*
X0192326Y0212869D01*
X0190836Y0214360D01*
X0190666Y0214430D01*
X0191121Y0214502D01*
X0191945Y0214770D01*
X0192716Y0215163D01*
X0193416Y0215671D01*
X0194028Y0216284D01*
X0194537Y0216984D01*
X0194930Y0217755D01*
X0195198Y0218579D01*
X0195333Y0219434D01*
X0195333Y0219667D01*
X0190033Y0219667D01*
X0190033Y0220067D01*
X0189633Y0220067D01*
X0189633Y0225367D01*
X0189400Y0225367D01*
X0188545Y0225231D01*
X0187722Y0224964D01*
X0186951Y0224571D01*
X0186250Y0224062D01*
X0185638Y0223450D01*
X0185129Y0222749D01*
X0184736Y0221978D01*
X0184469Y0221155D01*
X0184333Y0220300D01*
X0184333Y0220067D01*
X0189633Y0220067D01*
X0189633Y0219667D01*
X0184333Y0219667D01*
X0184333Y0219434D01*
X0184469Y0218579D01*
X0184736Y0217755D01*
X0185129Y0216984D01*
X0185638Y0216284D01*
X0186250Y0215671D01*
X0186945Y0215167D01*
X0186779Y0215167D01*
X0184831Y0214360D01*
X0183340Y0212869D01*
X0182533Y0210921D01*
X0182533Y0208812D01*
X0183340Y0206864D01*
X0184831Y0205374D01*
X0186779Y0204567D01*
X0187331Y0204567D01*
X0186831Y0204360D01*
X0185340Y0202869D01*
X0184533Y0200921D01*
X0184533Y0198812D01*
X0185340Y0196864D01*
X0186831Y0195374D01*
X0187331Y0195167D01*
X0186779Y0195167D01*
X0184831Y0194360D01*
X0183783Y0193311D01*
X0181233Y0195861D01*
X0181233Y0211286D01*
X0181477Y0211286D01*
X0182414Y0212223D01*
X0182414Y0217510D01*
X0181477Y0218448D01*
X0176189Y0218448D01*
X0175252Y0217510D01*
X0175252Y0212223D01*
X0176189Y0211286D01*
X0176433Y0211286D01*
X0176433Y0194389D01*
X0176799Y0193507D01*
X0181799Y0188507D01*
X0182474Y0187832D01*
X0183036Y0187599D01*
X0183340Y0186864D01*
X0184831Y0185374D01*
X0186779Y0184567D01*
X0186945Y0184567D01*
X0186250Y0184062D01*
X0185638Y0183450D01*
X0185129Y0182749D01*
X0184736Y0181978D01*
X0184469Y0181155D01*
X0184333Y0180300D01*
X0184333Y0180067D01*
X0189633Y0180067D01*
X0189633Y0179667D01*
X0184333Y0179667D01*
X0184333Y0179434D01*
X0184469Y0178579D01*
X0184736Y0177755D01*
X0185129Y0176984D01*
X0185638Y0176284D01*
X0186250Y0175671D01*
X0186945Y0175167D01*
X0186779Y0175167D01*
X0186177Y0174917D01*
X0177348Y0183746D01*
X0176233Y0184861D01*
X0176233Y0210344D01*
X0175868Y0211226D01*
X0175193Y0211901D01*
X0173146Y0213949D01*
X0172263Y0214314D01*
X0161851Y0214314D01*
X0161851Y0214939D01*
X0160913Y0215876D01*
X0143840Y0215876D01*
X0142903Y0214939D01*
X0142903Y0208889D01*
X0143840Y0207952D01*
X0160913Y0207952D01*
X0161851Y0208889D01*
X0161851Y0209514D01*
X0170792Y0209514D01*
X0171433Y0208873D01*
X0171433Y0184786D01*
X0161851Y0184786D01*
X0161851Y0185411D01*
X0160913Y0186349D01*
X0143840Y0186349D01*
X0142903Y0185411D01*
X0142903Y0179361D01*
X0143840Y0178424D01*
X0160913Y0178424D01*
X0161594Y0179104D02*
X0175201Y0179104D01*
X0176800Y0177506D02*
X0136233Y0177506D01*
X0136233Y0179104D02*
X0143160Y0179104D01*
X0142903Y0180703D02*
X0136233Y0180703D01*
X0136233Y0182301D02*
X0142903Y0182301D01*
X0142903Y0183900D02*
X0136233Y0183900D01*
X0136233Y0185498D02*
X0142990Y0185498D01*
X0143808Y0188189D02*
X0143397Y0188426D01*
X0143062Y0188761D01*
X0142825Y0189172D01*
X0142703Y0189630D01*
X0142703Y0191848D01*
X0151995Y0191848D01*
X0151995Y0192610D01*
X0142703Y0192610D01*
X0142703Y0194828D01*
X0142825Y0195286D01*
X0143062Y0195696D01*
X0143397Y0196031D01*
X0143808Y0196268D01*
X0144266Y0196391D01*
X0151996Y0196391D01*
X0151996Y0192610D01*
X0152758Y0192610D01*
X0162051Y0192610D01*
X0162051Y0194828D01*
X0161928Y0195286D01*
X0161691Y0195696D01*
X0161356Y0196031D01*
X0160945Y0196268D01*
X0160488Y0196391D01*
X0152758Y0196391D01*
X0152758Y0192610D01*
X0152758Y0191848D01*
X0162051Y0191848D01*
X0162051Y0189630D01*
X0161928Y0189172D01*
X0161691Y0188761D01*
X0161356Y0188426D01*
X0160945Y0188189D01*
X0160488Y0188067D01*
X0152758Y0188067D01*
X0152758Y0191848D01*
X0151996Y0191848D01*
X0151996Y0188067D01*
X0144266Y0188067D01*
X0143808Y0188189D01*
X0143128Y0188695D02*
X0136233Y0188695D01*
X0136233Y0187097D02*
X0171433Y0187097D01*
X0171433Y0188695D02*
X0161625Y0188695D01*
X0162051Y0190294D02*
X0171433Y0190294D01*
X0171433Y0191892D02*
X0152758Y0191892D01*
X0151995Y0191892D02*
X0136233Y0191892D01*
X0136233Y0190294D02*
X0142703Y0190294D01*
X0142703Y0193491D02*
X0136233Y0193491D01*
X0136233Y0195090D02*
X0142773Y0195090D01*
X0143663Y0198287D02*
X0136233Y0198287D01*
X0136233Y0196688D02*
X0171433Y0196688D01*
X0171433Y0195090D02*
X0161981Y0195090D01*
X0162051Y0193491D02*
X0171433Y0193491D01*
X0171433Y0198287D02*
X0161091Y0198287D01*
X0161851Y0199885D02*
X0171433Y0199885D01*
X0171433Y0201484D02*
X0161851Y0201484D01*
X0161851Y0203082D02*
X0171433Y0203082D01*
X0171433Y0204681D02*
X0161851Y0204681D01*
X0161851Y0209476D02*
X0170830Y0209476D01*
X0171433Y0207878D02*
X0136233Y0207878D01*
X0136233Y0209476D02*
X0142903Y0209476D01*
X0142903Y0211075D02*
X0136233Y0211075D01*
X0136233Y0212673D02*
X0142903Y0212673D01*
X0142903Y0214272D02*
X0136233Y0214272D01*
X0136233Y0215870D02*
X0143834Y0215870D01*
X0142903Y0219067D02*
X0136428Y0219067D01*
X0136233Y0217469D02*
X0175252Y0217469D01*
X0175252Y0215870D02*
X0160919Y0215870D01*
X0161851Y0219067D02*
X0184391Y0219067D01*
X0184391Y0220666D02*
X0161851Y0220666D01*
X0161851Y0222264D02*
X0184882Y0222264D01*
X0186051Y0223863D02*
X0161851Y0223863D01*
X0161297Y0225461D02*
X0198233Y0225461D01*
X0198233Y0223863D02*
X0193615Y0223863D01*
X0193416Y0224062D02*
X0192716Y0224571D01*
X0191945Y0224964D01*
X0191121Y0225231D01*
X0190266Y0225367D01*
X0190033Y0225367D01*
X0190033Y0220067D01*
X0195333Y0220067D01*
X0195333Y0220300D01*
X0195198Y0221155D01*
X0194930Y0221978D01*
X0194537Y0222749D01*
X0194028Y0223450D01*
X0193416Y0224062D01*
X0194785Y0222264D02*
X0198233Y0222264D01*
X0198233Y0220666D02*
X0195275Y0220666D01*
X0195275Y0219067D02*
X0198233Y0219067D01*
X0198233Y0217469D02*
X0194784Y0217469D01*
X0193615Y0215870D02*
X0198233Y0215870D01*
X0198233Y0214272D02*
X0190924Y0214272D01*
X0192408Y0212673D02*
X0198233Y0212673D01*
X0198233Y0211075D02*
X0193070Y0211075D01*
X0193133Y0209476D02*
X0198233Y0209476D01*
X0198233Y0207878D02*
X0192746Y0207878D01*
X0191741Y0206279D02*
X0198233Y0206279D01*
X0198233Y0204681D02*
X0192061Y0204681D01*
X0194113Y0203082D02*
X0198233Y0203082D01*
X0198233Y0201484D02*
X0194900Y0201484D01*
X0195133Y0199885D02*
X0198233Y0199885D01*
X0198233Y0198287D02*
X0194915Y0198287D01*
X0194150Y0196688D02*
X0198233Y0196688D01*
X0198233Y0195090D02*
X0192150Y0195090D01*
X0191704Y0193491D02*
X0198233Y0193491D01*
X0198233Y0191892D02*
X0192731Y0191892D01*
X0193133Y0190294D02*
X0198233Y0190294D01*
X0198233Y0188695D02*
X0193085Y0188695D01*
X0192423Y0187097D02*
X0198233Y0187097D01*
X0198233Y0185498D02*
X0190960Y0185498D01*
X0193578Y0183900D02*
X0198233Y0183900D01*
X0198233Y0182301D02*
X0194766Y0182301D01*
X0195269Y0180703D02*
X0198233Y0180703D01*
X0198233Y0179104D02*
X0195281Y0179104D01*
X0194803Y0177506D02*
X0198233Y0177506D01*
X0198233Y0175907D02*
X0193652Y0175907D01*
X0190886Y0174309D02*
X0198233Y0174309D01*
X0198233Y0172710D02*
X0192392Y0172710D01*
X0193054Y0171112D02*
X0198233Y0171112D01*
X0198233Y0169513D02*
X0193133Y0169513D01*
X0192762Y0167915D02*
X0198233Y0167915D01*
X0198233Y0166316D02*
X0191778Y0166316D01*
X0189252Y0164718D02*
X0198233Y0164718D01*
X0198233Y0163119D02*
X0171475Y0163119D01*
X0173073Y0161521D02*
X0198233Y0161521D01*
X0198233Y0159922D02*
X0174672Y0159922D01*
X0176035Y0158324D02*
X0198233Y0158324D01*
X0198233Y0156725D02*
X0176233Y0156725D01*
X0176233Y0155127D02*
X0198233Y0155127D01*
X0198233Y0153528D02*
X0176233Y0153528D01*
X0176233Y0151930D02*
X0198233Y0151930D01*
X0198233Y0150331D02*
X0176233Y0150331D01*
X0176233Y0148733D02*
X0198233Y0148733D01*
X0198233Y0147134D02*
X0176233Y0147134D01*
X0176233Y0145536D02*
X0198233Y0145536D01*
X0198233Y0143937D02*
X0176233Y0143937D01*
X0176233Y0142339D02*
X0198233Y0142339D01*
X0198233Y0140740D02*
X0176233Y0140740D01*
X0176233Y0139142D02*
X0198233Y0139142D01*
X0198233Y0137543D02*
X0176233Y0137543D01*
X0176233Y0135945D02*
X0198233Y0135945D01*
X0198233Y0134346D02*
X0176233Y0134346D01*
X0176233Y0132748D02*
X0192775Y0132748D01*
X0191633Y0131149D02*
X0176233Y0131149D01*
X0176233Y0129551D02*
X0191633Y0129551D01*
X0191808Y0127952D02*
X0176233Y0127952D01*
X0176233Y0126354D02*
X0193407Y0126354D01*
X0198233Y0124755D02*
X0176233Y0124755D01*
X0165833Y0129867D02*
X0158333Y0129867D01*
X0158833Y0143367D02*
X0158833Y0143804D01*
X0145290Y0143804D01*
X0133833Y0134867D02*
X0138833Y0129867D01*
X0138833Y0114867D01*
X0138833Y0104367D01*
X0134927Y0100777D02*
X0131603Y0100777D01*
X0133331Y0102376D02*
X0133921Y0102376D01*
X0131052Y0097580D02*
X0127615Y0097580D01*
X0128987Y0095982D02*
X0129680Y0095982D01*
X0129500Y0091186D02*
X0129167Y0091186D01*
X0128050Y0089588D02*
X0130617Y0089588D01*
X0132317Y0087989D02*
X0126733Y0087989D01*
X0126733Y0086391D02*
X0133915Y0086391D01*
X0135514Y0084792D02*
X0127302Y0084792D01*
X0128900Y0083194D02*
X0137112Y0083194D01*
X0138833Y0084867D02*
X0134333Y0089367D01*
X0134333Y0093367D01*
X0138050Y0089588D02*
X0170359Y0089588D01*
X0169100Y0087989D02*
X0139105Y0087989D01*
X0138833Y0084867D02*
X0173133Y0084867D01*
X0173833Y0085567D01*
X0170309Y0081595D02*
X0130499Y0081595D01*
X0132097Y0079997D02*
X0198233Y0079997D01*
X0198233Y0081595D02*
X0177357Y0081595D01*
X0178587Y0083194D02*
X0198233Y0083194D01*
X0198233Y0084792D02*
X0179133Y0084792D01*
X0179133Y0086391D02*
X0198233Y0086391D01*
X0198233Y0087989D02*
X0178567Y0087989D01*
X0177308Y0089588D02*
X0198233Y0089588D01*
X0198233Y0091186D02*
X0196393Y0091186D01*
X0197991Y0092785D02*
X0198233Y0092785D01*
X0194133Y0094867D02*
X0194133Y0101567D01*
X0192333Y0103367D01*
X0195458Y0107171D02*
X0198233Y0107171D01*
X0198233Y0105573D02*
X0197057Y0105573D01*
X0197233Y0103974D02*
X0198233Y0103974D01*
X0198233Y0102376D02*
X0197233Y0102376D01*
X0196674Y0100777D02*
X0198233Y0100777D01*
X0198233Y0099179D02*
X0196533Y0099179D01*
X0197359Y0097580D02*
X0198233Y0097580D01*
X0190907Y0097580D02*
X0188559Y0097580D01*
X0189533Y0095982D02*
X0189933Y0095982D01*
X0189933Y0094383D02*
X0189533Y0094383D01*
X0189191Y0092785D02*
X0190276Y0092785D01*
X0191874Y0091186D02*
X0187593Y0091186D01*
X0185333Y0094867D02*
X0183833Y0094867D01*
X0182915Y0099179D02*
X0189592Y0099179D01*
X0187993Y0100777D02*
X0181317Y0100777D01*
X0194666Y0108770D02*
X0198233Y0108770D01*
X0198233Y0110368D02*
X0196265Y0110368D01*
X0197233Y0111967D02*
X0198233Y0111967D01*
X0198233Y0113565D02*
X0197233Y0113565D01*
X0197233Y0115164D02*
X0198233Y0115164D01*
X0198233Y0116762D02*
X0195867Y0116762D01*
X0198233Y0078398D02*
X0177097Y0078398D01*
X0178479Y0076800D02*
X0198233Y0076800D01*
X0198233Y0075201D02*
X0179133Y0075201D01*
X0179133Y0073603D02*
X0198233Y0073603D01*
X0198233Y0072004D02*
X0178674Y0072004D01*
X0177568Y0070406D02*
X0198233Y0070406D01*
X0198233Y0068807D02*
X0196133Y0068807D01*
X0197731Y0067209D02*
X0198233Y0067209D01*
X0198233Y0062413D02*
X0197619Y0062413D01*
X0198233Y0060815D02*
X0196021Y0060815D01*
X0198233Y0059216D02*
X0177414Y0059216D01*
X0177414Y0057618D02*
X0198233Y0057618D01*
X0198233Y0056019D02*
X0176233Y0056019D01*
X0176233Y0054421D02*
X0198233Y0054421D01*
X0198233Y0052822D02*
X0176233Y0052822D01*
X0176233Y0051223D02*
X0198233Y0051223D01*
X0198233Y0049625D02*
X0176233Y0049625D01*
X0176233Y0048026D02*
X0198233Y0048026D01*
X0198233Y0046428D02*
X0176233Y0046428D01*
X0176233Y0044829D02*
X0198233Y0044829D01*
X0198233Y0043231D02*
X0176233Y0043231D01*
X0176233Y0041632D02*
X0198233Y0041632D01*
X0198233Y0040034D02*
X0176233Y0040034D01*
X0176233Y0038435D02*
X0198233Y0038435D01*
X0198233Y0036837D02*
X0176233Y0036837D01*
X0176233Y0035238D02*
X0198233Y0035238D01*
X0198233Y0033640D02*
X0176233Y0033640D01*
X0176233Y0032041D02*
X0198233Y0032041D01*
X0198233Y0030443D02*
X0176233Y0030443D01*
X0176233Y0028844D02*
X0198233Y0028844D01*
X0198233Y0027246D02*
X0176233Y0027246D01*
X0176233Y0025647D02*
X0198233Y0025647D01*
X0198233Y0024049D02*
X0176092Y0024049D01*
X0174811Y0022450D02*
X0198233Y0022450D01*
X0198233Y0020852D02*
X0173213Y0020852D01*
X0171614Y0019253D02*
X0198233Y0019253D01*
X0198233Y0017655D02*
X0163243Y0017655D01*
X0164067Y0016056D02*
X0198233Y0016056D01*
X0198233Y0014458D02*
X0159033Y0014458D01*
X0164127Y0012859D02*
X0198233Y0012859D01*
X0198233Y0011261D02*
X0163375Y0011261D01*
X0169833Y0020867D02*
X0173833Y0024867D01*
X0173833Y0059867D01*
X0171433Y0052822D02*
X0166772Y0052822D01*
X0168371Y0051223D02*
X0171433Y0051223D01*
X0171433Y0049625D02*
X0169233Y0049625D01*
X0169233Y0048026D02*
X0171433Y0048026D01*
X0171433Y0046428D02*
X0169233Y0046428D01*
X0169233Y0044829D02*
X0171433Y0044829D01*
X0171433Y0043231D02*
X0169233Y0043231D01*
X0169233Y0041632D02*
X0171433Y0041632D01*
X0171433Y0040034D02*
X0169233Y0040034D01*
X0169233Y0038435D02*
X0171433Y0038435D01*
X0171433Y0036837D02*
X0169233Y0036837D01*
X0169233Y0035238D02*
X0171433Y0035238D01*
X0171433Y0033640D02*
X0169233Y0033640D01*
X0169233Y0032041D02*
X0171433Y0032041D01*
X0171433Y0030443D02*
X0169233Y0030443D01*
X0169233Y0028844D02*
X0171433Y0028844D01*
X0171433Y0027246D02*
X0169174Y0027246D01*
X0168008Y0025647D02*
X0171220Y0025647D01*
X0169621Y0024049D02*
X0166410Y0024049D01*
X0163833Y0024867D02*
X0166833Y0027867D01*
X0166833Y0049367D01*
X0164333Y0051867D01*
X0111333Y0051867D01*
X0108833Y0054367D01*
X0108833Y0059867D01*
X0108833Y0069867D01*
X0093833Y0084867D01*
X0093833Y0092867D01*
X0093333Y0093367D01*
X0088680Y0095982D02*
X0087987Y0095982D01*
X0086615Y0097580D02*
X0090052Y0097580D01*
X0091603Y0100777D02*
X0094927Y0100777D01*
X0093921Y0102376D02*
X0093331Y0102376D01*
X0097508Y0099179D02*
X0080665Y0099179D01*
X0079033Y0099179D02*
X0078633Y0099179D01*
X0078633Y0100777D02*
X0079033Y0100777D01*
X0079033Y0102376D02*
X0078633Y0102376D01*
X0078633Y0103974D02*
X0079033Y0103974D01*
X0078833Y0104367D02*
X0078833Y0114867D01*
X0078633Y0114667D02*
X0079033Y0114667D01*
X0079033Y0109867D01*
X0079033Y0104567D01*
X0078633Y0104567D01*
X0078633Y0114667D01*
X0078633Y0115164D02*
X0079033Y0115164D01*
X0079033Y0116762D02*
X0078633Y0116762D01*
X0078633Y0118361D02*
X0079033Y0118361D01*
X0079033Y0119959D02*
X0078633Y0119959D01*
X0076714Y0119959D02*
X0070388Y0119959D01*
X0072834Y0118361D02*
X0074574Y0118361D01*
X0078633Y0113565D02*
X0079033Y0113565D01*
X0079033Y0111967D02*
X0078633Y0111967D01*
X0078633Y0110368D02*
X0079033Y0110368D01*
X0079033Y0108770D02*
X0078633Y0108770D01*
X0078633Y0107171D02*
X0079033Y0107171D01*
X0079033Y0105573D02*
X0078633Y0105573D01*
X0073697Y0102376D02*
X0073331Y0102376D01*
X0074644Y0100777D02*
X0071603Y0100777D01*
X0068833Y0105367D02*
X0068833Y0114867D01*
X0064832Y0118361D02*
X0062834Y0118361D01*
X0063785Y0116762D02*
X0063882Y0116762D01*
X0067279Y0119959D02*
X0060388Y0119959D01*
X0057279Y0119959D02*
X0050388Y0119959D01*
X0052834Y0118361D02*
X0054832Y0118361D01*
X0053882Y0116762D02*
X0053785Y0116762D01*
X0048833Y0114867D02*
X0048833Y0105367D01*
X0046063Y0100777D02*
X0022864Y0100777D01*
X0023526Y0099179D02*
X0057508Y0099179D01*
X0060158Y0099179D02*
X0077001Y0099179D01*
X0080052Y0097580D02*
X0042345Y0097580D01*
X0042414Y0095982D02*
X0078680Y0095982D01*
X0079617Y0089588D02*
X0023933Y0089588D01*
X0023933Y0091186D02*
X0039326Y0091186D01*
X0040333Y0093367D02*
X0038833Y0094867D01*
X0040333Y0093367D02*
X0083333Y0093367D01*
X0083333Y0085367D01*
X0098833Y0069867D01*
X0098833Y0059867D01*
X0098833Y0053867D01*
X0096833Y0051867D01*
X0043333Y0051867D01*
X0048833Y0045367D02*
X0048833Y0034867D01*
X0048633Y0019253D02*
X0049033Y0019253D01*
X0049033Y0017655D02*
X0048633Y0017655D01*
X0048633Y0016056D02*
X0049033Y0016056D01*
X0052725Y0019253D02*
X0056781Y0019253D01*
X0054626Y0017655D02*
X0053840Y0017655D01*
X0060886Y0019253D02*
X0065225Y0019253D01*
X0064044Y0017655D02*
X0063041Y0017655D01*
X0072442Y0019253D02*
X0074057Y0019253D01*
X0078833Y0014367D02*
X0113833Y0014367D01*
X0109533Y0018667D02*
X0109533Y0024867D01*
X0163833Y0024867D01*
X0169833Y0020867D02*
X0150333Y0020867D01*
X0148833Y0019367D01*
X0148833Y0015367D01*
X0148833Y0034867D02*
X0148833Y0045367D01*
X0138833Y0044367D02*
X0138833Y0034867D01*
X0158833Y0034867D02*
X0158833Y0044367D01*
X0170099Y0070406D02*
X0111208Y0070406D01*
X0110090Y0072004D02*
X0168992Y0072004D01*
X0173133Y0074867D02*
X0173833Y0074167D01*
X0173133Y0074867D02*
X0133833Y0074867D01*
X0124333Y0084367D01*
X0124333Y0093367D01*
X0122739Y0100777D02*
X0126063Y0100777D01*
X0124335Y0102376D02*
X0123745Y0102376D01*
X0118833Y0104367D02*
X0118833Y0114867D01*
X0113882Y0116762D02*
X0113785Y0116762D01*
X0112834Y0118361D02*
X0114832Y0118361D01*
X0117279Y0119959D02*
X0110388Y0119959D01*
X0107279Y0119959D02*
X0100388Y0119959D01*
X0102834Y0118361D02*
X0104832Y0118361D01*
X0103882Y0116762D02*
X0103785Y0116762D01*
X0098833Y0114867D02*
X0098833Y0104367D01*
X0103745Y0102376D02*
X0104335Y0102376D01*
X0102739Y0100777D02*
X0106063Y0100777D01*
X0108833Y0105367D02*
X0108833Y0114867D01*
X0113331Y0102376D02*
X0113921Y0102376D01*
X0114927Y0100777D02*
X0111603Y0100777D01*
X0117508Y0099179D02*
X0100158Y0099179D01*
X0088833Y0105367D02*
X0088833Y0114867D01*
X0093785Y0116762D02*
X0093882Y0116762D01*
X0094832Y0118361D02*
X0092834Y0118361D01*
X0090388Y0119959D02*
X0097279Y0119959D01*
X0087279Y0119959D02*
X0080953Y0119959D01*
X0083093Y0118361D02*
X0084832Y0118361D01*
X0084335Y0102376D02*
X0083970Y0102376D01*
X0083022Y0100777D02*
X0086063Y0100777D01*
X0080933Y0087989D02*
X0023933Y0087989D01*
X0023933Y0086391D02*
X0080933Y0086391D01*
X0080974Y0084792D02*
X0023933Y0084792D01*
X0023933Y0083194D02*
X0082112Y0083194D01*
X0083711Y0081595D02*
X0023933Y0081595D01*
X0024466Y0079997D02*
X0085309Y0079997D01*
X0086908Y0078398D02*
X0024933Y0078398D01*
X0024933Y0076800D02*
X0088506Y0076800D01*
X0090105Y0075201D02*
X0024933Y0075201D01*
X0024933Y0073603D02*
X0091703Y0073603D01*
X0093302Y0072004D02*
X0024734Y0072004D01*
X0023996Y0070467D02*
X0016671Y0070467D01*
X0015733Y0069529D01*
X0015733Y0062204D01*
X0016671Y0061267D01*
X0023996Y0061267D01*
X0024933Y0062204D01*
X0024933Y0069529D01*
X0023996Y0070467D01*
X0024057Y0070406D02*
X0094900Y0070406D01*
X0096433Y0068807D02*
X0024933Y0068807D01*
X0024933Y0067209D02*
X0096433Y0067209D01*
X0096433Y0065610D02*
X0024933Y0065610D01*
X0024933Y0064012D02*
X0066756Y0064012D01*
X0067011Y0064267D02*
X0064433Y0061689D01*
X0064433Y0059867D01*
X0068833Y0059867D01*
X0068833Y0064267D01*
X0067011Y0064267D01*
X0068833Y0064267D02*
X0068833Y0059867D01*
X0068833Y0059867D01*
X0068833Y0059867D01*
X0064433Y0059867D01*
X0064433Y0058044D01*
X0067011Y0055467D01*
X0068833Y0055467D01*
X0068833Y0059867D01*
X0073233Y0059867D01*
X0073233Y0061689D01*
X0070656Y0064267D01*
X0068833Y0064267D01*
X0068833Y0064012D02*
X0068833Y0064012D01*
X0068833Y0062413D02*
X0068833Y0062413D01*
X0068833Y0060815D02*
X0068833Y0060815D01*
X0068833Y0059867D02*
X0068833Y0059867D01*
X0068833Y0059867D01*
X0068833Y0055467D01*
X0070656Y0055467D01*
X0073233Y0058044D01*
X0073233Y0059867D01*
X0068833Y0059867D01*
X0068833Y0059216D02*
X0068833Y0059216D01*
X0068833Y0057618D02*
X0068833Y0057618D01*
X0068833Y0056019D02*
X0068833Y0056019D01*
X0066458Y0056019D02*
X0009433Y0056019D01*
X0009433Y0054421D02*
X0095993Y0054421D01*
X0096433Y0056019D02*
X0071208Y0056019D01*
X0072807Y0057618D02*
X0095143Y0057618D01*
X0094633Y0059216D02*
X0073233Y0059216D01*
X0073233Y0060815D02*
X0094633Y0060815D01*
X0095440Y0062413D02*
X0072509Y0062413D01*
X0070911Y0064012D02*
X0096433Y0064012D01*
X0098833Y0044367D02*
X0098833Y0034867D01*
X0088833Y0034867D02*
X0088833Y0045367D01*
X0078833Y0044367D02*
X0078833Y0034867D01*
X0068833Y0034867D02*
X0068833Y0045367D01*
X0058833Y0044367D02*
X0058833Y0034867D01*
X0064860Y0057618D02*
X0009433Y0057618D01*
X0009433Y0059216D02*
X0064433Y0059216D01*
X0064433Y0060815D02*
X0009433Y0060815D01*
X0009433Y0062413D02*
X0015733Y0062413D01*
X0015733Y0064012D02*
X0009433Y0064012D01*
X0009433Y0065610D02*
X0015733Y0065610D01*
X0015733Y0067209D02*
X0009433Y0067209D01*
X0009433Y0068807D02*
X0015733Y0068807D01*
X0016610Y0070406D02*
X0009433Y0070406D01*
X0009433Y0072004D02*
X0015933Y0072004D01*
X0015733Y0073603D02*
X0009433Y0073603D01*
X0009433Y0075201D02*
X0015733Y0075201D01*
X0015733Y0076800D02*
X0009433Y0076800D01*
X0009433Y0078398D02*
X0015733Y0078398D01*
X0016201Y0079997D02*
X0009433Y0079997D01*
X0009433Y0081595D02*
X0016733Y0081595D01*
X0016733Y0083194D02*
X0009433Y0083194D01*
X0009433Y0084792D02*
X0016733Y0084792D01*
X0016733Y0086391D02*
X0009433Y0086391D01*
X0009433Y0087989D02*
X0016733Y0087989D01*
X0016733Y0089588D02*
X0009433Y0089588D01*
X0009433Y0091186D02*
X0016733Y0091186D01*
X0016733Y0092785D02*
X0009433Y0092785D01*
X0009433Y0094383D02*
X0014321Y0094383D01*
X0013377Y0095982D02*
X0009433Y0095982D01*
X0009433Y0097580D02*
X0013033Y0097580D01*
X0013140Y0099179D02*
X0009433Y0099179D01*
X0009433Y0100777D02*
X0013802Y0100777D01*
X0015370Y0102376D02*
X0009433Y0102376D01*
X0009433Y0103974D02*
X0014730Y0103974D01*
X0013547Y0105573D02*
X0009433Y0105573D01*
X0009433Y0107171D02*
X0013033Y0107171D01*
X0013033Y0108770D02*
X0009433Y0108770D01*
X0009433Y0110368D02*
X0013633Y0110368D01*
X0014938Y0111967D02*
X0009433Y0111967D01*
X0009433Y0113565D02*
X0015139Y0113565D01*
X0013716Y0115164D02*
X0009433Y0115164D01*
X0009433Y0116762D02*
X0013054Y0116762D01*
X0013033Y0118361D02*
X0009433Y0118361D01*
X0009433Y0119959D02*
X0013464Y0119959D01*
X0014529Y0121558D02*
X0009433Y0121558D01*
X0009433Y0123156D02*
X0017255Y0123156D01*
X0019412Y0123156D02*
X0116530Y0123156D01*
X0116433Y0124755D02*
X0009433Y0124755D01*
X0009433Y0126354D02*
X0116122Y0126354D01*
X0115252Y0127952D02*
X0009433Y0127952D01*
X0009433Y0129551D02*
X0056099Y0129551D01*
X0055895Y0129755D02*
X0056832Y0128818D01*
X0069181Y0128818D01*
X0070118Y0129755D01*
X0070118Y0138955D01*
X0069181Y0139892D01*
X0056832Y0139892D01*
X0055895Y0138955D01*
X0055895Y0129755D01*
X0055895Y0131149D02*
X0009433Y0131149D01*
X0009433Y0132748D02*
X0055895Y0132748D01*
X0055895Y0134346D02*
X0009433Y0134346D01*
X0009433Y0135945D02*
X0055895Y0135945D01*
X0055895Y0137543D02*
X0009433Y0137543D01*
X0009433Y0139142D02*
X0056082Y0139142D01*
X0069931Y0139142D02*
X0131433Y0139142D01*
X0131433Y0140740D02*
X0009433Y0140740D01*
X0009433Y0142339D02*
X0131433Y0142339D01*
X0131433Y0143937D02*
X0009433Y0143937D01*
X0009433Y0145536D02*
X0131433Y0145536D01*
X0131433Y0147134D02*
X0009433Y0147134D01*
X0009433Y0148733D02*
X0131433Y0148733D01*
X0131433Y0150331D02*
X0009433Y0150331D01*
X0009433Y0151930D02*
X0131433Y0151930D01*
X0131433Y0153528D02*
X0009433Y0153528D01*
X0009433Y0155127D02*
X0030809Y0155127D01*
X0030798Y0155138D02*
X0030824Y0155112D01*
X0034949Y0155112D01*
X0036237Y0156400D01*
X0038539Y0158702D01*
X0038539Y0163306D01*
X0039552Y0164319D01*
X0040032Y0164319D01*
X0041045Y0163306D01*
X0041045Y0160525D01*
X0038743Y0158223D01*
X0038743Y0156400D01*
X0040032Y0155112D01*
X0041854Y0155112D01*
X0044156Y0157414D01*
X0045445Y0158702D01*
X0045445Y0165129D01*
X0045419Y0165155D01*
X0044156Y0166417D01*
X0043143Y0167431D01*
X0041854Y0168719D01*
X0037730Y0168719D01*
X0036441Y0167431D01*
X0036441Y0167431D01*
X0035428Y0166417D01*
X0034139Y0165129D01*
X0034139Y0160525D01*
X0033126Y0159512D01*
X0032647Y0159512D01*
X0031633Y0160525D01*
X0031633Y0163306D01*
X0033935Y0165608D01*
X0033935Y0167431D01*
X0032647Y0168719D01*
X0030824Y0168719D01*
X0027233Y0165129D01*
X0027233Y0158702D01*
X0028522Y0157414D01*
X0029535Y0156400D01*
X0030798Y0155138D01*
X0029535Y0156400D02*
X0029535Y0156400D01*
X0029210Y0156725D02*
X0009433Y0156725D01*
X0009433Y0158324D02*
X0027612Y0158324D01*
X0028522Y0157414D02*
X0028522Y0157414D01*
X0027233Y0159922D02*
X0009433Y0159922D01*
X0009433Y0161521D02*
X0027233Y0161521D01*
X0027233Y0163119D02*
X0009433Y0163119D01*
X0009433Y0164718D02*
X0027233Y0164718D01*
X0028421Y0166316D02*
X0009433Y0166316D01*
X0009433Y0167915D02*
X0030019Y0167915D01*
X0028522Y0168923D02*
X0044156Y0168923D01*
X0045445Y0170212D01*
X0045445Y0172035D01*
X0044156Y0173323D01*
X0041752Y0175727D01*
X0044156Y0178131D01*
X0044156Y0178131D01*
X0045402Y0179377D01*
X0045445Y0179420D01*
X0045445Y0181243D01*
X0044175Y0182513D01*
X0044156Y0182531D01*
X0042334Y0182531D01*
X0028522Y0182531D01*
X0027233Y0181243D01*
X0027233Y0179420D01*
X0028522Y0178131D01*
X0037934Y0178131D01*
X0037730Y0177927D01*
X0036441Y0176639D01*
X0036441Y0174816D01*
X0037934Y0173323D01*
X0028522Y0173323D01*
X0027233Y0172035D01*
X0027233Y0170212D01*
X0028522Y0168923D01*
X0027932Y0169513D02*
X0009433Y0169513D01*
X0009433Y0171112D02*
X0027233Y0171112D01*
X0027909Y0172710D02*
X0009433Y0172710D01*
X0009433Y0174309D02*
X0036948Y0174309D01*
X0036441Y0175907D02*
X0009433Y0175907D01*
X0009433Y0177506D02*
X0037308Y0177506D01*
X0037730Y0177927D02*
X0037730Y0177927D01*
X0041932Y0175907D02*
X0131433Y0175907D01*
X0131433Y0174309D02*
X0043171Y0174309D01*
X0044769Y0172710D02*
X0131433Y0172710D01*
X0131433Y0171112D02*
X0045445Y0171112D01*
X0044746Y0169513D02*
X0131433Y0169513D01*
X0131433Y0167915D02*
X0042659Y0167915D01*
X0043143Y0167431D02*
X0043143Y0167431D01*
X0044156Y0166417D02*
X0044156Y0166417D01*
X0044258Y0166316D02*
X0131433Y0166316D01*
X0131433Y0164718D02*
X0045445Y0164718D01*
X0045445Y0163119D02*
X0131433Y0163119D01*
X0131433Y0161521D02*
X0045445Y0161521D01*
X0045445Y0159922D02*
X0131433Y0159922D01*
X0131433Y0158324D02*
X0045067Y0158324D01*
X0043468Y0156725D02*
X0131433Y0156725D01*
X0131433Y0155127D02*
X0041870Y0155127D01*
X0040017Y0155127D02*
X0034964Y0155127D01*
X0036562Y0156725D02*
X0038743Y0156725D01*
X0038844Y0158324D02*
X0038161Y0158324D01*
X0038539Y0159922D02*
X0040443Y0159922D01*
X0041045Y0161521D02*
X0038539Y0161521D01*
X0038539Y0163119D02*
X0041045Y0163119D01*
X0036925Y0167915D02*
X0033451Y0167915D01*
X0033935Y0166316D02*
X0035327Y0166316D01*
X0035428Y0166417D02*
X0035428Y0166417D01*
X0034139Y0164718D02*
X0033045Y0164718D01*
X0034139Y0163119D02*
X0031633Y0163119D01*
X0031633Y0161521D02*
X0034139Y0161521D01*
X0033537Y0159922D02*
X0032236Y0159922D01*
X0027549Y0179104D02*
X0009433Y0179104D01*
X0009433Y0180703D02*
X0027233Y0180703D01*
X0028292Y0182301D02*
X0009433Y0182301D01*
X0009433Y0183900D02*
X0027357Y0183900D01*
X0027233Y0184024D02*
X0028522Y0182735D01*
X0030345Y0182735D01*
X0031633Y0184024D01*
X0031633Y0191943D01*
X0034139Y0191943D01*
X0034139Y0188628D01*
X0035428Y0187339D01*
X0037250Y0187339D01*
X0038539Y0188628D01*
X0038539Y0191943D01*
X0041045Y0191943D01*
X0041045Y0184024D01*
X0042334Y0182735D01*
X0044156Y0182735D01*
X0045445Y0184024D01*
X0045445Y0195054D01*
X0044156Y0196343D01*
X0028522Y0196343D01*
X0027233Y0195054D01*
X0027233Y0184024D01*
X0027233Y0185498D02*
X0009433Y0185498D01*
X0009433Y0187097D02*
X0027233Y0187097D01*
X0027233Y0188695D02*
X0009433Y0188695D01*
X0009433Y0190294D02*
X0027233Y0190294D01*
X0027233Y0191892D02*
X0009433Y0191892D01*
X0009433Y0193491D02*
X0027233Y0193491D01*
X0027269Y0195090D02*
X0009433Y0195090D01*
X0009433Y0196688D02*
X0042193Y0196688D01*
X0042334Y0196547D02*
X0044156Y0196547D01*
X0045445Y0197836D01*
X0045445Y0208866D01*
X0044156Y0210155D01*
X0042334Y0210155D01*
X0041045Y0208866D01*
X0041045Y0205551D01*
X0028522Y0205551D01*
X0027233Y0204262D01*
X0027233Y0202440D01*
X0028522Y0201151D01*
X0041045Y0201151D01*
X0041045Y0197836D01*
X0042334Y0196547D01*
X0044297Y0196688D02*
X0131433Y0196688D01*
X0131433Y0195090D02*
X0045410Y0195090D01*
X0045445Y0193491D02*
X0131433Y0193491D01*
X0131433Y0191892D02*
X0045445Y0191892D01*
X0045445Y0190294D02*
X0131433Y0190294D01*
X0131433Y0188695D02*
X0045445Y0188695D01*
X0045445Y0187097D02*
X0131433Y0187097D01*
X0131433Y0185498D02*
X0045445Y0185498D01*
X0045321Y0183900D02*
X0131433Y0183900D01*
X0131433Y0182301D02*
X0044386Y0182301D01*
X0045445Y0180703D02*
X0131433Y0180703D01*
X0131433Y0179104D02*
X0045130Y0179104D01*
X0043531Y0177506D02*
X0131433Y0177506D01*
X0136233Y0175907D02*
X0143241Y0175907D01*
X0142903Y0174309D02*
X0136233Y0174309D01*
X0136233Y0172710D02*
X0142903Y0172710D01*
X0142903Y0171112D02*
X0136233Y0171112D01*
X0136233Y0169513D02*
X0142908Y0169513D01*
X0143493Y0166316D02*
X0136233Y0166316D01*
X0136233Y0164718D02*
X0142903Y0164718D01*
X0142903Y0163119D02*
X0136233Y0163119D01*
X0136233Y0161521D02*
X0142903Y0161521D01*
X0137796Y0159922D02*
X0136233Y0159922D01*
X0136233Y0167915D02*
X0170252Y0167915D01*
X0170252Y0169513D02*
X0161845Y0169513D01*
X0161261Y0166316D02*
X0171159Y0166316D01*
X0169429Y0164718D02*
X0186414Y0164718D01*
X0183888Y0166316D02*
X0176508Y0166316D01*
X0177414Y0167915D02*
X0182905Y0167915D01*
X0182533Y0169513D02*
X0177414Y0169513D01*
X0177414Y0171112D02*
X0182612Y0171112D01*
X0181596Y0172710D02*
X0177215Y0172710D01*
X0178793Y0182301D02*
X0184901Y0182301D01*
X0184397Y0180703D02*
X0180391Y0180703D01*
X0181990Y0179104D02*
X0184385Y0179104D01*
X0184863Y0177506D02*
X0183588Y0177506D01*
X0185187Y0175907D02*
X0186014Y0175907D01*
X0187833Y0169867D02*
X0175314Y0182386D01*
X0173833Y0183867D01*
X0173833Y0209867D01*
X0171786Y0211914D01*
X0152377Y0211914D01*
X0152081Y0202367D02*
X0138833Y0202367D01*
X0142414Y0199885D02*
X0142903Y0199885D01*
X0136233Y0206279D02*
X0171433Y0206279D01*
X0176233Y0206279D02*
X0176433Y0206279D01*
X0176433Y0204681D02*
X0176233Y0204681D01*
X0176233Y0203082D02*
X0176433Y0203082D01*
X0176433Y0201484D02*
X0176233Y0201484D01*
X0176233Y0199885D02*
X0176433Y0199885D01*
X0176433Y0198287D02*
X0176233Y0198287D01*
X0176233Y0196688D02*
X0176433Y0196688D01*
X0176433Y0195090D02*
X0176233Y0195090D01*
X0176233Y0193491D02*
X0176815Y0193491D01*
X0176233Y0191892D02*
X0178413Y0191892D01*
X0180012Y0190294D02*
X0176233Y0190294D01*
X0176233Y0188695D02*
X0181610Y0188695D01*
X0183244Y0187097D02*
X0176233Y0187097D01*
X0176233Y0185498D02*
X0184706Y0185498D01*
X0186088Y0183900D02*
X0177194Y0183900D01*
X0177348Y0183746D02*
X0177348Y0183746D01*
X0175314Y0182386D02*
X0152377Y0182386D01*
X0151996Y0188695D02*
X0152758Y0188695D01*
X0152758Y0190294D02*
X0151996Y0190294D01*
X0151996Y0193491D02*
X0152758Y0193491D01*
X0152758Y0195090D02*
X0151996Y0195090D01*
X0152377Y0202071D02*
X0152081Y0202367D01*
X0161763Y0185498D02*
X0171433Y0185498D01*
X0178833Y0194867D02*
X0183833Y0189867D01*
X0187833Y0189867D01*
X0183962Y0193491D02*
X0183603Y0193491D01*
X0182005Y0195090D02*
X0186593Y0195090D01*
X0185517Y0196688D02*
X0181233Y0196688D01*
X0181233Y0198287D02*
X0184751Y0198287D01*
X0184533Y0199885D02*
X0181233Y0199885D01*
X0181233Y0201484D02*
X0184766Y0201484D01*
X0185553Y0203082D02*
X0181233Y0203082D01*
X0181233Y0204681D02*
X0186504Y0204681D01*
X0183926Y0206279D02*
X0181233Y0206279D01*
X0181233Y0207878D02*
X0182921Y0207878D01*
X0182533Y0209476D02*
X0181233Y0209476D01*
X0181233Y0211075D02*
X0182597Y0211075D01*
X0182414Y0212673D02*
X0183259Y0212673D01*
X0182414Y0214272D02*
X0184743Y0214272D01*
X0186052Y0215870D02*
X0182414Y0215870D01*
X0182414Y0217469D02*
X0184882Y0217469D01*
X0189633Y0220666D02*
X0190033Y0220666D01*
X0190033Y0222264D02*
X0189633Y0222264D01*
X0189633Y0223863D02*
X0190033Y0223863D01*
X0198233Y0227060D02*
X0161851Y0227060D01*
X0161851Y0228658D02*
X0198233Y0228658D01*
X0198233Y0230257D02*
X0161690Y0230257D01*
X0161851Y0231855D02*
X0198233Y0231855D01*
X0198233Y0233454D02*
X0161851Y0233454D01*
X0161851Y0235052D02*
X0198233Y0235052D01*
X0198233Y0236651D02*
X0161851Y0236651D01*
X0161851Y0238249D02*
X0198233Y0238249D01*
X0198233Y0239848D02*
X0161851Y0239848D01*
X0152008Y0241446D02*
X0198233Y0241446D01*
X0198233Y0243045D02*
X0152008Y0243045D01*
X0152008Y0244643D02*
X0198233Y0244643D01*
X0198233Y0246242D02*
X0152008Y0246242D01*
X0152008Y0247840D02*
X0198233Y0247840D01*
X0178833Y0214867D02*
X0178833Y0194867D01*
X0176433Y0207878D02*
X0176233Y0207878D01*
X0176233Y0209476D02*
X0176433Y0209476D01*
X0176433Y0211075D02*
X0175931Y0211075D01*
X0175252Y0212673D02*
X0174421Y0212673D01*
X0175252Y0214272D02*
X0172365Y0214272D01*
X0152377Y0221756D02*
X0135723Y0221756D01*
X0133833Y0219867D01*
X0133833Y0134867D01*
X0131451Y0134346D02*
X0070118Y0134346D01*
X0070118Y0132748D02*
X0115489Y0132748D01*
X0115252Y0131149D02*
X0070118Y0131149D01*
X0069914Y0129551D02*
X0115252Y0129551D01*
X0118833Y0129867D02*
X0118833Y0123867D01*
X0121333Y0121367D01*
X0127333Y0121367D01*
X0128833Y0119867D01*
X0128833Y0114867D01*
X0128833Y0105367D01*
X0133785Y0116762D02*
X0133882Y0116762D01*
X0134832Y0118361D02*
X0132834Y0118361D01*
X0131233Y0119959D02*
X0136433Y0119959D01*
X0136433Y0121558D02*
X0130536Y0121558D01*
X0128938Y0123156D02*
X0136433Y0123156D01*
X0136433Y0124755D02*
X0121339Y0124755D01*
X0121545Y0126354D02*
X0125907Y0126354D01*
X0126594Y0125667D02*
X0130073Y0125667D01*
X0132533Y0128127D01*
X0132533Y0131606D01*
X0130073Y0134067D01*
X0126594Y0134067D01*
X0124133Y0131606D01*
X0124133Y0128127D01*
X0126594Y0125667D01*
X0124308Y0127952D02*
X0122414Y0127952D01*
X0122414Y0129551D02*
X0124133Y0129551D01*
X0124133Y0131149D02*
X0122414Y0131149D01*
X0122177Y0132748D02*
X0125275Y0132748D01*
X0131392Y0132748D02*
X0132558Y0132748D01*
X0132533Y0131149D02*
X0134157Y0131149D01*
X0135755Y0129551D02*
X0132533Y0129551D01*
X0132358Y0127952D02*
X0136433Y0127952D01*
X0136433Y0126354D02*
X0130760Y0126354D01*
X0131433Y0135945D02*
X0070118Y0135945D01*
X0070118Y0137543D02*
X0131433Y0137543D01*
X0117748Y0121558D02*
X0022137Y0121558D01*
X0023203Y0119959D02*
X0047279Y0119959D01*
X0044832Y0118361D02*
X0023633Y0118361D01*
X0023613Y0116762D02*
X0043882Y0116762D01*
X0043533Y0115164D02*
X0022950Y0115164D01*
X0021527Y0113565D02*
X0043636Y0113565D01*
X0044298Y0111967D02*
X0021728Y0111967D01*
X0023034Y0110368D02*
X0045843Y0110368D01*
X0051603Y0100777D02*
X0054927Y0100777D01*
X0053921Y0102376D02*
X0053331Y0102376D01*
X0058833Y0104367D02*
X0058833Y0114867D01*
X0063745Y0102376D02*
X0064335Y0102376D01*
X0062739Y0100777D02*
X0066063Y0100777D01*
X0065157Y0062413D02*
X0024933Y0062413D01*
X0023933Y0092785D02*
X0035252Y0092785D01*
X0035252Y0094383D02*
X0023933Y0094383D01*
X0023933Y0095982D02*
X0035252Y0095982D01*
X0035322Y0097580D02*
X0023633Y0097580D01*
X0031509Y0183900D02*
X0041169Y0183900D01*
X0041045Y0185498D02*
X0031633Y0185498D01*
X0031633Y0187097D02*
X0041045Y0187097D01*
X0041045Y0188695D02*
X0038539Y0188695D01*
X0038539Y0190294D02*
X0041045Y0190294D01*
X0041045Y0191892D02*
X0038539Y0191892D01*
X0034139Y0191892D02*
X0031633Y0191892D01*
X0031633Y0190294D02*
X0034139Y0190294D01*
X0034139Y0188695D02*
X0031633Y0188695D01*
X0028189Y0201484D02*
X0009433Y0201484D01*
X0009433Y0203082D02*
X0027233Y0203082D01*
X0027652Y0204681D02*
X0009433Y0204681D01*
X0009433Y0206279D02*
X0041045Y0206279D01*
X0041045Y0207878D02*
X0009433Y0207878D01*
X0009433Y0209476D02*
X0041655Y0209476D01*
X0041854Y0210359D02*
X0043143Y0211648D01*
X0045445Y0213949D01*
X0045445Y0222678D01*
X0044156Y0223967D01*
X0028522Y0223967D01*
X0027233Y0222678D01*
X0027233Y0213949D01*
X0028522Y0212661D01*
X0029535Y0211648D01*
X0029535Y0211648D01*
X0030798Y0210385D01*
X0030824Y0210359D01*
X0034949Y0210359D01*
X0036237Y0211648D01*
X0036339Y0211749D01*
X0037730Y0210359D01*
X0041854Y0210359D01*
X0042570Y0211075D02*
X0131433Y0211075D01*
X0131433Y0212673D02*
X0044169Y0212673D01*
X0045445Y0214272D02*
X0131433Y0214272D01*
X0131433Y0215870D02*
X0045445Y0215870D01*
X0045445Y0217469D02*
X0131433Y0217469D01*
X0131433Y0219067D02*
X0045445Y0219067D01*
X0045445Y0220666D02*
X0131567Y0220666D01*
X0132837Y0222264D02*
X0045445Y0222264D01*
X0044260Y0223863D02*
X0134537Y0223863D01*
X0138969Y0228658D02*
X0009433Y0228658D01*
X0009433Y0227060D02*
X0142903Y0227060D01*
X0142903Y0228658D02*
X0142163Y0228658D01*
X0143456Y0225461D02*
X0009433Y0225461D01*
X0009433Y0223863D02*
X0028418Y0223863D01*
X0027233Y0222264D02*
X0009433Y0222264D01*
X0009433Y0220666D02*
X0027233Y0220666D01*
X0027233Y0219067D02*
X0009433Y0219067D01*
X0009433Y0217469D02*
X0027233Y0217469D01*
X0027233Y0215870D02*
X0009433Y0215870D01*
X0009433Y0214272D02*
X0027233Y0214272D01*
X0028510Y0212673D02*
X0009433Y0212673D01*
X0009433Y0211075D02*
X0030108Y0211075D01*
X0028522Y0212661D02*
X0028522Y0212661D01*
X0035664Y0211075D02*
X0037014Y0211075D01*
X0044835Y0209476D02*
X0131433Y0209476D01*
X0131433Y0207878D02*
X0045445Y0207878D01*
X0045445Y0206279D02*
X0131433Y0206279D01*
X0131433Y0204681D02*
X0045445Y0204681D01*
X0045445Y0203082D02*
X0131433Y0203082D01*
X0131433Y0201484D02*
X0045445Y0201484D01*
X0045445Y0199885D02*
X0131433Y0199885D01*
X0131433Y0198287D02*
X0045445Y0198287D01*
X0041045Y0198287D02*
X0009433Y0198287D01*
X0009433Y0199885D02*
X0041045Y0199885D01*
X0060620Y0231855D02*
X0009433Y0231855D01*
X0009433Y0230257D02*
X0135994Y0230257D01*
X0134551Y0231855D02*
X0067047Y0231855D01*
X0067414Y0233454D02*
X0133889Y0233454D01*
X0133600Y0235052D02*
X0067414Y0235052D01*
X0067414Y0236651D02*
X0133600Y0236651D01*
X0134150Y0238249D02*
X0066676Y0238249D01*
X0070118Y0239848D02*
X0135027Y0239848D01*
X0136633Y0241446D02*
X0070118Y0241446D01*
X0070118Y0243045D02*
X0137785Y0243045D01*
X0137785Y0244643D02*
X0070118Y0244643D01*
X0070118Y0246242D02*
X0137785Y0246242D01*
X0137785Y0247840D02*
X0070118Y0247840D01*
X0063007Y0244197D02*
X0063007Y0235693D01*
X0063833Y0234867D01*
X0060252Y0235052D02*
X0009433Y0235052D01*
X0009433Y0233454D02*
X0060252Y0233454D01*
X0060252Y0236651D02*
X0009433Y0236651D01*
X0009433Y0238249D02*
X0060607Y0238249D01*
X0055895Y0239848D02*
X0009433Y0239848D01*
X0009433Y0241446D02*
X0055895Y0241446D01*
X0055895Y0243045D02*
X0009433Y0243045D01*
X0009433Y0244643D02*
X0055895Y0244643D01*
X0055895Y0246242D02*
X0009433Y0246242D01*
X0009433Y0247840D02*
X0055895Y0247840D01*
X0143745Y0102376D02*
X0144335Y0102376D01*
X0142739Y0100777D02*
X0146063Y0100777D01*
X0148833Y0105367D02*
X0148833Y0114867D01*
X0153331Y0102376D02*
X0153921Y0102376D01*
X0154927Y0100777D02*
X0151603Y0100777D01*
X0157508Y0099179D02*
X0140158Y0099179D01*
X0133696Y0078398D02*
X0170570Y0078398D01*
X0177414Y0062413D02*
X0181847Y0062413D01*
X0183446Y0060815D02*
X0177414Y0060815D01*
X0187221Y0060815D02*
X0192246Y0060815D01*
X0190647Y0062413D02*
X0188819Y0062413D01*
X0189533Y0064012D02*
X0189933Y0064012D01*
X0189933Y0065610D02*
X0189533Y0065610D01*
X0188931Y0067209D02*
X0190536Y0067209D01*
X0192134Y0068807D02*
X0187333Y0068807D01*
X0118833Y0044367D02*
X0118833Y0034867D01*
X0108833Y0034867D02*
X0108833Y0045367D01*
D11*
X0040943Y0157312D02*
X0043245Y0159614D01*
X0043245Y0164218D01*
X0040943Y0166519D01*
X0038641Y0166519D01*
X0036339Y0164218D01*
X0036339Y0159614D01*
X0034037Y0157312D01*
X0031735Y0157312D01*
X0029433Y0159614D01*
X0029433Y0164218D01*
X0031735Y0166519D01*
X0029433Y0171123D02*
X0043245Y0171123D01*
X0038641Y0175727D01*
X0043245Y0180331D01*
X0029433Y0180331D01*
X0029433Y0184935D02*
X0029433Y0194143D01*
X0043245Y0194143D01*
X0043245Y0184935D01*
X0036339Y0189539D02*
X0036339Y0194143D01*
X0029433Y0203351D02*
X0043245Y0203351D01*
X0043245Y0207955D02*
X0043245Y0198747D01*
X0040943Y0212559D02*
X0038641Y0212559D01*
X0036339Y0214861D01*
X0036339Y0221767D01*
X0036339Y0214861D02*
X0034037Y0212559D01*
X0031735Y0212559D01*
X0029433Y0214861D01*
X0029433Y0221767D01*
X0043245Y0221767D01*
X0043245Y0214861D01*
X0040943Y0212559D01*
D12*
X0018333Y0117867D03*
X0018333Y0107867D03*
X0018333Y0097867D03*
X0048833Y0105367D03*
X0048833Y0114867D03*
X0058833Y0114867D03*
X0058833Y0104367D03*
X0068833Y0105367D03*
X0068833Y0114867D03*
X0078833Y0114867D03*
X0078833Y0104367D03*
X0083333Y0093367D03*
X0088833Y0105367D03*
X0088833Y0114867D03*
X0098833Y0114867D03*
X0098833Y0104367D03*
X0093333Y0093367D03*
X0108833Y0105367D03*
X0108833Y0114867D03*
X0118833Y0114867D03*
X0118833Y0104367D03*
X0124333Y0093367D03*
X0128833Y0105367D03*
X0128833Y0114867D03*
X0138833Y0114867D03*
X0138833Y0104367D03*
X0134333Y0093367D03*
X0148833Y0105367D03*
X0148833Y0114867D03*
X0158833Y0114867D03*
X0158833Y0104367D03*
X0173833Y0085567D03*
X0173833Y0074167D03*
X0158833Y0044367D03*
X0158833Y0034867D03*
X0148833Y0034867D03*
X0148833Y0045367D03*
X0138833Y0044367D03*
X0138833Y0034867D03*
X0128833Y0034867D03*
X0128833Y0045367D03*
X0118833Y0044367D03*
X0118833Y0034867D03*
X0108833Y0034867D03*
X0109533Y0024867D03*
X0098133Y0024867D03*
X0098833Y0034867D03*
X0098833Y0044367D03*
X0088833Y0045367D03*
X0088833Y0034867D03*
X0078833Y0034867D03*
X0078833Y0044367D03*
X0068833Y0045367D03*
X0068833Y0034867D03*
X0058833Y0034867D03*
X0058833Y0044367D03*
X0048833Y0045367D03*
X0048833Y0034867D03*
X0048833Y0015367D03*
X0058833Y0014367D03*
X0068833Y0015367D03*
X0108833Y0045367D03*
X0138833Y0014367D03*
X0148833Y0015367D03*
X0158833Y0014367D03*
X0187833Y0169867D03*
X0189833Y0179867D03*
X0187833Y0189867D03*
X0189833Y0199867D03*
X0187833Y0209867D03*
X0189833Y0219867D03*
D13*
X0020333Y0075867D03*
X0020333Y0065867D03*
D14*
X0175333Y0103367D03*
X0175333Y0113367D03*
X0192333Y0113367D03*
X0192333Y0103367D03*
D15*
X0128833Y0015367D03*
X0078833Y0014367D03*
D16*
X0068833Y0059867D03*
X0098833Y0059867D03*
X0108833Y0059867D03*
X0138833Y0059867D03*
X0128333Y0129867D03*
X0158333Y0129867D03*
X0165833Y0129867D03*
X0185333Y0094867D03*
X0194133Y0094867D03*
X0194133Y0064867D03*
X0185333Y0064867D03*
X0195833Y0129867D03*
D17*
X0145290Y0143804D03*
X0144896Y0244591D03*
X0063007Y0244197D03*
X0063007Y0134355D03*
D18*
X0152377Y0228056D03*
X0152377Y0233174D03*
X0152377Y0237898D03*
D19*
X0152377Y0221756D03*
X0152377Y0211914D03*
X0152377Y0202071D03*
X0152377Y0192229D03*
X0152377Y0182386D03*
X0152377Y0172544D03*
X0152377Y0162701D03*
X0152377Y0152859D03*
D20*
X0137416Y0152465D02*
X0137418Y0152577D01*
X0137424Y0152688D01*
X0137434Y0152800D01*
X0137448Y0152911D01*
X0137465Y0153021D01*
X0137487Y0153131D01*
X0137513Y0153240D01*
X0137542Y0153348D01*
X0137575Y0153454D01*
X0137612Y0153560D01*
X0137653Y0153664D01*
X0137698Y0153767D01*
X0137746Y0153868D01*
X0137797Y0153967D01*
X0137852Y0154064D01*
X0137911Y0154159D01*
X0137972Y0154253D01*
X0138037Y0154344D01*
X0138106Y0154432D01*
X0138177Y0154518D01*
X0138251Y0154602D01*
X0138329Y0154682D01*
X0138409Y0154760D01*
X0138492Y0154836D01*
X0138577Y0154908D01*
X0138665Y0154977D01*
X0138755Y0155043D01*
X0138848Y0155105D01*
X0138943Y0155165D01*
X0139040Y0155221D01*
X0139138Y0155273D01*
X0139239Y0155322D01*
X0139341Y0155367D01*
X0139445Y0155409D01*
X0139550Y0155447D01*
X0139657Y0155481D01*
X0139764Y0155511D01*
X0139873Y0155538D01*
X0139982Y0155560D01*
X0140093Y0155579D01*
X0140203Y0155594D01*
X0140315Y0155605D01*
X0140426Y0155612D01*
X0140538Y0155615D01*
X0140650Y0155614D01*
X0140762Y0155609D01*
X0140873Y0155600D01*
X0140984Y0155587D01*
X0141095Y0155570D01*
X0141205Y0155550D01*
X0141314Y0155525D01*
X0141422Y0155497D01*
X0141529Y0155464D01*
X0141635Y0155428D01*
X0141739Y0155388D01*
X0141842Y0155345D01*
X0141944Y0155298D01*
X0142043Y0155247D01*
X0142141Y0155193D01*
X0142237Y0155135D01*
X0142331Y0155074D01*
X0142422Y0155010D01*
X0142511Y0154943D01*
X0142598Y0154872D01*
X0142682Y0154798D01*
X0142764Y0154722D01*
X0142842Y0154642D01*
X0142918Y0154560D01*
X0142991Y0154475D01*
X0143061Y0154388D01*
X0143127Y0154298D01*
X0143191Y0154206D01*
X0143251Y0154112D01*
X0143308Y0154016D01*
X0143361Y0153917D01*
X0143411Y0153817D01*
X0143457Y0153716D01*
X0143500Y0153612D01*
X0143539Y0153507D01*
X0143574Y0153401D01*
X0143605Y0153294D01*
X0143633Y0153185D01*
X0143656Y0153076D01*
X0143676Y0152966D01*
X0143692Y0152855D01*
X0143704Y0152744D01*
X0143712Y0152633D01*
X0143716Y0152521D01*
X0143716Y0152409D01*
X0143712Y0152297D01*
X0143704Y0152186D01*
X0143692Y0152075D01*
X0143676Y0151964D01*
X0143656Y0151854D01*
X0143633Y0151745D01*
X0143605Y0151636D01*
X0143574Y0151529D01*
X0143539Y0151423D01*
X0143500Y0151318D01*
X0143457Y0151214D01*
X0143411Y0151113D01*
X0143361Y0151013D01*
X0143308Y0150914D01*
X0143251Y0150818D01*
X0143191Y0150724D01*
X0143127Y0150632D01*
X0143061Y0150542D01*
X0142991Y0150455D01*
X0142918Y0150370D01*
X0142842Y0150288D01*
X0142764Y0150208D01*
X0142682Y0150132D01*
X0142598Y0150058D01*
X0142511Y0149987D01*
X0142422Y0149920D01*
X0142331Y0149856D01*
X0142237Y0149795D01*
X0142141Y0149737D01*
X0142043Y0149683D01*
X0141944Y0149632D01*
X0141842Y0149585D01*
X0141739Y0149542D01*
X0141635Y0149502D01*
X0141529Y0149466D01*
X0141422Y0149433D01*
X0141314Y0149405D01*
X0141205Y0149380D01*
X0141095Y0149360D01*
X0140984Y0149343D01*
X0140873Y0149330D01*
X0140762Y0149321D01*
X0140650Y0149316D01*
X0140538Y0149315D01*
X0140426Y0149318D01*
X0140315Y0149325D01*
X0140203Y0149336D01*
X0140093Y0149351D01*
X0139982Y0149370D01*
X0139873Y0149392D01*
X0139764Y0149419D01*
X0139657Y0149449D01*
X0139550Y0149483D01*
X0139445Y0149521D01*
X0139341Y0149563D01*
X0139239Y0149608D01*
X0139138Y0149657D01*
X0139040Y0149709D01*
X0138943Y0149765D01*
X0138848Y0149825D01*
X0138755Y0149887D01*
X0138665Y0149953D01*
X0138577Y0150022D01*
X0138492Y0150094D01*
X0138409Y0150170D01*
X0138329Y0150248D01*
X0138251Y0150328D01*
X0138177Y0150412D01*
X0138106Y0150498D01*
X0138037Y0150586D01*
X0137972Y0150677D01*
X0137911Y0150771D01*
X0137852Y0150866D01*
X0137797Y0150963D01*
X0137746Y0151062D01*
X0137698Y0151163D01*
X0137653Y0151266D01*
X0137612Y0151370D01*
X0137575Y0151476D01*
X0137542Y0151582D01*
X0137513Y0151690D01*
X0137487Y0151799D01*
X0137465Y0151909D01*
X0137448Y0152019D01*
X0137434Y0152130D01*
X0137424Y0152242D01*
X0137418Y0152353D01*
X0137416Y0152465D01*
X0138401Y0235536D02*
X0138403Y0235629D01*
X0138409Y0235721D01*
X0138419Y0235813D01*
X0138433Y0235904D01*
X0138450Y0235995D01*
X0138472Y0236085D01*
X0138497Y0236174D01*
X0138526Y0236262D01*
X0138559Y0236348D01*
X0138596Y0236433D01*
X0138636Y0236517D01*
X0138680Y0236598D01*
X0138727Y0236678D01*
X0138777Y0236756D01*
X0138831Y0236831D01*
X0138888Y0236904D01*
X0138948Y0236974D01*
X0139011Y0237042D01*
X0139077Y0237107D01*
X0139145Y0237169D01*
X0139216Y0237229D01*
X0139290Y0237285D01*
X0139366Y0237338D01*
X0139444Y0237387D01*
X0139524Y0237434D01*
X0139606Y0237476D01*
X0139690Y0237516D01*
X0139775Y0237551D01*
X0139862Y0237583D01*
X0139950Y0237612D01*
X0140039Y0237636D01*
X0140129Y0237657D01*
X0140220Y0237673D01*
X0140312Y0237686D01*
X0140404Y0237695D01*
X0140497Y0237700D01*
X0140589Y0237701D01*
X0140682Y0237698D01*
X0140774Y0237691D01*
X0140866Y0237680D01*
X0140957Y0237665D01*
X0141048Y0237647D01*
X0141138Y0237624D01*
X0141226Y0237598D01*
X0141314Y0237568D01*
X0141400Y0237534D01*
X0141484Y0237497D01*
X0141567Y0237455D01*
X0141648Y0237411D01*
X0141728Y0237363D01*
X0141805Y0237312D01*
X0141879Y0237257D01*
X0141952Y0237199D01*
X0142022Y0237139D01*
X0142089Y0237075D01*
X0142153Y0237009D01*
X0142215Y0236939D01*
X0142273Y0236868D01*
X0142328Y0236794D01*
X0142380Y0236717D01*
X0142429Y0236638D01*
X0142475Y0236558D01*
X0142517Y0236475D01*
X0142555Y0236391D01*
X0142590Y0236305D01*
X0142621Y0236218D01*
X0142648Y0236130D01*
X0142671Y0236040D01*
X0142691Y0235950D01*
X0142707Y0235859D01*
X0142719Y0235767D01*
X0142727Y0235675D01*
X0142731Y0235582D01*
X0142731Y0235490D01*
X0142727Y0235397D01*
X0142719Y0235305D01*
X0142707Y0235213D01*
X0142691Y0235122D01*
X0142671Y0235032D01*
X0142648Y0234942D01*
X0142621Y0234854D01*
X0142590Y0234767D01*
X0142555Y0234681D01*
X0142517Y0234597D01*
X0142475Y0234514D01*
X0142429Y0234434D01*
X0142380Y0234355D01*
X0142328Y0234278D01*
X0142273Y0234204D01*
X0142215Y0234133D01*
X0142153Y0234063D01*
X0142089Y0233997D01*
X0142022Y0233933D01*
X0141952Y0233873D01*
X0141879Y0233815D01*
X0141805Y0233760D01*
X0141728Y0233709D01*
X0141649Y0233661D01*
X0141567Y0233617D01*
X0141484Y0233575D01*
X0141400Y0233538D01*
X0141314Y0233504D01*
X0141226Y0233474D01*
X0141138Y0233448D01*
X0141048Y0233425D01*
X0140957Y0233407D01*
X0140866Y0233392D01*
X0140774Y0233381D01*
X0140682Y0233374D01*
X0140589Y0233371D01*
X0140497Y0233372D01*
X0140404Y0233377D01*
X0140312Y0233386D01*
X0140220Y0233399D01*
X0140129Y0233415D01*
X0140039Y0233436D01*
X0139950Y0233460D01*
X0139862Y0233489D01*
X0139775Y0233521D01*
X0139690Y0233556D01*
X0139606Y0233596D01*
X0139524Y0233638D01*
X0139444Y0233685D01*
X0139366Y0233734D01*
X0139290Y0233787D01*
X0139216Y0233843D01*
X0139145Y0233903D01*
X0139077Y0233965D01*
X0139011Y0234030D01*
X0138948Y0234098D01*
X0138888Y0234168D01*
X0138831Y0234241D01*
X0138777Y0234316D01*
X0138727Y0234394D01*
X0138680Y0234474D01*
X0138636Y0234555D01*
X0138596Y0234639D01*
X0138559Y0234724D01*
X0138526Y0234810D01*
X0138497Y0234898D01*
X0138472Y0234987D01*
X0138450Y0235077D01*
X0138433Y0235168D01*
X0138419Y0235259D01*
X0138409Y0235351D01*
X0138403Y0235443D01*
X0138401Y0235536D01*
D21*
X0138833Y0202367D03*
X0173833Y0169867D03*
X0158833Y0143367D03*
X0118833Y0129867D03*
X0173833Y0059867D03*
X0178833Y0214867D03*
X0063833Y0234867D03*
X0038833Y0094867D03*
D22*
X0048833Y0105367D02*
X0020833Y0105367D01*
X0018333Y0107867D01*
X0018333Y0097867D02*
X0020333Y0095867D01*
X0020333Y0075867D01*
M02*
