G75*
%MOIN*%
%OFA0B0*%
%FSLAX25Y25*%
%IPPOS*%
%LPD*%
%AMOC8*
5,1,8,0,0,1.08239X$1,22.5*
%
%ADD10C,0.07900*%
%ADD11R,0.08500X0.08500*%
%ADD12C,0.08500*%
%ADD13OC8,0.07100*%
%ADD14R,0.07900X0.07900*%
%ADD15OC8,0.05300*%
%ADD16C,0.04831*%
%ADD17C,0.06799*%
%ADD18R,0.04262X0.04262*%
D10*
X0048833Y0015367D03*
X0058833Y0014367D03*
X0068833Y0015367D03*
X0068833Y0033367D03*
X0068833Y0045367D03*
X0058833Y0044367D03*
X0058833Y0033367D03*
X0048833Y0033367D03*
X0048833Y0045367D03*
X0078833Y0044367D03*
X0088833Y0045367D03*
X0088833Y0033367D03*
X0078833Y0033367D03*
X0098833Y0033367D03*
X0098833Y0044367D03*
X0108833Y0045367D03*
X0108833Y0033367D03*
X0118833Y0033367D03*
X0118833Y0044367D03*
X0128833Y0045367D03*
X0138833Y0044367D03*
X0138833Y0033367D03*
X0128833Y0033367D03*
X0138833Y0014367D03*
X0148833Y0015367D03*
X0158833Y0014367D03*
X0158833Y0033367D03*
X0158833Y0044367D03*
X0148833Y0045367D03*
X0148833Y0033367D03*
X0173833Y0072167D03*
X0173833Y0083567D03*
X0158833Y0104367D03*
X0148833Y0105367D03*
X0148833Y0116367D03*
X0138833Y0116367D03*
X0128833Y0116367D03*
X0128833Y0105367D03*
X0138833Y0104367D03*
X0134333Y0093367D03*
X0124333Y0093367D03*
X0118833Y0104367D03*
X0108833Y0105367D03*
X0108833Y0116367D03*
X0098833Y0116367D03*
X0088833Y0116367D03*
X0078833Y0116367D03*
X0088833Y0105367D03*
X0078833Y0104367D03*
X0083333Y0093367D03*
X0093333Y0093367D03*
X0098833Y0104367D03*
X0118833Y0116367D03*
X0108833Y0131867D03*
X0098833Y0131867D03*
X0088833Y0131867D03*
X0078833Y0131867D03*
X0068833Y0116367D03*
X0068833Y0105367D03*
X0058833Y0104367D03*
X0048833Y0105367D03*
X0048833Y0116367D03*
X0058833Y0116367D03*
X0018333Y0119867D03*
X0018333Y0109867D03*
X0018333Y0099867D03*
X0098133Y0022367D03*
X0109533Y0022367D03*
X0158833Y0116367D03*
X0187833Y0169867D03*
X0189833Y0179867D03*
X0187833Y0189867D03*
X0189833Y0199867D03*
X0187833Y0209867D03*
X0189833Y0219867D03*
D11*
X0017333Y0062867D03*
D12*
X0017333Y0076646D03*
D13*
X0175333Y0103367D03*
X0175333Y0113367D03*
X0192333Y0113367D03*
X0192333Y0103367D03*
D14*
X0128833Y0015367D03*
X0078833Y0014367D03*
D15*
X0068833Y0059867D03*
X0098833Y0059867D03*
X0108833Y0059867D03*
X0138833Y0059867D03*
X0185333Y0062367D03*
X0194133Y0062367D03*
X0194133Y0092367D03*
X0185333Y0092367D03*
X0195833Y0129867D03*
X0165833Y0129867D03*
X0158333Y0129867D03*
X0128333Y0129867D03*
D16*
X0140566Y0235536D03*
D17*
X0140566Y0152465D03*
D18*
X0158833Y0143367D03*
X0168833Y0172367D03*
X0138833Y0202367D03*
X0178833Y0214867D03*
X0118833Y0129867D03*
X0173833Y0058367D03*
X0044833Y0124867D03*
X0031333Y0141867D03*
X0038833Y0094867D03*
X0063833Y0234867D03*
M02*
